<ttFont>
    <TTGlyph name="A" xMin="36" yMin="0" xMax="780" yMax="718">
      <contour>
        <pt x="768" y="0" on="1"/>
        <pt x="542" y="0" on="1"/>
        <pt x="530" y="0" on="0"/>
        <pt x="530" y="12" on="1"/>
        <pt x="530" y="63" on="1"/>
        <pt x="530" y="75" on="0"/>
        <pt x="542" y="75" on="1"/>
        <pt x="612" y="75" on="1"/>
        <pt x="547" y="248" on="1"/>
        <pt x="268" y="248" on="1"/>
        <pt x="203" y="75" on="1"/>
        <pt x="273" y="75" on="1"/>
        <pt x="285" y="75" on="0"/>
        <pt x="285" y="63" on="1"/>
        <pt x="285" y="12" on="1"/>
        <pt x="285" y="0" on="0"/>
        <pt x="273" y="0" on="1"/>
        <pt x="48" y="0" on="1"/>
        <pt x="36" y="0" on="0"/>
        <pt x="36" y="12" on="1"/>
        <pt x="36" y="63" on="1"/>
        <pt x="36" y="75" on="0"/>
        <pt x="48" y="75" on="1"/>
        <pt x="115" y="75" on="1"/>
        <pt x="330" y="643" on="1"/>
        <pt x="276" y="643" on="1"/>
        <pt x="263" y="643" on="0"/>
        <pt x="263" y="655" on="1"/>
        <pt x="263" y="706" on="1"/>
        <pt x="263" y="718" on="0"/>
        <pt x="276" y="718" on="1"/>
        <pt x="412" y="718" on="1"/>
        <pt x="436" y="718" on="0"/>
        <pt x="461" y="698" on="0"/>
        <pt x="470" y="675" on="1"/>
        <pt x="700" y="75" on="1"/>
        <pt x="768" y="75" on="1"/>
        <pt x="780" y="75" on="0"/>
        <pt x="780" y="63" on="1"/>
        <pt x="780" y="12" on="1"/>
        <pt x="780" y="0" on="0"/>
      </contour>
      <contour>
        <pt x="520" y="317" on="1"/>
        <pt x="409" y="614" on="1"/>
        <pt x="406" y="614" on="1"/>
        <pt x="294" y="317" on="1"/>
      </contour>
    </TTGlyph>
    <TTGlyph name="AE" xMin="48" yMin="0" xMax="996" yMax="718">
      <contour>
        <pt x="984" y="0" on="1"/>
        <pt x="452" y="0" on="1"/>
        <pt x="440" y="0" on="0"/>
        <pt x="440" y="12" on="1"/>
        <pt x="440" y="63" on="1"/>
        <pt x="440" y="75" on="0"/>
        <pt x="452" y="75" on="1"/>
        <pt x="529" y="75" on="1"/>
        <pt x="529" y="320" on="1"/>
        <pt x="320" y="320" on="1"/>
        <pt x="216" y="75" on="1"/>
        <pt x="285" y="75" on="1"/>
        <pt x="298" y="75" on="0"/>
        <pt x="298" y="63" on="1"/>
        <pt x="298" y="12" on="1"/>
        <pt x="298" y="0" on="0"/>
        <pt x="285" y="0" on="1"/>
        <pt x="61" y="0" on="1"/>
        <pt x="48" y="0" on="0"/>
        <pt x="48" y="12" on="1"/>
        <pt x="48" y="63" on="1"/>
        <pt x="48" y="75" on="0"/>
        <pt x="61" y="75" on="1"/>
        <pt x="128" y="75" on="1"/>
        <pt x="370" y="643" on="1"/>
        <pt x="315" y="643" on="1"/>
        <pt x="303" y="643" on="0"/>
        <pt x="303" y="655" on="1"/>
        <pt x="303" y="706" on="1"/>
        <pt x="303" y="718" on="0"/>
        <pt x="315" y="718" on="1"/>
        <pt x="984" y="718" on="1"/>
        <pt x="996" y="718" on="0"/>
        <pt x="996" y="706" on="1"/>
        <pt x="996" y="545" on="1"/>
        <pt x="996" y="532" on="0"/>
        <pt x="984" y="532" on="1"/>
        <pt x="930" y="532" on="1"/>
        <pt x="917" y="532" on="0"/>
        <pt x="917" y="545" on="1"/>
        <pt x="917" y="643" on="1"/>
        <pt x="616" y="643" on="1"/>
        <pt x="616" y="395" on="1"/>
        <pt x="869" y="395" on="1"/>
        <pt x="881" y="395" on="0"/>
        <pt x="881" y="383" on="1"/>
        <pt x="881" y="332" on="1"/>
        <pt x="881" y="320" on="0"/>
        <pt x="869" y="320" on="1"/>
        <pt x="616" y="320" on="1"/>
        <pt x="616" y="75" on="1"/>
        <pt x="917" y="75" on="1"/>
        <pt x="917" y="173" on="1"/>
        <pt x="917" y="185" on="0"/>
        <pt x="929" y="185" on="1"/>
        <pt x="984" y="185" on="1"/>
        <pt x="996" y="185" on="0"/>
        <pt x="996" y="173" on="1"/>
        <pt x="996" y="12" on="1"/>
        <pt x="996" y="0" on="0"/>
      </contour>
      <contour>
        <pt x="529" y="395" on="1"/>
        <pt x="529" y="643" on="1"/>
        <pt x="458" y="643" on="1"/>
        <pt x="350" y="395" on="1"/>
      </contour>
    </TTGlyph>
    <TTGlyph name="AEacute" xMin="48" yMin="0" xMax="996" yMax="995">
      <contour>
        <pt x="715" y="990" on="1"/>
        <pt x="719" y="994" on="0"/>
        <pt x="729" y="994" on="0"/>
        <pt x="734" y="989" on="1"/>
        <pt x="765" y="951" on="1"/>
        <pt x="773" y="941" on="0"/>
        <pt x="764" y="932" on="1"/>
        <pt x="596" y="798" on="1"/>
        <pt x="584" y="791" on="0"/>
        <pt x="577" y="801" on="1"/>
        <pt x="552" y="830" on="1"/>
        <pt x="543" y="841" on="0"/>
        <pt x="554" y="849" on="1"/>
      </contour>
      <contour>
        <pt x="984" y="0" on="1"/>
        <pt x="452" y="0" on="1"/>
        <pt x="440" y="0" on="0"/>
        <pt x="440" y="12" on="1"/>
        <pt x="440" y="63" on="1"/>
        <pt x="440" y="75" on="0"/>
        <pt x="452" y="75" on="1"/>
        <pt x="529" y="75" on="1"/>
        <pt x="529" y="320" on="1"/>
        <pt x="320" y="320" on="1"/>
        <pt x="216" y="75" on="1"/>
        <pt x="285" y="75" on="1"/>
        <pt x="298" y="75" on="0"/>
        <pt x="298" y="63" on="1"/>
        <pt x="298" y="12" on="1"/>
        <pt x="298" y="0" on="0"/>
        <pt x="285" y="0" on="1"/>
        <pt x="61" y="0" on="1"/>
        <pt x="48" y="0" on="0"/>
        <pt x="48" y="12" on="1"/>
        <pt x="48" y="63" on="1"/>
        <pt x="48" y="75" on="0"/>
        <pt x="61" y="75" on="1"/>
        <pt x="128" y="75" on="1"/>
        <pt x="370" y="643" on="1"/>
        <pt x="315" y="643" on="1"/>
        <pt x="303" y="643" on="0"/>
        <pt x="303" y="655" on="1"/>
        <pt x="303" y="706" on="1"/>
        <pt x="303" y="718" on="0"/>
        <pt x="315" y="718" on="1"/>
        <pt x="984" y="718" on="1"/>
        <pt x="996" y="718" on="0"/>
        <pt x="996" y="706" on="1"/>
        <pt x="996" y="545" on="1"/>
        <pt x="996" y="532" on="0"/>
        <pt x="984" y="532" on="1"/>
        <pt x="930" y="532" on="1"/>
        <pt x="917" y="532" on="0"/>
        <pt x="917" y="545" on="1"/>
        <pt x="917" y="643" on="1"/>
        <pt x="616" y="643" on="1"/>
        <pt x="616" y="395" on="1"/>
        <pt x="869" y="395" on="1"/>
        <pt x="881" y="395" on="0"/>
        <pt x="881" y="383" on="1"/>
        <pt x="881" y="332" on="1"/>
        <pt x="881" y="320" on="0"/>
        <pt x="869" y="320" on="1"/>
        <pt x="616" y="320" on="1"/>
        <pt x="616" y="75" on="1"/>
        <pt x="917" y="75" on="1"/>
        <pt x="917" y="173" on="1"/>
        <pt x="917" y="185" on="0"/>
        <pt x="929" y="185" on="1"/>
        <pt x="984" y="185" on="1"/>
        <pt x="996" y="185" on="0"/>
        <pt x="996" y="173" on="1"/>
        <pt x="996" y="12" on="1"/>
        <pt x="996" y="0" on="0"/>
      </contour>
      <contour>
        <pt x="529" y="395" on="1"/>
        <pt x="529" y="643" on="1"/>
        <pt x="458" y="643" on="1"/>
        <pt x="350" y="395" on="1"/>
      </contour>
    </TTGlyph>
    <TTGlyph name="Aacute" xMin="36" yMin="0" xMax="780" yMax="995">
      <contour>
        <pt x="768" y="0" on="1"/>
        <pt x="542" y="0" on="1"/>
        <pt x="530" y="0" on="0"/>
        <pt x="530" y="12" on="1"/>
        <pt x="530" y="63" on="1"/>
        <pt x="530" y="75" on="0"/>
        <pt x="542" y="75" on="1"/>
        <pt x="612" y="75" on="1"/>
        <pt x="547" y="248" on="1"/>
        <pt x="268" y="248" on="1"/>
        <pt x="203" y="75" on="1"/>
        <pt x="273" y="75" on="1"/>
        <pt x="285" y="75" on="0"/>
        <pt x="285" y="63" on="1"/>
        <pt x="285" y="12" on="1"/>
        <pt x="285" y="0" on="0"/>
        <pt x="273" y="0" on="1"/>
        <pt x="48" y="0" on="1"/>
        <pt x="36" y="0" on="0"/>
        <pt x="36" y="12" on="1"/>
        <pt x="36" y="63" on="1"/>
        <pt x="36" y="75" on="0"/>
        <pt x="48" y="75" on="1"/>
        <pt x="115" y="75" on="1"/>
        <pt x="330" y="643" on="1"/>
        <pt x="276" y="643" on="1"/>
        <pt x="263" y="643" on="0"/>
        <pt x="263" y="655" on="1"/>
        <pt x="263" y="706" on="1"/>
        <pt x="263" y="718" on="0"/>
        <pt x="276" y="718" on="1"/>
        <pt x="412" y="718" on="1"/>
        <pt x="436" y="718" on="0"/>
        <pt x="461" y="698" on="0"/>
        <pt x="470" y="675" on="1"/>
        <pt x="700" y="75" on="1"/>
        <pt x="768" y="75" on="1"/>
        <pt x="780" y="75" on="0"/>
        <pt x="780" y="63" on="1"/>
        <pt x="780" y="12" on="1"/>
        <pt x="780" y="0" on="0"/>
      </contour>
      <contour>
        <pt x="520" y="317" on="1"/>
        <pt x="409" y="614" on="1"/>
        <pt x="406" y="614" on="1"/>
        <pt x="294" y="317" on="1"/>
      </contour>
      <contour>
        <pt x="403" y="798" on="1"/>
        <pt x="398" y="795" on="0"/>
        <pt x="388" y="795" on="0"/>
        <pt x="384" y="801" on="1"/>
        <pt x="359" y="830" on="1"/>
        <pt x="355" y="835" on="0"/>
        <pt x="355" y="845" on="0"/>
        <pt x="361" y="849" on="1"/>
        <pt x="522" y="990" on="1"/>
        <pt x="526" y="994" on="0"/>
        <pt x="536" y="994" on="0"/>
        <pt x="541" y="989" on="1"/>
        <pt x="572" y="951" on="1"/>
        <pt x="576" y="946" on="0"/>
        <pt x="576" y="937" on="0"/>
        <pt x="571" y="932" on="1"/>
      </contour>
    </TTGlyph>
    <TTGlyph name="Abreve" xMin="36" yMin="0" xMax="780" yMax="941">
      <contour>
        <pt x="768" y="0" on="1"/>
        <pt x="542" y="0" on="1"/>
        <pt x="530" y="0" on="0"/>
        <pt x="530" y="12" on="1"/>
        <pt x="530" y="63" on="1"/>
        <pt x="530" y="75" on="0"/>
        <pt x="542" y="75" on="1"/>
        <pt x="612" y="75" on="1"/>
        <pt x="547" y="248" on="1"/>
        <pt x="268" y="248" on="1"/>
        <pt x="203" y="75" on="1"/>
        <pt x="273" y="75" on="1"/>
        <pt x="285" y="75" on="0"/>
        <pt x="285" y="63" on="1"/>
        <pt x="285" y="12" on="1"/>
        <pt x="285" y="0" on="0"/>
        <pt x="273" y="0" on="1"/>
        <pt x="48" y="0" on="1"/>
        <pt x="36" y="0" on="0"/>
        <pt x="36" y="12" on="1"/>
        <pt x="36" y="63" on="1"/>
        <pt x="36" y="75" on="0"/>
        <pt x="48" y="75" on="1"/>
        <pt x="115" y="75" on="1"/>
        <pt x="330" y="643" on="1"/>
        <pt x="276" y="643" on="1"/>
        <pt x="263" y="643" on="0"/>
        <pt x="263" y="655" on="1"/>
        <pt x="263" y="706" on="1"/>
        <pt x="263" y="718" on="0"/>
        <pt x="276" y="718" on="1"/>
        <pt x="412" y="718" on="1"/>
        <pt x="436" y="718" on="0"/>
        <pt x="461" y="698" on="0"/>
        <pt x="470" y="675" on="1"/>
        <pt x="700" y="75" on="1"/>
        <pt x="768" y="75" on="1"/>
        <pt x="780" y="75" on="0"/>
        <pt x="780" y="63" on="1"/>
        <pt x="780" y="12" on="1"/>
        <pt x="780" y="0" on="0"/>
      </contour>
      <contour>
        <pt x="520" y="317" on="1"/>
        <pt x="409" y="614" on="1"/>
        <pt x="406" y="614" on="1"/>
        <pt x="294" y="317" on="1"/>
      </contour>
      <contour>
        <pt x="498" y="941" on="1"/>
        <pt x="530" y="941" on="1"/>
        <pt x="543" y="941" on="0"/>
        <pt x="543" y="928" on="1"/>
        <pt x="543" y="861" on="0"/>
        <pt x="465" y="789" on="0"/>
        <pt x="340" y="789" on="0"/>
        <pt x="263" y="861" on="0"/>
        <pt x="263" y="928" on="1"/>
        <pt x="263" y="941" on="0"/>
        <pt x="276" y="941" on="1"/>
        <pt x="308" y="941" on="1"/>
        <pt x="321" y="941" on="0"/>
        <pt x="321" y="928" on="1"/>
        <pt x="321" y="887" on="0"/>
        <pt x="367" y="840" on="0"/>
        <pt x="437" y="840" on="0"/>
        <pt x="485" y="887" on="0"/>
        <pt x="485" y="928" on="1"/>
        <pt x="485" y="941" on="0"/>
      </contour>
    </TTGlyph>
    <TTGlyph name="Acircumflex" xMin="36" yMin="0" xMax="780" yMax="989">
      <contour>
        <pt x="768" y="0" on="1"/>
        <pt x="542" y="0" on="1"/>
        <pt x="530" y="0" on="0"/>
        <pt x="530" y="12" on="1"/>
        <pt x="530" y="63" on="1"/>
        <pt x="530" y="75" on="0"/>
        <pt x="542" y="75" on="1"/>
        <pt x="612" y="75" on="1"/>
        <pt x="547" y="248" on="1"/>
        <pt x="268" y="248" on="1"/>
        <pt x="203" y="75" on="1"/>
        <pt x="273" y="75" on="1"/>
        <pt x="285" y="75" on="0"/>
        <pt x="285" y="63" on="1"/>
        <pt x="285" y="12" on="1"/>
        <pt x="285" y="0" on="0"/>
        <pt x="273" y="0" on="1"/>
        <pt x="48" y="0" on="1"/>
        <pt x="36" y="0" on="0"/>
        <pt x="36" y="12" on="1"/>
        <pt x="36" y="63" on="1"/>
        <pt x="36" y="75" on="0"/>
        <pt x="48" y="75" on="1"/>
        <pt x="115" y="75" on="1"/>
        <pt x="330" y="643" on="1"/>
        <pt x="276" y="643" on="1"/>
        <pt x="263" y="643" on="0"/>
        <pt x="263" y="655" on="1"/>
        <pt x="263" y="706" on="1"/>
        <pt x="263" y="718" on="0"/>
        <pt x="276" y="718" on="1"/>
        <pt x="412" y="718" on="1"/>
        <pt x="436" y="718" on="0"/>
        <pt x="461" y="698" on="0"/>
        <pt x="470" y="675" on="1"/>
        <pt x="700" y="75" on="1"/>
        <pt x="768" y="75" on="1"/>
        <pt x="780" y="75" on="0"/>
        <pt x="780" y="63" on="1"/>
        <pt x="780" y="12" on="1"/>
        <pt x="780" y="0" on="0"/>
      </contour>
      <contour>
        <pt x="520" y="317" on="1"/>
        <pt x="409" y="614" on="1"/>
        <pt x="406" y="614" on="1"/>
        <pt x="294" y="317" on="1"/>
      </contour>
      <contour>
        <pt x="548" y="801" on="1"/>
        <pt x="544" y="795" on="0"/>
        <pt x="534" y="795" on="0"/>
        <pt x="529" y="799" on="1"/>
        <pt x="405" y="904" on="1"/>
        <pt x="283" y="799" on="1"/>
        <pt x="278" y="795" on="0"/>
        <pt x="269" y="795" on="0"/>
        <pt x="264" y="801" on="1"/>
        <pt x="239" y="830" on="1"/>
        <pt x="236" y="835" on="0"/>
        <pt x="236" y="844" on="0"/>
        <pt x="241" y="849" on="1"/>
        <pt x="396" y="985" on="1"/>
        <pt x="400" y="989" on="0"/>
        <pt x="411" y="989" on="0"/>
        <pt x="416" y="984" on="1"/>
        <pt x="571" y="849" on="1"/>
        <pt x="576" y="843" on="0"/>
        <pt x="576" y="834" on="0"/>
        <pt x="573" y="830" on="1"/>
      </contour>
    </TTGlyph>
    <TTGlyph name="Adieresis" xMin="36" yMin="0" xMax="780" yMax="867">
      <contour>
        <pt x="768" y="0" on="1"/>
        <pt x="542" y="0" on="1"/>
        <pt x="530" y="0" on="0"/>
        <pt x="530" y="12" on="1"/>
        <pt x="530" y="63" on="1"/>
        <pt x="530" y="75" on="0"/>
        <pt x="542" y="75" on="1"/>
        <pt x="612" y="75" on="1"/>
        <pt x="547" y="248" on="1"/>
        <pt x="268" y="248" on="1"/>
        <pt x="203" y="75" on="1"/>
        <pt x="273" y="75" on="1"/>
        <pt x="285" y="75" on="0"/>
        <pt x="285" y="63" on="1"/>
        <pt x="285" y="12" on="1"/>
        <pt x="285" y="0" on="0"/>
        <pt x="273" y="0" on="1"/>
        <pt x="48" y="0" on="1"/>
        <pt x="36" y="0" on="0"/>
        <pt x="36" y="12" on="1"/>
        <pt x="36" y="63" on="1"/>
        <pt x="36" y="75" on="0"/>
        <pt x="48" y="75" on="1"/>
        <pt x="115" y="75" on="1"/>
        <pt x="330" y="643" on="1"/>
        <pt x="276" y="643" on="1"/>
        <pt x="263" y="643" on="0"/>
        <pt x="263" y="655" on="1"/>
        <pt x="263" y="706" on="1"/>
        <pt x="263" y="718" on="0"/>
        <pt x="276" y="718" on="1"/>
        <pt x="412" y="718" on="1"/>
        <pt x="436" y="718" on="0"/>
        <pt x="461" y="698" on="0"/>
        <pt x="470" y="675" on="1"/>
        <pt x="700" y="75" on="1"/>
        <pt x="768" y="75" on="1"/>
        <pt x="780" y="75" on="0"/>
        <pt x="780" y="63" on="1"/>
        <pt x="780" y="12" on="1"/>
        <pt x="780" y="0" on="0"/>
      </contour>
      <contour>
        <pt x="520" y="317" on="1"/>
        <pt x="409" y="614" on="1"/>
        <pt x="406" y="614" on="1"/>
        <pt x="294" y="317" on="1"/>
      </contour>
      <contour>
        <pt x="371" y="842" on="0"/>
        <pt x="371" y="806" on="0"/>
        <pt x="346" y="782" on="0"/>
        <pt x="310" y="782" on="0"/>
        <pt x="286" y="806" on="0"/>
        <pt x="286" y="842" on="0"/>
        <pt x="310" y="867" on="0"/>
        <pt x="346" y="867" on="0"/>
      </contour>
      <contour>
        <pt x="529" y="842" on="0"/>
        <pt x="529" y="806" on="0"/>
        <pt x="504" y="782" on="0"/>
        <pt x="468" y="782" on="0"/>
        <pt x="444" y="806" on="0"/>
        <pt x="444" y="842" on="0"/>
        <pt x="468" y="867" on="0"/>
        <pt x="504" y="867" on="0"/>
      </contour>
    </TTGlyph>
    <TTGlyph name="Agrave" xMin="36" yMin="0" xMax="780" yMax="996">
      <contour>
        <pt x="768" y="0" on="1"/>
        <pt x="542" y="0" on="1"/>
        <pt x="530" y="0" on="0"/>
        <pt x="530" y="12" on="1"/>
        <pt x="530" y="63" on="1"/>
        <pt x="530" y="75" on="0"/>
        <pt x="542" y="75" on="1"/>
        <pt x="612" y="75" on="1"/>
        <pt x="547" y="248" on="1"/>
        <pt x="268" y="248" on="1"/>
        <pt x="203" y="75" on="1"/>
        <pt x="273" y="75" on="1"/>
        <pt x="285" y="75" on="0"/>
        <pt x="285" y="63" on="1"/>
        <pt x="285" y="12" on="1"/>
        <pt x="285" y="0" on="0"/>
        <pt x="273" y="0" on="1"/>
        <pt x="48" y="0" on="1"/>
        <pt x="36" y="0" on="0"/>
        <pt x="36" y="12" on="1"/>
        <pt x="36" y="63" on="1"/>
        <pt x="36" y="75" on="0"/>
        <pt x="48" y="75" on="1"/>
        <pt x="115" y="75" on="1"/>
        <pt x="330" y="643" on="1"/>
        <pt x="276" y="643" on="1"/>
        <pt x="263" y="643" on="0"/>
        <pt x="263" y="655" on="1"/>
        <pt x="263" y="706" on="1"/>
        <pt x="263" y="718" on="0"/>
        <pt x="276" y="718" on="1"/>
        <pt x="412" y="718" on="1"/>
        <pt x="436" y="718" on="0"/>
        <pt x="461" y="698" on="0"/>
        <pt x="470" y="675" on="1"/>
        <pt x="700" y="75" on="1"/>
        <pt x="768" y="75" on="1"/>
        <pt x="780" y="75" on="0"/>
        <pt x="780" y="63" on="1"/>
        <pt x="780" y="12" on="1"/>
        <pt x="780" y="0" on="0"/>
      </contour>
      <contour>
        <pt x="520" y="317" on="1"/>
        <pt x="409" y="614" on="1"/>
        <pt x="406" y="614" on="1"/>
        <pt x="294" y="317" on="1"/>
      </contour>
      <contour>
        <pt x="471" y="801" on="1"/>
        <pt x="466" y="795" on="0"/>
        <pt x="456" y="795" on="0"/>
        <pt x="452" y="799" on="1"/>
        <pt x="284" y="933" on="1"/>
        <pt x="279" y="937" on="0"/>
        <pt x="279" y="947" on="0"/>
        <pt x="282" y="952" on="1"/>
        <pt x="314" y="989" on="1"/>
        <pt x="319" y="995" on="0"/>
        <pt x="328" y="995" on="0"/>
        <pt x="333" y="991" on="1"/>
        <pt x="494" y="849" on="1"/>
        <pt x="500" y="845" on="0"/>
        <pt x="500" y="835" on="0"/>
        <pt x="496" y="830" on="1"/>
      </contour>
    </TTGlyph>
    <TTGlyph name="Amacron" xMin="36" yMin="0" xMax="780" yMax="849">
      <contour>
        <pt x="768" y="0" on="1"/>
        <pt x="542" y="0" on="1"/>
        <pt x="530" y="0" on="0"/>
        <pt x="530" y="12" on="1"/>
        <pt x="530" y="63" on="1"/>
        <pt x="530" y="75" on="0"/>
        <pt x="542" y="75" on="1"/>
        <pt x="612" y="75" on="1"/>
        <pt x="547" y="248" on="1"/>
        <pt x="268" y="248" on="1"/>
        <pt x="203" y="75" on="1"/>
        <pt x="273" y="75" on="1"/>
        <pt x="285" y="75" on="0"/>
        <pt x="285" y="63" on="1"/>
        <pt x="285" y="12" on="1"/>
        <pt x="285" y="0" on="0"/>
        <pt x="273" y="0" on="1"/>
        <pt x="48" y="0" on="1"/>
        <pt x="36" y="0" on="0"/>
        <pt x="36" y="12" on="1"/>
        <pt x="36" y="63" on="1"/>
        <pt x="36" y="75" on="0"/>
        <pt x="48" y="75" on="1"/>
        <pt x="115" y="75" on="1"/>
        <pt x="330" y="643" on="1"/>
        <pt x="276" y="643" on="1"/>
        <pt x="263" y="643" on="0"/>
        <pt x="263" y="655" on="1"/>
        <pt x="263" y="706" on="1"/>
        <pt x="263" y="718" on="0"/>
        <pt x="276" y="718" on="1"/>
        <pt x="412" y="718" on="1"/>
        <pt x="436" y="718" on="0"/>
        <pt x="461" y="698" on="0"/>
        <pt x="470" y="675" on="1"/>
        <pt x="700" y="75" on="1"/>
        <pt x="768" y="75" on="1"/>
        <pt x="780" y="75" on="0"/>
        <pt x="780" y="63" on="1"/>
        <pt x="780" y="12" on="1"/>
        <pt x="780" y="0" on="0"/>
      </contour>
      <contour>
        <pt x="520" y="317" on="1"/>
        <pt x="409" y="614" on="1"/>
        <pt x="406" y="614" on="1"/>
        <pt x="294" y="317" on="1"/>
      </contour>
      <contour>
        <pt x="550" y="780" on="1"/>
        <pt x="254" y="780" on="1"/>
        <pt x="241" y="780" on="0"/>
        <pt x="241" y="793" on="1"/>
        <pt x="241" y="835" on="1"/>
        <pt x="241" y="849" on="0"/>
        <pt x="254" y="849" on="1"/>
        <pt x="550" y="849" on="1"/>
        <pt x="563" y="849" on="0"/>
        <pt x="563" y="835" on="1"/>
        <pt x="563" y="793" on="1"/>
        <pt x="563" y="780" on="0"/>
      </contour>
    </TTGlyph>
    <TTGlyph name="Aogonek" xMin="36" yMin="-161" xMax="791" yMax="718">
      <contour>
        <pt x="753" y="0" on="1"/>
        <pt x="683" y="-35" on="0"/>
        <pt x="683" y="-82" on="1"/>
        <pt x="683" y="-98" on="0"/>
        <pt x="704" y="-116" on="0"/>
        <pt x="742" y="-116" on="0"/>
        <pt x="773" y="-99" on="0"/>
        <pt x="778" y="-107" on="1"/>
        <pt x="787" y="-120" on="1"/>
        <pt x="790" y="-124" on="0"/>
        <pt x="790" y="-133" on="0"/>
        <pt x="783" y="-137" on="1"/>
        <pt x="749" y="-161" on="0"/>
        <pt x="674" y="-161" on="0"/>
        <pt x="631" y="-120" on="0"/>
        <pt x="631" y="-55" on="0"/>
        <pt x="674" y="-10" on="0"/>
        <pt x="700" y="0" on="1"/>
        <pt x="542" y="0" on="1"/>
        <pt x="530" y="0" on="0"/>
        <pt x="530" y="12" on="1"/>
        <pt x="530" y="63" on="1"/>
        <pt x="530" y="75" on="0"/>
        <pt x="542" y="75" on="1"/>
        <pt x="612" y="75" on="1"/>
        <pt x="547" y="248" on="1"/>
        <pt x="268" y="248" on="1"/>
        <pt x="203" y="75" on="1"/>
        <pt x="273" y="75" on="1"/>
        <pt x="285" y="75" on="0"/>
        <pt x="285" y="63" on="1"/>
        <pt x="285" y="12" on="1"/>
        <pt x="285" y="0" on="0"/>
        <pt x="273" y="0" on="1"/>
        <pt x="48" y="0" on="1"/>
        <pt x="36" y="0" on="0"/>
        <pt x="36" y="12" on="1"/>
        <pt x="36" y="63" on="1"/>
        <pt x="36" y="75" on="0"/>
        <pt x="48" y="75" on="1"/>
        <pt x="115" y="75" on="1"/>
        <pt x="330" y="643" on="1"/>
        <pt x="276" y="643" on="1"/>
        <pt x="263" y="643" on="0"/>
        <pt x="263" y="655" on="1"/>
        <pt x="263" y="706" on="1"/>
        <pt x="263" y="718" on="0"/>
        <pt x="276" y="718" on="1"/>
        <pt x="412" y="718" on="1"/>
        <pt x="436" y="718" on="0"/>
        <pt x="461" y="698" on="0"/>
        <pt x="470" y="675" on="1"/>
        <pt x="700" y="75" on="1"/>
        <pt x="768" y="75" on="1"/>
        <pt x="780" y="75" on="0"/>
        <pt x="780" y="63" on="1"/>
        <pt x="780" y="12" on="1"/>
        <pt x="780" y="0" on="0"/>
        <pt x="768" y="0" on="1"/>
      </contour>
      <contour>
        <pt x="520" y="317" on="1"/>
        <pt x="409" y="614" on="1"/>
        <pt x="406" y="614" on="1"/>
        <pt x="294" y="317" on="1"/>
      </contour>
    </TTGlyph>
    <TTGlyph name="Aring" xMin="36" yMin="0" xMax="780" yMax="916">
      <contour>
        <pt x="768" y="0" on="1"/>
        <pt x="542" y="0" on="1"/>
        <pt x="530" y="0" on="0"/>
        <pt x="530" y="12" on="1"/>
        <pt x="530" y="63" on="1"/>
        <pt x="530" y="75" on="0"/>
        <pt x="542" y="75" on="1"/>
        <pt x="612" y="75" on="1"/>
        <pt x="547" y="248" on="1"/>
        <pt x="268" y="248" on="1"/>
        <pt x="203" y="75" on="1"/>
        <pt x="273" y="75" on="1"/>
        <pt x="285" y="75" on="0"/>
        <pt x="285" y="63" on="1"/>
        <pt x="285" y="12" on="1"/>
        <pt x="285" y="0" on="0"/>
        <pt x="273" y="0" on="1"/>
        <pt x="48" y="0" on="1"/>
        <pt x="36" y="0" on="0"/>
        <pt x="36" y="12" on="1"/>
        <pt x="36" y="63" on="1"/>
        <pt x="36" y="75" on="0"/>
        <pt x="48" y="75" on="1"/>
        <pt x="115" y="75" on="1"/>
        <pt x="330" y="643" on="1"/>
        <pt x="276" y="643" on="1"/>
        <pt x="263" y="643" on="0"/>
        <pt x="263" y="655" on="1"/>
        <pt x="263" y="706" on="1"/>
        <pt x="263" y="718" on="0"/>
        <pt x="276" y="718" on="1"/>
        <pt x="412" y="718" on="1"/>
        <pt x="436" y="718" on="0"/>
        <pt x="461" y="698" on="0"/>
        <pt x="470" y="675" on="1"/>
        <pt x="700" y="75" on="1"/>
        <pt x="768" y="75" on="1"/>
        <pt x="780" y="75" on="0"/>
        <pt x="780" y="63" on="1"/>
        <pt x="780" y="12" on="1"/>
        <pt x="780" y="0" on="0"/>
      </contour>
      <contour>
        <pt x="520" y="317" on="1"/>
        <pt x="409" y="614" on="1"/>
        <pt x="406" y="614" on="1"/>
        <pt x="294" y="317" on="1"/>
      </contour>
      <contour>
        <pt x="452" y="829" on="1"/>
        <pt x="435" y="800" on="0"/>
        <pt x="398" y="800" on="1"/>
        <pt x="387" y="800" on="0"/>
        <pt x="370" y="810" on="1"/>
        <pt x="345" y="825" on="0"/>
        <pt x="345" y="860" on="1"/>
        <pt x="345" y="874" on="0"/>
        <pt x="355" y="891" on="1"/>
        <pt x="370" y="916" on="0"/>
        <pt x="404" y="916" on="1"/>
        <pt x="418" y="916" on="0"/>
        <pt x="435" y="906" on="1"/>
        <pt x="460" y="891" on="0"/>
        <pt x="460" y="856" on="1"/>
        <pt x="460" y="842" on="0"/>
      </contour>
      <contour>
        <pt x="415" y="832" on="1"/>
        <pt x="431" y="840" on="0"/>
        <pt x="431" y="859" on="1"/>
        <pt x="431" y="878" on="0"/>
        <pt x="411" y="885" on="1"/>
        <pt x="406" y="887" on="0"/>
        <pt x="401" y="887" on="1"/>
        <pt x="382" y="887" on="0"/>
        <pt x="375" y="867" on="1"/>
        <pt x="373" y="862" on="0"/>
        <pt x="373" y="857" on="1"/>
        <pt x="373" y="838" on="0"/>
        <pt x="394" y="831" on="1"/>
        <pt x="399" y="829" on="0"/>
        <pt x="409" y="829" on="0"/>
      </contour>
    </TTGlyph>
    <TTGlyph name="Atilde" xMin="36" yMin="0" xMax="780" yMax="910">
      <contour>
        <pt x="768" y="0" on="1"/>
        <pt x="542" y="0" on="1"/>
        <pt x="530" y="0" on="0"/>
        <pt x="530" y="12" on="1"/>
        <pt x="530" y="63" on="1"/>
        <pt x="530" y="75" on="0"/>
        <pt x="542" y="75" on="1"/>
        <pt x="612" y="75" on="1"/>
        <pt x="547" y="248" on="1"/>
        <pt x="268" y="248" on="1"/>
        <pt x="203" y="75" on="1"/>
        <pt x="273" y="75" on="1"/>
        <pt x="285" y="75" on="0"/>
        <pt x="285" y="63" on="1"/>
        <pt x="285" y="12" on="1"/>
        <pt x="285" y="0" on="0"/>
        <pt x="273" y="0" on="1"/>
        <pt x="48" y="0" on="1"/>
        <pt x="36" y="0" on="0"/>
        <pt x="36" y="12" on="1"/>
        <pt x="36" y="63" on="1"/>
        <pt x="36" y="75" on="0"/>
        <pt x="48" y="75" on="1"/>
        <pt x="115" y="75" on="1"/>
        <pt x="330" y="643" on="1"/>
        <pt x="276" y="643" on="1"/>
        <pt x="263" y="643" on="0"/>
        <pt x="263" y="655" on="1"/>
        <pt x="263" y="706" on="1"/>
        <pt x="263" y="718" on="0"/>
        <pt x="276" y="718" on="1"/>
        <pt x="412" y="718" on="1"/>
        <pt x="436" y="718" on="0"/>
        <pt x="461" y="698" on="0"/>
        <pt x="470" y="675" on="1"/>
        <pt x="700" y="75" on="1"/>
        <pt x="768" y="75" on="1"/>
        <pt x="780" y="75" on="0"/>
        <pt x="780" y="63" on="1"/>
        <pt x="780" y="12" on="1"/>
        <pt x="780" y="0" on="0"/>
      </contour>
      <contour>
        <pt x="520" y="317" on="1"/>
        <pt x="409" y="614" on="1"/>
        <pt x="406" y="614" on="1"/>
        <pt x="294" y="317" on="1"/>
      </contour>
      <contour>
        <pt x="525" y="910" on="1"/>
        <pt x="549" y="910" on="1"/>
        <pt x="561" y="910" on="0"/>
        <pt x="561" y="898" on="1"/>
        <pt x="561" y="785" on="0"/>
        <pt x="474" y="785" on="1"/>
        <pt x="442" y="785" on="0"/>
        <pt x="393" y="816" on="0"/>
        <pt x="354" y="848" on="0"/>
        <pt x="315" y="848" on="0"/>
        <pt x="295" y="823" on="0"/>
        <pt x="295" y="791" on="1"/>
        <pt x="295" y="779" on="0"/>
        <pt x="283" y="779" on="1"/>
        <pt x="259" y="779" on="1"/>
        <pt x="247" y="779" on="0"/>
        <pt x="247" y="791" on="1"/>
        <pt x="247" y="899" on="0"/>
        <pt x="333" y="899" on="1"/>
        <pt x="370" y="899" on="0"/>
        <pt x="450" y="833" on="0"/>
        <pt x="495" y="833" on="0"/>
        <pt x="513" y="861" on="0"/>
        <pt x="513" y="898" on="1"/>
        <pt x="513" y="910" on="0"/>
      </contour>
    </TTGlyph>
    <TTGlyph name="B" xMin="48" yMin="0" xMax="633" yMax="718">
      <contour>
        <pt x="384" y="0" on="1"/>
        <pt x="61" y="0" on="1"/>
        <pt x="48" y="0" on="0"/>
        <pt x="48" y="12" on="1"/>
        <pt x="48" y="63" on="1"/>
        <pt x="48" y="75" on="0"/>
        <pt x="61" y="75" on="1"/>
        <pt x="137" y="75" on="1"/>
        <pt x="137" y="643" on="1"/>
        <pt x="61" y="643" on="1"/>
        <pt x="48" y="643" on="0"/>
        <pt x="48" y="655" on="1"/>
        <pt x="48" y="706" on="1"/>
        <pt x="48" y="718" on="0"/>
        <pt x="61" y="718" on="1"/>
        <pt x="383" y="718" on="1"/>
        <pt x="483" y="718" on="0"/>
        <pt x="594" y="612" on="0"/>
        <pt x="594" y="526" on="1"/>
        <pt x="594" y="425" on="0"/>
        <pt x="505" y="375" on="1"/>
        <pt x="633" y="338" on="0"/>
        <pt x="633" y="205" on="1"/>
        <pt x="633" y="111" on="0"/>
        <pt x="508" y="0" on="0"/>
      </contour>
      <contour>
        <pt x="224" y="75" on="1"/>
        <pt x="377" y="75" on="1"/>
        <pt x="456" y="75" on="0"/>
        <pt x="545" y="142" on="0"/>
        <pt x="545" y="212" on="1"/>
        <pt x="545" y="337" on="0"/>
        <pt x="383" y="337" on="1"/>
        <pt x="224" y="337" on="1"/>
      </contour>
      <contour>
        <pt x="224" y="403" on="1"/>
        <pt x="377" y="403" on="1"/>
        <pt x="429" y="404" on="0"/>
        <pt x="506" y="462" on="0"/>
        <pt x="506" y="586" on="0"/>
        <pt x="425" y="643" on="0"/>
        <pt x="366" y="643" on="1"/>
        <pt x="224" y="643" on="1"/>
      </contour>
    </TTGlyph>
    <TTGlyph name="C" xMin="48" yMin="-7" xMax="703" yMax="724">
      <contour>
        <pt x="697" y="181" on="1"/>
        <pt x="702" y="177" on="0"/>
        <pt x="702" y="166" on="0"/>
        <pt x="693" y="147" on="0"/>
        <pt x="672" y="116" on="0"/>
        <pt x="618" y="62" on="0"/>
        <pt x="554" y="23" on="0"/>
        <pt x="449" y="-7" on="0"/>
        <pt x="389" y="-7" on="1"/>
        <pt x="243" y="-7" on="0"/>
        <pt x="48" y="197" on="0"/>
        <pt x="48" y="528" on="0"/>
        <pt x="245" y="724" on="0"/>
        <pt x="384" y="724" on="1"/>
        <pt x="539" y="724" on="0"/>
        <pt x="609" y="617" on="1"/>
        <pt x="608" y="706" on="1"/>
        <pt x="606" y="718" on="0"/>
        <pt x="620" y="718" on="1"/>
        <pt x="676" y="718" on="1"/>
        <pt x="689" y="718" on="0"/>
        <pt x="689" y="706" on="1"/>
        <pt x="689" y="488" on="1"/>
        <pt x="689" y="475" on="0"/>
        <pt x="676" y="475" on="1"/>
        <pt x="613" y="475" on="1"/>
        <pt x="601" y="475" on="0"/>
        <pt x="601" y="488" on="1"/>
        <pt x="601" y="497" on="1"/>
        <pt x="601" y="543" on="0"/>
        <pt x="476" y="642" on="0"/>
        <pt x="290" y="642" on="0"/>
        <pt x="141" y="495" on="0"/>
        <pt x="141" y="226" on="0"/>
        <pt x="291" y="77" on="0"/>
        <pt x="392" y="77" on="1"/>
        <pt x="501" y="77" on="0"/>
        <pt x="564" y="126" on="1"/>
        <pt x="613" y="164" on="0"/>
        <pt x="636" y="203" on="1"/>
        <pt x="644" y="218" on="0"/>
        <pt x="655" y="209" on="1"/>
      </contour>
    </TTGlyph>
    <TTGlyph name="Cacute" xMin="48" yMin="-7" xMax="703" yMax="995">
      <contour>
        <pt x="456" y="990" on="1"/>
        <pt x="460" y="994" on="0"/>
        <pt x="470" y="994" on="0"/>
        <pt x="475" y="989" on="1"/>
        <pt x="506" y="951" on="1"/>
        <pt x="514" y="941" on="0"/>
        <pt x="505" y="932" on="1"/>
        <pt x="337" y="798" on="1"/>
        <pt x="325" y="791" on="0"/>
        <pt x="318" y="801" on="1"/>
        <pt x="293" y="830" on="1"/>
        <pt x="284" y="841" on="0"/>
        <pt x="295" y="849" on="1"/>
      </contour>
      <contour>
        <pt x="697" y="181" on="1"/>
        <pt x="702" y="177" on="0"/>
        <pt x="702" y="166" on="0"/>
        <pt x="693" y="147" on="0"/>
        <pt x="672" y="116" on="0"/>
        <pt x="618" y="62" on="0"/>
        <pt x="554" y="23" on="0"/>
        <pt x="449" y="-7" on="0"/>
        <pt x="389" y="-7" on="1"/>
        <pt x="243" y="-7" on="0"/>
        <pt x="48" y="197" on="0"/>
        <pt x="48" y="528" on="0"/>
        <pt x="245" y="724" on="0"/>
        <pt x="384" y="724" on="1"/>
        <pt x="539" y="724" on="0"/>
        <pt x="609" y="617" on="1"/>
        <pt x="608" y="706" on="1"/>
        <pt x="606" y="718" on="0"/>
        <pt x="620" y="718" on="1"/>
        <pt x="676" y="718" on="1"/>
        <pt x="689" y="718" on="0"/>
        <pt x="689" y="706" on="1"/>
        <pt x="689" y="488" on="1"/>
        <pt x="689" y="475" on="0"/>
        <pt x="676" y="475" on="1"/>
        <pt x="613" y="475" on="1"/>
        <pt x="601" y="475" on="0"/>
        <pt x="601" y="488" on="1"/>
        <pt x="601" y="497" on="1"/>
        <pt x="601" y="543" on="0"/>
        <pt x="476" y="642" on="0"/>
        <pt x="290" y="642" on="0"/>
        <pt x="141" y="495" on="0"/>
        <pt x="141" y="226" on="0"/>
        <pt x="291" y="77" on="0"/>
        <pt x="392" y="77" on="1"/>
        <pt x="501" y="77" on="0"/>
        <pt x="564" y="126" on="1"/>
        <pt x="613" y="164" on="0"/>
        <pt x="636" y="203" on="1"/>
        <pt x="644" y="218" on="0"/>
        <pt x="655" y="209" on="1"/>
      </contour>
    </TTGlyph>
    <TTGlyph name="Ccaron" xMin="48" yMin="-7" xMax="703" yMax="992">
      <contour>
        <pt x="393" y="804" on="1"/>
        <pt x="388" y="799" on="0"/>
        <pt x="377" y="799" on="0"/>
        <pt x="373" y="803" on="1"/>
        <pt x="218" y="939" on="1"/>
        <pt x="209" y="947" on="0"/>
        <pt x="216" y="958" on="1"/>
        <pt x="241" y="986" on="1"/>
        <pt x="245" y="992" on="0"/>
        <pt x="255" y="992" on="0"/>
        <pt x="260" y="988" on="1"/>
        <pt x="382" y="883" on="1"/>
        <pt x="506" y="988" on="1"/>
        <pt x="511" y="992" on="0"/>
        <pt x="521" y="992" on="0"/>
        <pt x="525" y="986" on="1"/>
        <pt x="550" y="958" on="1"/>
        <pt x="556" y="949" on="0"/>
        <pt x="548" y="939" on="1"/>
      </contour>
      <contour>
        <pt x="697" y="181" on="1"/>
        <pt x="702" y="177" on="0"/>
        <pt x="702" y="166" on="0"/>
        <pt x="693" y="147" on="0"/>
        <pt x="672" y="116" on="0"/>
        <pt x="618" y="62" on="0"/>
        <pt x="554" y="23" on="0"/>
        <pt x="449" y="-7" on="0"/>
        <pt x="389" y="-7" on="1"/>
        <pt x="243" y="-7" on="0"/>
        <pt x="48" y="197" on="0"/>
        <pt x="48" y="528" on="0"/>
        <pt x="245" y="724" on="0"/>
        <pt x="384" y="724" on="1"/>
        <pt x="539" y="724" on="0"/>
        <pt x="609" y="617" on="1"/>
        <pt x="608" y="706" on="1"/>
        <pt x="606" y="718" on="0"/>
        <pt x="620" y="718" on="1"/>
        <pt x="676" y="718" on="1"/>
        <pt x="689" y="718" on="0"/>
        <pt x="689" y="706" on="1"/>
        <pt x="689" y="488" on="1"/>
        <pt x="689" y="475" on="0"/>
        <pt x="676" y="475" on="1"/>
        <pt x="613" y="475" on="1"/>
        <pt x="601" y="475" on="0"/>
        <pt x="601" y="488" on="1"/>
        <pt x="601" y="497" on="1"/>
        <pt x="601" y="543" on="0"/>
        <pt x="476" y="642" on="0"/>
        <pt x="290" y="642" on="0"/>
        <pt x="141" y="495" on="0"/>
        <pt x="141" y="226" on="0"/>
        <pt x="291" y="77" on="0"/>
        <pt x="392" y="77" on="1"/>
        <pt x="501" y="77" on="0"/>
        <pt x="564" y="126" on="1"/>
        <pt x="613" y="164" on="0"/>
        <pt x="636" y="203" on="1"/>
        <pt x="644" y="218" on="0"/>
        <pt x="655" y="209" on="1"/>
      </contour>
    </TTGlyph>
    <TTGlyph name="Ccedilla" xMin="48" yMin="-156" xMax="703" yMax="724">
      <contour>
        <pt x="461" y="-116" on="0"/>
        <pt x="414" y="-156" on="0"/>
        <pt x="336" y="-156" on="0"/>
        <pt x="301" y="-133" on="1"/>
        <pt x="290" y="-126" on="0"/>
        <pt x="298" y="-117" on="1"/>
        <pt x="308" y="-105" on="1"/>
        <pt x="316" y="-97" on="0"/>
        <pt x="325" y="-102" on="1"/>
        <pt x="344" y="-115" on="0"/>
        <pt x="369" y="-115" on="1"/>
        <pt x="412" y="-115" on="0"/>
        <pt x="412" y="-82" on="1"/>
        <pt x="412" y="-56" on="0"/>
        <pt x="363" y="-56" on="1"/>
        <pt x="350" y="-56" on="0"/>
        <pt x="341" y="-48" on="0"/>
        <pt x="344" y="-39" on="1"/>
        <pt x="356" y="-5" on="1"/>
        <pt x="222" y="7" on="0"/>
        <pt x="48" y="207" on="0"/>
        <pt x="48" y="528" on="0"/>
        <pt x="245" y="724" on="0"/>
        <pt x="384" y="724" on="1"/>
        <pt x="539" y="724" on="0"/>
        <pt x="609" y="617" on="1"/>
        <pt x="608" y="706" on="1"/>
        <pt x="606" y="718" on="0"/>
        <pt x="620" y="718" on="1"/>
        <pt x="676" y="718" on="1"/>
        <pt x="689" y="718" on="0"/>
        <pt x="689" y="706" on="1"/>
        <pt x="689" y="488" on="1"/>
        <pt x="689" y="475" on="0"/>
        <pt x="676" y="475" on="1"/>
        <pt x="613" y="475" on="1"/>
        <pt x="601" y="475" on="0"/>
        <pt x="601" y="488" on="1"/>
        <pt x="601" y="497" on="1"/>
        <pt x="601" y="543" on="0"/>
        <pt x="476" y="642" on="0"/>
        <pt x="290" y="642" on="0"/>
        <pt x="141" y="495" on="0"/>
        <pt x="141" y="226" on="0"/>
        <pt x="291" y="77" on="0"/>
        <pt x="392" y="77" on="1"/>
        <pt x="501" y="77" on="0"/>
        <pt x="564" y="126" on="1"/>
        <pt x="613" y="164" on="0"/>
        <pt x="636" y="203" on="1"/>
        <pt x="644" y="218" on="0"/>
        <pt x="655" y="209" on="1"/>
        <pt x="697" y="181" on="1"/>
        <pt x="702" y="177" on="0"/>
        <pt x="702" y="166" on="0"/>
        <pt x="693" y="147" on="0"/>
        <pt x="672" y="116" on="0"/>
        <pt x="620" y="64" on="0"/>
        <pt x="557" y="25" on="0"/>
        <pt x="455" y="-5" on="0"/>
        <pt x="397" y="-6" on="1"/>
        <pt x="391" y="-25" on="1"/>
        <pt x="405" y="-25" on="0"/>
        <pt x="424" y="-30" on="1"/>
        <pt x="461" y="-42" on="0"/>
      </contour>
    </TTGlyph>
    <TTGlyph name="Ccircumflex" xMin="48" yMin="-7" xMax="703" yMax="989">
      <contour>
        <pt x="372" y="985" on="1"/>
        <pt x="376" y="989" on="0"/>
        <pt x="387" y="989" on="0"/>
        <pt x="392" y="984" on="1"/>
        <pt x="547" y="849" on="1"/>
        <pt x="555" y="839" on="0"/>
        <pt x="549" y="830" on="1"/>
        <pt x="524" y="801" on="1"/>
        <pt x="516" y="791" on="0"/>
        <pt x="505" y="799" on="1"/>
        <pt x="381" y="904" on="1"/>
        <pt x="259" y="799" on="1"/>
        <pt x="249" y="790" on="0"/>
        <pt x="240" y="801" on="1"/>
        <pt x="215" y="830" on="1"/>
        <pt x="208" y="841" on="0"/>
        <pt x="217" y="849" on="1"/>
      </contour>
      <contour>
        <pt x="697" y="181" on="1"/>
        <pt x="702" y="177" on="0"/>
        <pt x="702" y="166" on="0"/>
        <pt x="693" y="147" on="0"/>
        <pt x="672" y="116" on="0"/>
        <pt x="618" y="62" on="0"/>
        <pt x="554" y="23" on="0"/>
        <pt x="449" y="-7" on="0"/>
        <pt x="389" y="-7" on="1"/>
        <pt x="243" y="-7" on="0"/>
        <pt x="48" y="197" on="0"/>
        <pt x="48" y="528" on="0"/>
        <pt x="245" y="724" on="0"/>
        <pt x="384" y="724" on="1"/>
        <pt x="539" y="724" on="0"/>
        <pt x="609" y="617" on="1"/>
        <pt x="608" y="706" on="1"/>
        <pt x="606" y="718" on="0"/>
        <pt x="620" y="718" on="1"/>
        <pt x="676" y="718" on="1"/>
        <pt x="689" y="718" on="0"/>
        <pt x="689" y="706" on="1"/>
        <pt x="689" y="488" on="1"/>
        <pt x="689" y="475" on="0"/>
        <pt x="676" y="475" on="1"/>
        <pt x="613" y="475" on="1"/>
        <pt x="601" y="475" on="0"/>
        <pt x="601" y="488" on="1"/>
        <pt x="601" y="497" on="1"/>
        <pt x="601" y="543" on="0"/>
        <pt x="476" y="642" on="0"/>
        <pt x="290" y="642" on="0"/>
        <pt x="141" y="495" on="0"/>
        <pt x="141" y="226" on="0"/>
        <pt x="291" y="77" on="0"/>
        <pt x="392" y="77" on="1"/>
        <pt x="501" y="77" on="0"/>
        <pt x="564" y="126" on="1"/>
        <pt x="613" y="164" on="0"/>
        <pt x="636" y="203" on="1"/>
        <pt x="644" y="218" on="0"/>
        <pt x="655" y="209" on="1"/>
      </contour>
    </TTGlyph>
    <TTGlyph name="Cdotaccent" xMin="48" yMin="-7" xMax="703" yMax="897">
      <contour>
        <pt x="697" y="181" on="1"/>
        <pt x="702" y="177" on="0"/>
        <pt x="702" y="166" on="0"/>
        <pt x="693" y="147" on="0"/>
        <pt x="672" y="116" on="0"/>
        <pt x="618" y="62" on="0"/>
        <pt x="554" y="23" on="0"/>
        <pt x="449" y="-7" on="0"/>
        <pt x="389" y="-7" on="1"/>
        <pt x="243" y="-7" on="0"/>
        <pt x="48" y="197" on="0"/>
        <pt x="48" y="528" on="0"/>
        <pt x="245" y="724" on="0"/>
        <pt x="384" y="724" on="1"/>
        <pt x="539" y="724" on="0"/>
        <pt x="609" y="617" on="1"/>
        <pt x="608" y="706" on="1"/>
        <pt x="606" y="718" on="0"/>
        <pt x="620" y="718" on="1"/>
        <pt x="676" y="718" on="1"/>
        <pt x="689" y="718" on="0"/>
        <pt x="689" y="706" on="1"/>
        <pt x="689" y="488" on="1"/>
        <pt x="689" y="475" on="0"/>
        <pt x="676" y="475" on="1"/>
        <pt x="613" y="475" on="1"/>
        <pt x="601" y="475" on="0"/>
        <pt x="601" y="488" on="1"/>
        <pt x="601" y="497" on="1"/>
        <pt x="601" y="543" on="0"/>
        <pt x="476" y="642" on="0"/>
        <pt x="290" y="642" on="0"/>
        <pt x="141" y="495" on="0"/>
        <pt x="141" y="226" on="0"/>
        <pt x="291" y="77" on="0"/>
        <pt x="392" y="77" on="1"/>
        <pt x="501" y="77" on="0"/>
        <pt x="564" y="126" on="1"/>
        <pt x="613" y="164" on="0"/>
        <pt x="636" y="203" on="1"/>
        <pt x="644" y="218" on="0"/>
        <pt x="655" y="209" on="1"/>
      </contour>
      <contour>
        <pt x="450" y="866" on="0"/>
        <pt x="450" y="822" on="0"/>
        <pt x="420" y="792" on="0"/>
        <pt x="376" y="792" on="0"/>
        <pt x="346" y="822" on="0"/>
        <pt x="346" y="866" on="0"/>
        <pt x="376" y="897" on="0"/>
        <pt x="420" y="897" on="0"/>
      </contour>
    </TTGlyph>
    <TTGlyph name="D" xMin="43" yMin="0" xMax="687" yMax="718">
      <contour>
        <pt x="342" y="0" on="1"/>
        <pt x="55" y="0" on="1"/>
        <pt x="43" y="0" on="0"/>
        <pt x="43" y="12" on="1"/>
        <pt x="43" y="63" on="1"/>
        <pt x="43" y="75" on="0"/>
        <pt x="55" y="75" on="1"/>
        <pt x="132" y="75" on="1"/>
        <pt x="132" y="643" on="1"/>
        <pt x="55" y="643" on="1"/>
        <pt x="43" y="643" on="0"/>
        <pt x="43" y="655" on="1"/>
        <pt x="43" y="706" on="1"/>
        <pt x="43" y="718" on="0"/>
        <pt x="55" y="718" on="1"/>
        <pt x="325" y="718" on="1"/>
        <pt x="491" y="718" on="0"/>
        <pt x="687" y="527" on="0"/>
        <pt x="687" y="193" on="0"/>
        <pt x="501" y="0" on="0"/>
      </contour>
      <contour>
        <pt x="219" y="75" on="1"/>
        <pt x="318" y="75" on="1"/>
        <pt x="596" y="77" on="0"/>
        <pt x="596" y="358" on="1"/>
        <pt x="596" y="493" on="0"/>
        <pt x="453" y="643" on="0"/>
        <pt x="315" y="643" on="1"/>
        <pt x="219" y="643" on="1"/>
      </contour>
    </TTGlyph>
    <TTGlyph name="Dcaron" xMin="43" yMin="0" xMax="687" yMax="992">
      <contour>
        <pt x="366" y="804" on="1"/>
        <pt x="361" y="799" on="0"/>
        <pt x="350" y="799" on="0"/>
        <pt x="346" y="803" on="1"/>
        <pt x="191" y="939" on="1"/>
        <pt x="182" y="947" on="0"/>
        <pt x="189" y="958" on="1"/>
        <pt x="214" y="986" on="1"/>
        <pt x="218" y="992" on="0"/>
        <pt x="228" y="992" on="0"/>
        <pt x="233" y="988" on="1"/>
        <pt x="355" y="883" on="1"/>
        <pt x="479" y="988" on="1"/>
        <pt x="484" y="992" on="0"/>
        <pt x="494" y="992" on="0"/>
        <pt x="498" y="986" on="1"/>
        <pt x="523" y="958" on="1"/>
        <pt x="529" y="949" on="0"/>
        <pt x="521" y="939" on="1"/>
      </contour>
      <contour>
        <pt x="342" y="0" on="1"/>
        <pt x="55" y="0" on="1"/>
        <pt x="43" y="0" on="0"/>
        <pt x="43" y="12" on="1"/>
        <pt x="43" y="63" on="1"/>
        <pt x="43" y="75" on="0"/>
        <pt x="55" y="75" on="1"/>
        <pt x="132" y="75" on="1"/>
        <pt x="132" y="643" on="1"/>
        <pt x="55" y="643" on="1"/>
        <pt x="43" y="643" on="0"/>
        <pt x="43" y="655" on="1"/>
        <pt x="43" y="706" on="1"/>
        <pt x="43" y="718" on="0"/>
        <pt x="55" y="718" on="1"/>
        <pt x="325" y="718" on="1"/>
        <pt x="491" y="718" on="0"/>
        <pt x="687" y="527" on="0"/>
        <pt x="687" y="193" on="0"/>
        <pt x="501" y="0" on="0"/>
      </contour>
      <contour>
        <pt x="219" y="75" on="1"/>
        <pt x="318" y="75" on="1"/>
        <pt x="596" y="77" on="0"/>
        <pt x="596" y="358" on="1"/>
        <pt x="596" y="493" on="0"/>
        <pt x="453" y="643" on="0"/>
        <pt x="315" y="643" on="1"/>
        <pt x="219" y="643" on="1"/>
      </contour>
    </TTGlyph>
    <TTGlyph name="Dcroat" xMin="48" yMin="0" xMax="692" yMax="718">
      <contour>
        <pt x="348" y="0" on="1"/>
        <pt x="61" y="0" on="1"/>
        <pt x="48" y="0" on="0"/>
        <pt x="48" y="12" on="1"/>
        <pt x="48" y="63" on="1"/>
        <pt x="48" y="75" on="0"/>
        <pt x="61" y="75" on="1"/>
        <pt x="137" y="75" on="1"/>
        <pt x="137" y="324" on="1"/>
        <pt x="69" y="324" on="1"/>
        <pt x="55" y="324" on="0"/>
        <pt x="55" y="337" on="1"/>
        <pt x="55" y="379" on="1"/>
        <pt x="55" y="393" on="0"/>
        <pt x="69" y="393" on="1"/>
        <pt x="137" y="393" on="1"/>
        <pt x="137" y="643" on="1"/>
        <pt x="61" y="643" on="1"/>
        <pt x="48" y="643" on="0"/>
        <pt x="48" y="655" on="1"/>
        <pt x="48" y="706" on="1"/>
        <pt x="48" y="718" on="0"/>
        <pt x="61" y="718" on="1"/>
        <pt x="330" y="718" on="1"/>
        <pt x="496" y="718" on="0"/>
        <pt x="692" y="527" on="0"/>
        <pt x="692" y="193" on="0"/>
        <pt x="507" y="0" on="0"/>
      </contour>
      <contour>
        <pt x="224" y="75" on="1"/>
        <pt x="324" y="75" on="1"/>
        <pt x="460" y="76" on="0"/>
        <pt x="602" y="218" on="0"/>
        <pt x="602" y="493" on="0"/>
        <pt x="459" y="643" on="0"/>
        <pt x="321" y="643" on="1"/>
        <pt x="224" y="643" on="1"/>
        <pt x="224" y="393" on="1"/>
        <pt x="377" y="393" on="1"/>
        <pt x="390" y="393" on="0"/>
        <pt x="390" y="379" on="1"/>
        <pt x="390" y="337" on="1"/>
        <pt x="390" y="324" on="0"/>
        <pt x="377" y="324" on="1"/>
        <pt x="224" y="324" on="1"/>
      </contour>
    </TTGlyph>
    <TTGlyph name="E" xMin="48" yMin="0" xMax="605" yMax="718">
      <contour>
        <pt x="592" y="0" on="1"/>
        <pt x="61" y="0" on="1"/>
        <pt x="48" y="0" on="0"/>
        <pt x="48" y="12" on="1"/>
        <pt x="48" y="63" on="1"/>
        <pt x="48" y="75" on="0"/>
        <pt x="61" y="75" on="1"/>
        <pt x="137" y="75" on="1"/>
        <pt x="137" y="643" on="1"/>
        <pt x="61" y="643" on="1"/>
        <pt x="48" y="643" on="0"/>
        <pt x="48" y="655" on="1"/>
        <pt x="48" y="706" on="1"/>
        <pt x="48" y="718" on="0"/>
        <pt x="61" y="718" on="1"/>
        <pt x="592" y="718" on="1"/>
        <pt x="605" y="718" on="0"/>
        <pt x="605" y="706" on="1"/>
        <pt x="605" y="545" on="1"/>
        <pt x="605" y="532" on="0"/>
        <pt x="592" y="532" on="1"/>
        <pt x="538" y="532" on="1"/>
        <pt x="526" y="532" on="0"/>
        <pt x="526" y="545" on="1"/>
        <pt x="526" y="643" on="1"/>
        <pt x="224" y="643" on="1"/>
        <pt x="224" y="395" on="1"/>
        <pt x="477" y="395" on="1"/>
        <pt x="490" y="395" on="0"/>
        <pt x="490" y="383" on="1"/>
        <pt x="490" y="332" on="1"/>
        <pt x="490" y="320" on="0"/>
        <pt x="477" y="320" on="1"/>
        <pt x="224" y="320" on="1"/>
        <pt x="224" y="75" on="1"/>
        <pt x="525" y="75" on="1"/>
        <pt x="525" y="173" on="1"/>
        <pt x="525" y="185" on="0"/>
        <pt x="538" y="185" on="1"/>
        <pt x="592" y="185" on="1"/>
        <pt x="605" y="185" on="0"/>
        <pt x="605" y="173" on="1"/>
        <pt x="605" y="12" on="1"/>
        <pt x="605" y="0" on="0"/>
      </contour>
    </TTGlyph>
    <TTGlyph name="Eacute" xMin="48" yMin="0" xMax="605" yMax="995">
      <contour>
        <pt x="392" y="990" on="1"/>
        <pt x="396" y="994" on="0"/>
        <pt x="406" y="994" on="0"/>
        <pt x="411" y="989" on="1"/>
        <pt x="442" y="951" on="1"/>
        <pt x="450" y="941" on="0"/>
        <pt x="441" y="932" on="1"/>
        <pt x="273" y="798" on="1"/>
        <pt x="261" y="791" on="0"/>
        <pt x="254" y="801" on="1"/>
        <pt x="229" y="830" on="1"/>
        <pt x="220" y="841" on="0"/>
        <pt x="231" y="849" on="1"/>
      </contour>
      <contour>
        <pt x="592" y="0" on="1"/>
        <pt x="61" y="0" on="1"/>
        <pt x="48" y="0" on="0"/>
        <pt x="48" y="12" on="1"/>
        <pt x="48" y="63" on="1"/>
        <pt x="48" y="75" on="0"/>
        <pt x="61" y="75" on="1"/>
        <pt x="137" y="75" on="1"/>
        <pt x="137" y="643" on="1"/>
        <pt x="61" y="643" on="1"/>
        <pt x="48" y="643" on="0"/>
        <pt x="48" y="655" on="1"/>
        <pt x="48" y="706" on="1"/>
        <pt x="48" y="718" on="0"/>
        <pt x="61" y="718" on="1"/>
        <pt x="592" y="718" on="1"/>
        <pt x="605" y="718" on="0"/>
        <pt x="605" y="706" on="1"/>
        <pt x="605" y="545" on="1"/>
        <pt x="605" y="532" on="0"/>
        <pt x="592" y="532" on="1"/>
        <pt x="538" y="532" on="1"/>
        <pt x="526" y="532" on="0"/>
        <pt x="526" y="545" on="1"/>
        <pt x="526" y="643" on="1"/>
        <pt x="224" y="643" on="1"/>
        <pt x="224" y="395" on="1"/>
        <pt x="477" y="395" on="1"/>
        <pt x="490" y="395" on="0"/>
        <pt x="490" y="383" on="1"/>
        <pt x="490" y="332" on="1"/>
        <pt x="490" y="320" on="0"/>
        <pt x="477" y="320" on="1"/>
        <pt x="224" y="320" on="1"/>
        <pt x="224" y="75" on="1"/>
        <pt x="525" y="75" on="1"/>
        <pt x="525" y="173" on="1"/>
        <pt x="525" y="185" on="0"/>
        <pt x="538" y="185" on="1"/>
        <pt x="592" y="185" on="1"/>
        <pt x="605" y="185" on="0"/>
        <pt x="605" y="173" on="1"/>
        <pt x="605" y="12" on="1"/>
        <pt x="605" y="0" on="0"/>
      </contour>
    </TTGlyph>
    <TTGlyph name="Ebreve" xMin="48" yMin="0" xMax="605" yMax="941">
      <contour>
        <pt x="592" y="0" on="1"/>
        <pt x="61" y="0" on="1"/>
        <pt x="48" y="0" on="0"/>
        <pt x="48" y="12" on="1"/>
        <pt x="48" y="63" on="1"/>
        <pt x="48" y="75" on="0"/>
        <pt x="61" y="75" on="1"/>
        <pt x="137" y="75" on="1"/>
        <pt x="137" y="643" on="1"/>
        <pt x="61" y="643" on="1"/>
        <pt x="48" y="643" on="0"/>
        <pt x="48" y="655" on="1"/>
        <pt x="48" y="706" on="1"/>
        <pt x="48" y="718" on="0"/>
        <pt x="61" y="718" on="1"/>
        <pt x="592" y="718" on="1"/>
        <pt x="605" y="718" on="0"/>
        <pt x="605" y="706" on="1"/>
        <pt x="605" y="545" on="1"/>
        <pt x="605" y="532" on="0"/>
        <pt x="592" y="532" on="1"/>
        <pt x="538" y="532" on="1"/>
        <pt x="526" y="532" on="0"/>
        <pt x="526" y="545" on="1"/>
        <pt x="526" y="643" on="1"/>
        <pt x="224" y="643" on="1"/>
        <pt x="224" y="395" on="1"/>
        <pt x="477" y="395" on="1"/>
        <pt x="490" y="395" on="0"/>
        <pt x="490" y="383" on="1"/>
        <pt x="490" y="332" on="1"/>
        <pt x="490" y="320" on="0"/>
        <pt x="477" y="320" on="1"/>
        <pt x="224" y="320" on="1"/>
        <pt x="224" y="75" on="1"/>
        <pt x="525" y="75" on="1"/>
        <pt x="525" y="173" on="1"/>
        <pt x="525" y="185" on="0"/>
        <pt x="538" y="185" on="1"/>
        <pt x="592" y="185" on="1"/>
        <pt x="605" y="185" on="0"/>
        <pt x="605" y="173" on="1"/>
        <pt x="605" y="12" on="1"/>
        <pt x="605" y="0" on="0"/>
      </contour>
      <contour>
        <pt x="412" y="941" on="1"/>
        <pt x="444" y="941" on="1"/>
        <pt x="457" y="941" on="0"/>
        <pt x="457" y="928" on="1"/>
        <pt x="457" y="861" on="0"/>
        <pt x="379" y="789" on="0"/>
        <pt x="254" y="789" on="0"/>
        <pt x="177" y="861" on="0"/>
        <pt x="177" y="928" on="1"/>
        <pt x="177" y="941" on="0"/>
        <pt x="190" y="941" on="1"/>
        <pt x="222" y="941" on="1"/>
        <pt x="235" y="941" on="0"/>
        <pt x="235" y="928" on="1"/>
        <pt x="235" y="887" on="0"/>
        <pt x="281" y="840" on="0"/>
        <pt x="351" y="840" on="0"/>
        <pt x="399" y="887" on="0"/>
        <pt x="399" y="928" on="1"/>
        <pt x="399" y="941" on="0"/>
      </contour>
    </TTGlyph>
    <TTGlyph name="Ecaron" xMin="48" yMin="0" xMax="605" yMax="992">
      <contour>
        <pt x="333" y="804" on="1"/>
        <pt x="328" y="799" on="0"/>
        <pt x="317" y="799" on="0"/>
        <pt x="313" y="803" on="1"/>
        <pt x="158" y="939" on="1"/>
        <pt x="149" y="947" on="0"/>
        <pt x="156" y="958" on="1"/>
        <pt x="181" y="986" on="1"/>
        <pt x="185" y="992" on="0"/>
        <pt x="195" y="992" on="0"/>
        <pt x="200" y="988" on="1"/>
        <pt x="322" y="883" on="1"/>
        <pt x="446" y="988" on="1"/>
        <pt x="451" y="992" on="0"/>
        <pt x="461" y="992" on="0"/>
        <pt x="465" y="986" on="1"/>
        <pt x="490" y="958" on="1"/>
        <pt x="496" y="949" on="0"/>
        <pt x="488" y="939" on="1"/>
      </contour>
      <contour>
        <pt x="592" y="0" on="1"/>
        <pt x="61" y="0" on="1"/>
        <pt x="48" y="0" on="0"/>
        <pt x="48" y="12" on="1"/>
        <pt x="48" y="63" on="1"/>
        <pt x="48" y="75" on="0"/>
        <pt x="61" y="75" on="1"/>
        <pt x="137" y="75" on="1"/>
        <pt x="137" y="643" on="1"/>
        <pt x="61" y="643" on="1"/>
        <pt x="48" y="643" on="0"/>
        <pt x="48" y="655" on="1"/>
        <pt x="48" y="706" on="1"/>
        <pt x="48" y="718" on="0"/>
        <pt x="61" y="718" on="1"/>
        <pt x="592" y="718" on="1"/>
        <pt x="605" y="718" on="0"/>
        <pt x="605" y="706" on="1"/>
        <pt x="605" y="545" on="1"/>
        <pt x="605" y="532" on="0"/>
        <pt x="592" y="532" on="1"/>
        <pt x="538" y="532" on="1"/>
        <pt x="526" y="532" on="0"/>
        <pt x="526" y="545" on="1"/>
        <pt x="526" y="643" on="1"/>
        <pt x="224" y="643" on="1"/>
        <pt x="224" y="395" on="1"/>
        <pt x="477" y="395" on="1"/>
        <pt x="490" y="395" on="0"/>
        <pt x="490" y="383" on="1"/>
        <pt x="490" y="332" on="1"/>
        <pt x="490" y="320" on="0"/>
        <pt x="477" y="320" on="1"/>
        <pt x="224" y="320" on="1"/>
        <pt x="224" y="75" on="1"/>
        <pt x="525" y="75" on="1"/>
        <pt x="525" y="173" on="1"/>
        <pt x="525" y="185" on="0"/>
        <pt x="538" y="185" on="1"/>
        <pt x="592" y="185" on="1"/>
        <pt x="605" y="185" on="0"/>
        <pt x="605" y="173" on="1"/>
        <pt x="605" y="12" on="1"/>
        <pt x="605" y="0" on="0"/>
      </contour>
    </TTGlyph>
    <TTGlyph name="Ecircumflex" xMin="48" yMin="0" xMax="605" yMax="989">
      <contour>
        <pt x="296" y="985" on="1"/>
        <pt x="300" y="989" on="0"/>
        <pt x="311" y="989" on="0"/>
        <pt x="316" y="984" on="1"/>
        <pt x="471" y="849" on="1"/>
        <pt x="479" y="839" on="0"/>
        <pt x="473" y="830" on="1"/>
        <pt x="448" y="801" on="1"/>
        <pt x="440" y="791" on="0"/>
        <pt x="429" y="799" on="1"/>
        <pt x="305" y="904" on="1"/>
        <pt x="183" y="799" on="1"/>
        <pt x="173" y="790" on="0"/>
        <pt x="164" y="801" on="1"/>
        <pt x="139" y="830" on="1"/>
        <pt x="132" y="841" on="0"/>
        <pt x="141" y="849" on="1"/>
      </contour>
      <contour>
        <pt x="592" y="0" on="1"/>
        <pt x="61" y="0" on="1"/>
        <pt x="48" y="0" on="0"/>
        <pt x="48" y="12" on="1"/>
        <pt x="48" y="63" on="1"/>
        <pt x="48" y="75" on="0"/>
        <pt x="61" y="75" on="1"/>
        <pt x="137" y="75" on="1"/>
        <pt x="137" y="643" on="1"/>
        <pt x="61" y="643" on="1"/>
        <pt x="48" y="643" on="0"/>
        <pt x="48" y="655" on="1"/>
        <pt x="48" y="706" on="1"/>
        <pt x="48" y="718" on="0"/>
        <pt x="61" y="718" on="1"/>
        <pt x="592" y="718" on="1"/>
        <pt x="605" y="718" on="0"/>
        <pt x="605" y="706" on="1"/>
        <pt x="605" y="545" on="1"/>
        <pt x="605" y="532" on="0"/>
        <pt x="592" y="532" on="1"/>
        <pt x="538" y="532" on="1"/>
        <pt x="526" y="532" on="0"/>
        <pt x="526" y="545" on="1"/>
        <pt x="526" y="643" on="1"/>
        <pt x="224" y="643" on="1"/>
        <pt x="224" y="395" on="1"/>
        <pt x="477" y="395" on="1"/>
        <pt x="490" y="395" on="0"/>
        <pt x="490" y="383" on="1"/>
        <pt x="490" y="332" on="1"/>
        <pt x="490" y="320" on="0"/>
        <pt x="477" y="320" on="1"/>
        <pt x="224" y="320" on="1"/>
        <pt x="224" y="75" on="1"/>
        <pt x="525" y="75" on="1"/>
        <pt x="525" y="173" on="1"/>
        <pt x="525" y="185" on="0"/>
        <pt x="538" y="185" on="1"/>
        <pt x="592" y="185" on="1"/>
        <pt x="605" y="185" on="0"/>
        <pt x="605" y="173" on="1"/>
        <pt x="605" y="12" on="1"/>
        <pt x="605" y="0" on="0"/>
      </contour>
    </TTGlyph>
    <TTGlyph name="Edieresis" xMin="48" yMin="0" xMax="605" yMax="867">
      <contour>
        <pt x="285" y="842" on="0"/>
        <pt x="285" y="806" on="0"/>
        <pt x="260" y="782" on="0"/>
        <pt x="224" y="782" on="0"/>
        <pt x="200" y="806" on="0"/>
        <pt x="200" y="842" on="0"/>
        <pt x="224" y="867" on="0"/>
        <pt x="260" y="867" on="0"/>
      </contour>
      <contour>
        <pt x="443" y="842" on="0"/>
        <pt x="443" y="806" on="0"/>
        <pt x="418" y="782" on="0"/>
        <pt x="382" y="782" on="0"/>
        <pt x="358" y="806" on="0"/>
        <pt x="358" y="842" on="0"/>
        <pt x="382" y="867" on="0"/>
        <pt x="418" y="867" on="0"/>
      </contour>
      <contour>
        <pt x="592" y="0" on="1"/>
        <pt x="61" y="0" on="1"/>
        <pt x="48" y="0" on="0"/>
        <pt x="48" y="12" on="1"/>
        <pt x="48" y="63" on="1"/>
        <pt x="48" y="75" on="0"/>
        <pt x="61" y="75" on="1"/>
        <pt x="137" y="75" on="1"/>
        <pt x="137" y="643" on="1"/>
        <pt x="61" y="643" on="1"/>
        <pt x="48" y="643" on="0"/>
        <pt x="48" y="655" on="1"/>
        <pt x="48" y="706" on="1"/>
        <pt x="48" y="718" on="0"/>
        <pt x="61" y="718" on="1"/>
        <pt x="592" y="718" on="1"/>
        <pt x="605" y="718" on="0"/>
        <pt x="605" y="706" on="1"/>
        <pt x="605" y="545" on="1"/>
        <pt x="605" y="532" on="0"/>
        <pt x="592" y="532" on="1"/>
        <pt x="538" y="532" on="1"/>
        <pt x="526" y="532" on="0"/>
        <pt x="526" y="545" on="1"/>
        <pt x="526" y="643" on="1"/>
        <pt x="224" y="643" on="1"/>
        <pt x="224" y="395" on="1"/>
        <pt x="477" y="395" on="1"/>
        <pt x="490" y="395" on="0"/>
        <pt x="490" y="383" on="1"/>
        <pt x="490" y="332" on="1"/>
        <pt x="490" y="320" on="0"/>
        <pt x="477" y="320" on="1"/>
        <pt x="224" y="320" on="1"/>
        <pt x="224" y="75" on="1"/>
        <pt x="525" y="75" on="1"/>
        <pt x="525" y="173" on="1"/>
        <pt x="525" y="185" on="0"/>
        <pt x="538" y="185" on="1"/>
        <pt x="592" y="185" on="1"/>
        <pt x="605" y="185" on="0"/>
        <pt x="605" y="173" on="1"/>
        <pt x="605" y="12" on="1"/>
        <pt x="605" y="0" on="0"/>
      </contour>
    </TTGlyph>
    <TTGlyph name="Edotaccent" xMin="48" yMin="0" xMax="605" yMax="897">
      <contour>
        <pt x="592" y="0" on="1"/>
        <pt x="61" y="0" on="1"/>
        <pt x="48" y="0" on="0"/>
        <pt x="48" y="12" on="1"/>
        <pt x="48" y="63" on="1"/>
        <pt x="48" y="75" on="0"/>
        <pt x="61" y="75" on="1"/>
        <pt x="137" y="75" on="1"/>
        <pt x="137" y="643" on="1"/>
        <pt x="61" y="643" on="1"/>
        <pt x="48" y="643" on="0"/>
        <pt x="48" y="655" on="1"/>
        <pt x="48" y="706" on="1"/>
        <pt x="48" y="718" on="0"/>
        <pt x="61" y="718" on="1"/>
        <pt x="592" y="718" on="1"/>
        <pt x="605" y="718" on="0"/>
        <pt x="605" y="706" on="1"/>
        <pt x="605" y="545" on="1"/>
        <pt x="605" y="532" on="0"/>
        <pt x="592" y="532" on="1"/>
        <pt x="538" y="532" on="1"/>
        <pt x="526" y="532" on="0"/>
        <pt x="526" y="545" on="1"/>
        <pt x="526" y="643" on="1"/>
        <pt x="224" y="643" on="1"/>
        <pt x="224" y="395" on="1"/>
        <pt x="477" y="395" on="1"/>
        <pt x="490" y="395" on="0"/>
        <pt x="490" y="383" on="1"/>
        <pt x="490" y="332" on="1"/>
        <pt x="490" y="320" on="0"/>
        <pt x="477" y="320" on="1"/>
        <pt x="224" y="320" on="1"/>
        <pt x="224" y="75" on="1"/>
        <pt x="525" y="75" on="1"/>
        <pt x="525" y="173" on="1"/>
        <pt x="525" y="185" on="0"/>
        <pt x="538" y="185" on="1"/>
        <pt x="592" y="185" on="1"/>
        <pt x="605" y="185" on="0"/>
        <pt x="605" y="173" on="1"/>
        <pt x="605" y="12" on="1"/>
        <pt x="605" y="0" on="0"/>
      </contour>
      <contour>
        <pt x="376" y="866" on="0"/>
        <pt x="376" y="822" on="0"/>
        <pt x="346" y="792" on="0"/>
        <pt x="302" y="792" on="0"/>
        <pt x="272" y="822" on="0"/>
        <pt x="272" y="866" on="0"/>
        <pt x="302" y="897" on="0"/>
        <pt x="346" y="897" on="0"/>
      </contour>
    </TTGlyph>
    <TTGlyph name="Egrave" xMin="48" yMin="0" xMax="605" yMax="996">
      <contour>
        <pt x="592" y="0" on="1"/>
        <pt x="61" y="0" on="1"/>
        <pt x="48" y="0" on="0"/>
        <pt x="48" y="12" on="1"/>
        <pt x="48" y="63" on="1"/>
        <pt x="48" y="75" on="0"/>
        <pt x="61" y="75" on="1"/>
        <pt x="137" y="75" on="1"/>
        <pt x="137" y="643" on="1"/>
        <pt x="61" y="643" on="1"/>
        <pt x="48" y="643" on="0"/>
        <pt x="48" y="655" on="1"/>
        <pt x="48" y="706" on="1"/>
        <pt x="48" y="718" on="0"/>
        <pt x="61" y="718" on="1"/>
        <pt x="592" y="718" on="1"/>
        <pt x="605" y="718" on="0"/>
        <pt x="605" y="706" on="1"/>
        <pt x="605" y="545" on="1"/>
        <pt x="605" y="532" on="0"/>
        <pt x="592" y="532" on="1"/>
        <pt x="538" y="532" on="1"/>
        <pt x="526" y="532" on="0"/>
        <pt x="526" y="545" on="1"/>
        <pt x="526" y="643" on="1"/>
        <pt x="224" y="643" on="1"/>
        <pt x="224" y="395" on="1"/>
        <pt x="477" y="395" on="1"/>
        <pt x="490" y="395" on="0"/>
        <pt x="490" y="383" on="1"/>
        <pt x="490" y="332" on="1"/>
        <pt x="490" y="320" on="0"/>
        <pt x="477" y="320" on="1"/>
        <pt x="224" y="320" on="1"/>
        <pt x="224" y="75" on="1"/>
        <pt x="525" y="75" on="1"/>
        <pt x="525" y="173" on="1"/>
        <pt x="525" y="185" on="0"/>
        <pt x="538" y="185" on="1"/>
        <pt x="592" y="185" on="1"/>
        <pt x="605" y="185" on="0"/>
        <pt x="605" y="173" on="1"/>
        <pt x="605" y="12" on="1"/>
        <pt x="605" y="0" on="0"/>
      </contour>
      <contour>
        <pt x="380" y="801" on="1"/>
        <pt x="375" y="795" on="0"/>
        <pt x="365" y="795" on="0"/>
        <pt x="361" y="799" on="1"/>
        <pt x="193" y="933" on="1"/>
        <pt x="188" y="937" on="0"/>
        <pt x="188" y="947" on="0"/>
        <pt x="191" y="952" on="1"/>
        <pt x="223" y="989" on="1"/>
        <pt x="228" y="995" on="0"/>
        <pt x="238" y="995" on="0"/>
        <pt x="242" y="991" on="1"/>
        <pt x="403" y="849" on="1"/>
        <pt x="409" y="845" on="0"/>
        <pt x="409" y="835" on="0"/>
        <pt x="405" y="830" on="1"/>
      </contour>
    </TTGlyph>
    <TTGlyph name="Emacron" xMin="48" yMin="0" xMax="605" yMax="849">
      <contour>
        <pt x="592" y="0" on="1"/>
        <pt x="61" y="0" on="1"/>
        <pt x="48" y="0" on="0"/>
        <pt x="48" y="12" on="1"/>
        <pt x="48" y="63" on="1"/>
        <pt x="48" y="75" on="0"/>
        <pt x="61" y="75" on="1"/>
        <pt x="137" y="75" on="1"/>
        <pt x="137" y="643" on="1"/>
        <pt x="61" y="643" on="1"/>
        <pt x="48" y="643" on="0"/>
        <pt x="48" y="655" on="1"/>
        <pt x="48" y="706" on="1"/>
        <pt x="48" y="718" on="0"/>
        <pt x="61" y="718" on="1"/>
        <pt x="592" y="718" on="1"/>
        <pt x="605" y="718" on="0"/>
        <pt x="605" y="706" on="1"/>
        <pt x="605" y="545" on="1"/>
        <pt x="605" y="532" on="0"/>
        <pt x="592" y="532" on="1"/>
        <pt x="538" y="532" on="1"/>
        <pt x="526" y="532" on="0"/>
        <pt x="526" y="545" on="1"/>
        <pt x="526" y="643" on="1"/>
        <pt x="224" y="643" on="1"/>
        <pt x="224" y="395" on="1"/>
        <pt x="477" y="395" on="1"/>
        <pt x="490" y="395" on="0"/>
        <pt x="490" y="383" on="1"/>
        <pt x="490" y="332" on="1"/>
        <pt x="490" y="320" on="0"/>
        <pt x="477" y="320" on="1"/>
        <pt x="224" y="320" on="1"/>
        <pt x="224" y="75" on="1"/>
        <pt x="525" y="75" on="1"/>
        <pt x="525" y="173" on="1"/>
        <pt x="525" y="185" on="0"/>
        <pt x="538" y="185" on="1"/>
        <pt x="592" y="185" on="1"/>
        <pt x="605" y="185" on="0"/>
        <pt x="605" y="173" on="1"/>
        <pt x="605" y="12" on="1"/>
        <pt x="605" y="0" on="0"/>
      </contour>
      <contour>
        <pt x="466" y="780" on="1"/>
        <pt x="170" y="780" on="1"/>
        <pt x="157" y="780" on="0"/>
        <pt x="157" y="793" on="1"/>
        <pt x="157" y="835" on="1"/>
        <pt x="157" y="849" on="0"/>
        <pt x="170" y="849" on="1"/>
        <pt x="466" y="849" on="1"/>
        <pt x="479" y="849" on="0"/>
        <pt x="479" y="835" on="1"/>
        <pt x="479" y="793" on="1"/>
        <pt x="479" y="780" on="0"/>
      </contour>
    </TTGlyph>
    <TTGlyph name="Eng" xMin="38" yMin="-232" xMax="762" yMax="718">
      <contour>
        <pt x="375" y="-219" on="1"/>
        <pt x="375" y="-169" on="1"/>
        <pt x="375" y="-156" on="0"/>
        <pt x="387" y="-156" on="1"/>
        <pt x="497" y="-156" on="0"/>
        <pt x="586" y="-82" on="0"/>
        <pt x="586" y="-1" on="1"/>
        <pt x="586" y="3" on="1"/>
        <pt x="567" y="9" on="0"/>
        <pt x="555" y="31" on="1"/>
        <pt x="266" y="483" on="1"/>
        <pt x="216" y="567" on="1"/>
        <pt x="214" y="567" on="1"/>
        <pt x="214" y="75" on="1"/>
        <pt x="291" y="75" on="1"/>
        <pt x="304" y="75" on="0"/>
        <pt x="304" y="63" on="1"/>
        <pt x="304" y="12" on="1"/>
        <pt x="304" y="0" on="0"/>
        <pt x="291" y="0" on="1"/>
        <pt x="51" y="0" on="1"/>
        <pt x="38" y="0" on="0"/>
        <pt x="38" y="12" on="1"/>
        <pt x="38" y="63" on="1"/>
        <pt x="38" y="75" on="0"/>
        <pt x="51" y="75" on="1"/>
        <pt x="127" y="75" on="1"/>
        <pt x="127" y="643" on="1"/>
        <pt x="51" y="643" on="1"/>
        <pt x="38" y="643" on="0"/>
        <pt x="38" y="655" on="1"/>
        <pt x="38" y="706" on="1"/>
        <pt x="38" y="718" on="0"/>
        <pt x="51" y="718" on="1"/>
        <pt x="191" y="718" on="1"/>
        <pt x="222" y="718" on="0"/>
        <pt x="242" y="684" on="1"/>
        <pt x="527" y="238" on="1"/>
        <pt x="584" y="141" on="1"/>
        <pt x="586" y="141" on="1"/>
        <pt x="586" y="643" on="1"/>
        <pt x="509" y="643" on="1"/>
        <pt x="497" y="643" on="0"/>
        <pt x="497" y="655" on="1"/>
        <pt x="497" y="706" on="1"/>
        <pt x="497" y="718" on="0"/>
        <pt x="509" y="718" on="1"/>
        <pt x="750" y="718" on="1"/>
        <pt x="762" y="718" on="0"/>
        <pt x="762" y="706" on="1"/>
        <pt x="762" y="655" on="1"/>
        <pt x="762" y="643" on="0"/>
        <pt x="750" y="643" on="1"/>
        <pt x="673" y="643" on="1"/>
        <pt x="673" y="14" on="1"/>
        <pt x="672" y="-111" on="0"/>
        <pt x="538" y="-232" on="0"/>
        <pt x="387" y="-232" on="1"/>
        <pt x="375" y="-232" on="0"/>
      </contour>
    </TTGlyph>
    <TTGlyph name="Eogonek" xMin="48" yMin="-161" xMax="605" yMax="718">
      <contour>
        <pt x="539" y="0" on="1"/>
        <pt x="469" y="-35" on="0"/>
        <pt x="469" y="-82" on="1"/>
        <pt x="469" y="-98" on="0"/>
        <pt x="490" y="-116" on="0"/>
        <pt x="528" y="-116" on="0"/>
        <pt x="559" y="-99" on="0"/>
        <pt x="564" y="-107" on="1"/>
        <pt x="573" y="-120" on="1"/>
        <pt x="581" y="-131" on="0"/>
        <pt x="569" y="-137" on="1"/>
        <pt x="535" y="-161" on="0"/>
        <pt x="460" y="-161" on="0"/>
        <pt x="417" y="-120" on="0"/>
        <pt x="417" y="-55" on="0"/>
        <pt x="460" y="-10" on="0"/>
        <pt x="486" y="0" on="1"/>
        <pt x="61" y="0" on="1"/>
        <pt x="48" y="0" on="0"/>
        <pt x="48" y="12" on="1"/>
        <pt x="48" y="63" on="1"/>
        <pt x="48" y="75" on="0"/>
        <pt x="61" y="75" on="1"/>
        <pt x="137" y="75" on="1"/>
        <pt x="137" y="643" on="1"/>
        <pt x="61" y="643" on="1"/>
        <pt x="48" y="643" on="0"/>
        <pt x="48" y="655" on="1"/>
        <pt x="48" y="706" on="1"/>
        <pt x="48" y="718" on="0"/>
        <pt x="61" y="718" on="1"/>
        <pt x="592" y="718" on="1"/>
        <pt x="605" y="718" on="0"/>
        <pt x="605" y="706" on="1"/>
        <pt x="605" y="545" on="1"/>
        <pt x="605" y="532" on="0"/>
        <pt x="592" y="532" on="1"/>
        <pt x="538" y="532" on="1"/>
        <pt x="526" y="532" on="0"/>
        <pt x="526" y="545" on="1"/>
        <pt x="526" y="643" on="1"/>
        <pt x="224" y="643" on="1"/>
        <pt x="224" y="395" on="1"/>
        <pt x="477" y="395" on="1"/>
        <pt x="490" y="395" on="0"/>
        <pt x="490" y="383" on="1"/>
        <pt x="490" y="332" on="1"/>
        <pt x="490" y="320" on="0"/>
        <pt x="477" y="320" on="1"/>
        <pt x="224" y="320" on="1"/>
        <pt x="224" y="75" on="1"/>
        <pt x="525" y="75" on="1"/>
        <pt x="525" y="173" on="1"/>
        <pt x="525" y="185" on="0"/>
        <pt x="538" y="185" on="1"/>
        <pt x="592" y="185" on="1"/>
        <pt x="605" y="185" on="0"/>
        <pt x="605" y="173" on="1"/>
        <pt x="605" y="12" on="1"/>
        <pt x="605" y="0" on="0"/>
        <pt x="592" y="0" on="1"/>
      </contour>
    </TTGlyph>
    <TTGlyph name="Eth" xMin="48" yMin="0" xMax="692" yMax="718">
      <contour>
        <pt x="348" y="0" on="1"/>
        <pt x="61" y="0" on="1"/>
        <pt x="48" y="0" on="0"/>
        <pt x="48" y="12" on="1"/>
        <pt x="48" y="63" on="1"/>
        <pt x="48" y="75" on="0"/>
        <pt x="61" y="75" on="1"/>
        <pt x="137" y="75" on="1"/>
        <pt x="137" y="324" on="1"/>
        <pt x="69" y="324" on="1"/>
        <pt x="55" y="324" on="0"/>
        <pt x="55" y="337" on="1"/>
        <pt x="55" y="379" on="1"/>
        <pt x="55" y="393" on="0"/>
        <pt x="69" y="393" on="1"/>
        <pt x="137" y="393" on="1"/>
        <pt x="137" y="643" on="1"/>
        <pt x="61" y="643" on="1"/>
        <pt x="48" y="643" on="0"/>
        <pt x="48" y="655" on="1"/>
        <pt x="48" y="706" on="1"/>
        <pt x="48" y="718" on="0"/>
        <pt x="61" y="718" on="1"/>
        <pt x="330" y="718" on="1"/>
        <pt x="496" y="718" on="0"/>
        <pt x="692" y="527" on="0"/>
        <pt x="692" y="193" on="0"/>
        <pt x="507" y="0" on="0"/>
      </contour>
      <contour>
        <pt x="224" y="75" on="1"/>
        <pt x="324" y="75" on="1"/>
        <pt x="460" y="76" on="0"/>
        <pt x="602" y="218" on="0"/>
        <pt x="602" y="493" on="0"/>
        <pt x="459" y="643" on="0"/>
        <pt x="321" y="643" on="1"/>
        <pt x="224" y="643" on="1"/>
        <pt x="224" y="393" on="1"/>
        <pt x="377" y="393" on="1"/>
        <pt x="390" y="393" on="0"/>
        <pt x="390" y="379" on="1"/>
        <pt x="390" y="337" on="1"/>
        <pt x="390" y="324" on="0"/>
        <pt x="377" y="324" on="1"/>
        <pt x="224" y="324" on="1"/>
      </contour>
    </TTGlyph>
    <TTGlyph name="Euro" xMin="38" yMin="-7" xMax="678" yMax="724">
      <contour>
        <pt x="678" y="72" on="0"/>
        <pt x="678" y="64" on="0"/>
        <pt x="673" y="60" on="1"/>
        <pt x="590" y="-7" on="0"/>
        <pt x="338" y="-7" on="0"/>
        <pt x="162" y="129" on="0"/>
        <pt x="131" y="247" on="1"/>
        <pt x="51" y="247" on="1"/>
        <pt x="38" y="247" on="0"/>
        <pt x="38" y="259" on="1"/>
        <pt x="38" y="296" on="1"/>
        <pt x="38" y="308" on="0"/>
        <pt x="51" y="308" on="1"/>
        <pt x="119" y="308" on="1"/>
        <pt x="116" y="329" on="0"/>
        <pt x="116" y="379" on="0"/>
        <pt x="118" y="401" on="1"/>
        <pt x="51" y="401" on="1"/>
        <pt x="38" y="401" on="0"/>
        <pt x="38" y="413" on="1"/>
        <pt x="38" y="449" on="1"/>
        <pt x="38" y="462" on="0"/>
        <pt x="51" y="462" on="1"/>
        <pt x="127" y="462" on="1"/>
        <pt x="154" y="584" on="0"/>
        <pt x="333" y="724" on="0"/>
        <pt x="548" y="724" on="0"/>
        <pt x="648" y="661" on="1"/>
        <pt x="657" y="654" on="0"/>
        <pt x="650" y="644" on="1"/>
        <pt x="616" y="602" on="1"/>
        <pt x="608" y="592" on="0"/>
        <pt x="599" y="600" on="1"/>
        <pt x="541" y="642" on="0"/>
        <pt x="377" y="642" on="0"/>
        <pt x="247" y="549" on="0"/>
        <pt x="224" y="462" on="1"/>
        <pt x="488" y="462" on="1"/>
        <pt x="501" y="462" on="0"/>
        <pt x="501" y="449" on="1"/>
        <pt x="501" y="413" on="1"/>
        <pt x="501" y="401" on="0"/>
        <pt x="488" y="401" on="1"/>
        <pt x="211" y="401" on="1"/>
        <pt x="209" y="389" on="0"/>
        <pt x="209" y="332" on="0"/>
        <pt x="212" y="308" on="1"/>
        <pt x="430" y="308" on="1"/>
        <pt x="443" y="308" on="0"/>
        <pt x="443" y="296" on="1"/>
        <pt x="443" y="259" on="1"/>
        <pt x="443" y="247" on="0"/>
        <pt x="430" y="247" on="1"/>
        <pt x="231" y="247" on="1"/>
        <pt x="257" y="164" on="0"/>
        <pt x="383" y="77" on="0"/>
        <pt x="458" y="77" on="1"/>
        <pt x="557" y="77" on="0"/>
        <pt x="620" y="121" on="1"/>
        <pt x="631" y="128" on="0"/>
        <pt x="637" y="121" on="1"/>
        <pt x="673" y="78" on="1"/>
      </contour>
    </TTGlyph>
    <TTGlyph name="F" xMin="48" yMin="0" xMax="587" yMax="718">
      <contour>
        <pt x="337" y="0" on="1"/>
        <pt x="61" y="0" on="1"/>
        <pt x="48" y="0" on="0"/>
        <pt x="48" y="12" on="1"/>
        <pt x="48" y="63" on="1"/>
        <pt x="48" y="75" on="0"/>
        <pt x="61" y="75" on="1"/>
        <pt x="137" y="75" on="1"/>
        <pt x="137" y="643" on="1"/>
        <pt x="61" y="643" on="1"/>
        <pt x="48" y="643" on="0"/>
        <pt x="48" y="655" on="1"/>
        <pt x="48" y="706" on="1"/>
        <pt x="48" y="718" on="0"/>
        <pt x="61" y="718" on="1"/>
        <pt x="574" y="718" on="1"/>
        <pt x="587" y="718" on="0"/>
        <pt x="587" y="706" on="1"/>
        <pt x="587" y="545" on="1"/>
        <pt x="587" y="532" on="0"/>
        <pt x="574" y="532" on="1"/>
        <pt x="520" y="532" on="1"/>
        <pt x="508" y="532" on="0"/>
        <pt x="508" y="545" on="1"/>
        <pt x="508" y="643" on="1"/>
        <pt x="224" y="643" on="1"/>
        <pt x="224" y="395" on="1"/>
        <pt x="459" y="395" on="1"/>
        <pt x="472" y="395" on="0"/>
        <pt x="472" y="383" on="1"/>
        <pt x="472" y="332" on="1"/>
        <pt x="472" y="320" on="0"/>
        <pt x="459" y="320" on="1"/>
        <pt x="224" y="320" on="1"/>
        <pt x="224" y="75" on="1"/>
        <pt x="337" y="75" on="1"/>
        <pt x="349" y="75" on="0"/>
        <pt x="349" y="63" on="1"/>
        <pt x="349" y="12" on="1"/>
        <pt x="349" y="0" on="0"/>
      </contour>
    </TTGlyph>
    <TTGlyph name="G" xMin="48" yMin="-7" xMax="702" yMax="724">
      <contour>
        <pt x="690" y="0" on="1"/>
        <pt x="637" y="0" on="1"/>
        <pt x="624" y="0" on="0"/>
        <pt x="624" y="12" on="1"/>
        <pt x="625" y="81" on="1"/>
        <pt x="537" y="-7" on="0"/>
        <pt x="244" y="-7" on="0"/>
        <pt x="48" y="197" on="0"/>
        <pt x="48" y="363" on="1"/>
        <pt x="48" y="474" on="0"/>
        <pt x="147" y="642" on="0"/>
        <pt x="300" y="724" on="0"/>
        <pt x="389" y="724" on="1"/>
        <pt x="542" y="724" on="0"/>
        <pt x="609" y="629" on="1"/>
        <pt x="608" y="706" on="1"/>
        <pt x="606" y="718" on="0"/>
        <pt x="620" y="718" on="1"/>
        <pt x="676" y="718" on="1"/>
        <pt x="689" y="718" on="0"/>
        <pt x="689" y="706" on="1"/>
        <pt x="689" y="500" on="1"/>
        <pt x="689" y="488" on="0"/>
        <pt x="676" y="488" on="1"/>
        <pt x="613" y="488" on="1"/>
        <pt x="601" y="488" on="0"/>
        <pt x="601" y="500" on="1"/>
        <pt x="601" y="512" on="1"/>
        <pt x="601" y="556" on="0"/>
        <pt x="480" y="642" on="0"/>
        <pt x="292" y="642" on="0"/>
        <pt x="141" y="487" on="0"/>
        <pt x="141" y="228" on="0"/>
        <pt x="293" y="77" on="0"/>
        <pt x="481" y="77" on="0"/>
        <pt x="590" y="137" on="0"/>
        <pt x="617" y="178" on="1"/>
        <pt x="617" y="256" on="1"/>
        <pt x="431" y="256" on="1"/>
        <pt x="419" y="256" on="0"/>
        <pt x="419" y="269" on="1"/>
        <pt x="419" y="315" on="1"/>
        <pt x="419" y="327" on="0"/>
        <pt x="431" y="327" on="1"/>
        <pt x="690" y="327" on="1"/>
        <pt x="702" y="327" on="0"/>
        <pt x="702" y="315" on="1"/>
        <pt x="702" y="12" on="1"/>
        <pt x="702" y="0" on="0"/>
      </contour>
    </TTGlyph>
    <TTGlyph name="Gbreve" xMin="48" yMin="-7" xMax="702" yMax="941">
      <contour>
        <pt x="690" y="0" on="1"/>
        <pt x="637" y="0" on="1"/>
        <pt x="624" y="0" on="0"/>
        <pt x="624" y="12" on="1"/>
        <pt x="625" y="81" on="1"/>
        <pt x="537" y="-7" on="0"/>
        <pt x="244" y="-7" on="0"/>
        <pt x="48" y="197" on="0"/>
        <pt x="48" y="363" on="1"/>
        <pt x="48" y="474" on="0"/>
        <pt x="147" y="642" on="0"/>
        <pt x="300" y="724" on="0"/>
        <pt x="389" y="724" on="1"/>
        <pt x="542" y="724" on="0"/>
        <pt x="609" y="629" on="1"/>
        <pt x="608" y="706" on="1"/>
        <pt x="606" y="718" on="0"/>
        <pt x="620" y="718" on="1"/>
        <pt x="676" y="718" on="1"/>
        <pt x="689" y="718" on="0"/>
        <pt x="689" y="706" on="1"/>
        <pt x="689" y="500" on="1"/>
        <pt x="689" y="488" on="0"/>
        <pt x="676" y="488" on="1"/>
        <pt x="613" y="488" on="1"/>
        <pt x="601" y="488" on="0"/>
        <pt x="601" y="500" on="1"/>
        <pt x="601" y="512" on="1"/>
        <pt x="601" y="556" on="0"/>
        <pt x="480" y="642" on="0"/>
        <pt x="292" y="642" on="0"/>
        <pt x="141" y="487" on="0"/>
        <pt x="141" y="228" on="0"/>
        <pt x="293" y="77" on="0"/>
        <pt x="481" y="77" on="0"/>
        <pt x="590" y="137" on="0"/>
        <pt x="617" y="178" on="1"/>
        <pt x="617" y="256" on="1"/>
        <pt x="431" y="256" on="1"/>
        <pt x="419" y="256" on="0"/>
        <pt x="419" y="269" on="1"/>
        <pt x="419" y="315" on="1"/>
        <pt x="419" y="327" on="0"/>
        <pt x="431" y="327" on="1"/>
        <pt x="690" y="327" on="1"/>
        <pt x="702" y="327" on="0"/>
        <pt x="702" y="315" on="1"/>
        <pt x="702" y="12" on="1"/>
        <pt x="702" y="0" on="0"/>
      </contour>
      <contour>
        <pt x="493" y="941" on="1"/>
        <pt x="525" y="941" on="1"/>
        <pt x="538" y="941" on="0"/>
        <pt x="538" y="928" on="1"/>
        <pt x="538" y="861" on="0"/>
        <pt x="460" y="789" on="0"/>
        <pt x="335" y="789" on="0"/>
        <pt x="258" y="861" on="0"/>
        <pt x="258" y="928" on="1"/>
        <pt x="258" y="941" on="0"/>
        <pt x="271" y="941" on="1"/>
        <pt x="303" y="941" on="1"/>
        <pt x="316" y="941" on="0"/>
        <pt x="316" y="928" on="1"/>
        <pt x="316" y="887" on="0"/>
        <pt x="362" y="840" on="0"/>
        <pt x="432" y="840" on="0"/>
        <pt x="480" y="887" on="0"/>
        <pt x="480" y="928" on="1"/>
        <pt x="480" y="941" on="0"/>
      </contour>
    </TTGlyph>
    <TTGlyph name="Gcircumflex" xMin="48" yMin="-7" xMax="702" yMax="989">
      <contour>
        <pt x="381" y="985" on="1"/>
        <pt x="385" y="989" on="0"/>
        <pt x="396" y="989" on="0"/>
        <pt x="401" y="984" on="1"/>
        <pt x="556" y="849" on="1"/>
        <pt x="564" y="839" on="0"/>
        <pt x="558" y="830" on="1"/>
        <pt x="533" y="801" on="1"/>
        <pt x="525" y="791" on="0"/>
        <pt x="514" y="799" on="1"/>
        <pt x="390" y="904" on="1"/>
        <pt x="268" y="799" on="1"/>
        <pt x="258" y="790" on="0"/>
        <pt x="249" y="801" on="1"/>
        <pt x="224" y="830" on="1"/>
        <pt x="217" y="841" on="0"/>
        <pt x="226" y="849" on="1"/>
      </contour>
      <contour>
        <pt x="690" y="0" on="1"/>
        <pt x="637" y="0" on="1"/>
        <pt x="624" y="0" on="0"/>
        <pt x="624" y="12" on="1"/>
        <pt x="625" y="81" on="1"/>
        <pt x="537" y="-7" on="0"/>
        <pt x="244" y="-7" on="0"/>
        <pt x="48" y="197" on="0"/>
        <pt x="48" y="363" on="1"/>
        <pt x="48" y="474" on="0"/>
        <pt x="147" y="642" on="0"/>
        <pt x="300" y="724" on="0"/>
        <pt x="389" y="724" on="1"/>
        <pt x="542" y="724" on="0"/>
        <pt x="609" y="629" on="1"/>
        <pt x="608" y="706" on="1"/>
        <pt x="606" y="718" on="0"/>
        <pt x="620" y="718" on="1"/>
        <pt x="676" y="718" on="1"/>
        <pt x="689" y="718" on="0"/>
        <pt x="689" y="706" on="1"/>
        <pt x="689" y="500" on="1"/>
        <pt x="689" y="488" on="0"/>
        <pt x="676" y="488" on="1"/>
        <pt x="613" y="488" on="1"/>
        <pt x="601" y="488" on="0"/>
        <pt x="601" y="500" on="1"/>
        <pt x="601" y="512" on="1"/>
        <pt x="601" y="556" on="0"/>
        <pt x="480" y="642" on="0"/>
        <pt x="292" y="642" on="0"/>
        <pt x="141" y="487" on="0"/>
        <pt x="141" y="228" on="0"/>
        <pt x="293" y="77" on="0"/>
        <pt x="481" y="77" on="0"/>
        <pt x="590" y="137" on="0"/>
        <pt x="617" y="178" on="1"/>
        <pt x="617" y="256" on="1"/>
        <pt x="431" y="256" on="1"/>
        <pt x="419" y="256" on="0"/>
        <pt x="419" y="269" on="1"/>
        <pt x="419" y="315" on="1"/>
        <pt x="419" y="327" on="0"/>
        <pt x="431" y="327" on="1"/>
        <pt x="690" y="327" on="1"/>
        <pt x="702" y="327" on="0"/>
        <pt x="702" y="315" on="1"/>
        <pt x="702" y="12" on="1"/>
        <pt x="702" y="0" on="0"/>
      </contour>
    </TTGlyph>
    <TTGlyph name="Gcommaaccent" xMin="48" yMin="-228" xMax="702" yMax="724">
      <contour>
        <pt x="359" y="-222" on="1"/>
        <pt x="359" y="-205" on="1"/>
        <pt x="359" y="-199" on="0"/>
        <pt x="382" y="-199" on="0"/>
        <pt x="407" y="-172" on="0"/>
        <pt x="407" y="-146" on="1"/>
        <pt x="405" y="-135" on="1"/>
        <pt x="400" y="-140" on="0"/>
        <pt x="368" y="-140" on="0"/>
        <pt x="343" y="-114" on="0"/>
        <pt x="343" y="-74" on="0"/>
        <pt x="370" y="-46" on="0"/>
        <pt x="416" y="-46" on="0"/>
        <pt x="445" y="-85" on="0"/>
        <pt x="445" y="-175" on="0"/>
        <pt x="401" y="-228" on="0"/>
        <pt x="366" y="-228" on="1"/>
        <pt x="359" y="-228" on="0"/>
      </contour>
      <contour>
        <pt x="690" y="0" on="1"/>
        <pt x="637" y="0" on="1"/>
        <pt x="624" y="0" on="0"/>
        <pt x="624" y="12" on="1"/>
        <pt x="625" y="81" on="1"/>
        <pt x="537" y="-7" on="0"/>
        <pt x="244" y="-7" on="0"/>
        <pt x="48" y="197" on="0"/>
        <pt x="48" y="363" on="1"/>
        <pt x="48" y="474" on="0"/>
        <pt x="147" y="642" on="0"/>
        <pt x="300" y="724" on="0"/>
        <pt x="389" y="724" on="1"/>
        <pt x="542" y="724" on="0"/>
        <pt x="609" y="629" on="1"/>
        <pt x="608" y="706" on="1"/>
        <pt x="606" y="718" on="0"/>
        <pt x="620" y="718" on="1"/>
        <pt x="676" y="718" on="1"/>
        <pt x="689" y="718" on="0"/>
        <pt x="689" y="706" on="1"/>
        <pt x="689" y="500" on="1"/>
        <pt x="689" y="488" on="0"/>
        <pt x="676" y="488" on="1"/>
        <pt x="613" y="488" on="1"/>
        <pt x="601" y="488" on="0"/>
        <pt x="601" y="500" on="1"/>
        <pt x="601" y="512" on="1"/>
        <pt x="601" y="556" on="0"/>
        <pt x="480" y="642" on="0"/>
        <pt x="292" y="642" on="0"/>
        <pt x="141" y="487" on="0"/>
        <pt x="141" y="228" on="0"/>
        <pt x="293" y="77" on="0"/>
        <pt x="481" y="77" on="0"/>
        <pt x="590" y="137" on="0"/>
        <pt x="617" y="178" on="1"/>
        <pt x="617" y="256" on="1"/>
        <pt x="431" y="256" on="1"/>
        <pt x="419" y="256" on="0"/>
        <pt x="419" y="269" on="1"/>
        <pt x="419" y="315" on="1"/>
        <pt x="419" y="327" on="0"/>
        <pt x="431" y="327" on="1"/>
        <pt x="690" y="327" on="1"/>
        <pt x="702" y="327" on="0"/>
        <pt x="702" y="315" on="1"/>
        <pt x="702" y="12" on="1"/>
        <pt x="702" y="0" on="0"/>
      </contour>
    </TTGlyph>
    <TTGlyph name="Gdotaccent" xMin="48" yMin="-7" xMax="702" yMax="897">
      <contour>
        <pt x="690" y="0" on="1"/>
        <pt x="637" y="0" on="1"/>
        <pt x="624" y="0" on="0"/>
        <pt x="624" y="12" on="1"/>
        <pt x="625" y="81" on="1"/>
        <pt x="537" y="-7" on="0"/>
        <pt x="244" y="-7" on="0"/>
        <pt x="48" y="197" on="0"/>
        <pt x="48" y="363" on="1"/>
        <pt x="48" y="474" on="0"/>
        <pt x="147" y="642" on="0"/>
        <pt x="300" y="724" on="0"/>
        <pt x="389" y="724" on="1"/>
        <pt x="542" y="724" on="0"/>
        <pt x="609" y="629" on="1"/>
        <pt x="608" y="706" on="1"/>
        <pt x="606" y="718" on="0"/>
        <pt x="620" y="718" on="1"/>
        <pt x="676" y="718" on="1"/>
        <pt x="689" y="718" on="0"/>
        <pt x="689" y="706" on="1"/>
        <pt x="689" y="500" on="1"/>
        <pt x="689" y="488" on="0"/>
        <pt x="676" y="488" on="1"/>
        <pt x="613" y="488" on="1"/>
        <pt x="601" y="488" on="0"/>
        <pt x="601" y="500" on="1"/>
        <pt x="601" y="512" on="1"/>
        <pt x="601" y="556" on="0"/>
        <pt x="480" y="642" on="0"/>
        <pt x="292" y="642" on="0"/>
        <pt x="141" y="487" on="0"/>
        <pt x="141" y="228" on="0"/>
        <pt x="293" y="77" on="0"/>
        <pt x="481" y="77" on="0"/>
        <pt x="590" y="137" on="0"/>
        <pt x="617" y="178" on="1"/>
        <pt x="617" y="256" on="1"/>
        <pt x="431" y="256" on="1"/>
        <pt x="419" y="256" on="0"/>
        <pt x="419" y="269" on="1"/>
        <pt x="419" y="315" on="1"/>
        <pt x="419" y="327" on="0"/>
        <pt x="431" y="327" on="1"/>
        <pt x="690" y="327" on="1"/>
        <pt x="702" y="327" on="0"/>
        <pt x="702" y="315" on="1"/>
        <pt x="702" y="12" on="1"/>
        <pt x="702" y="0" on="0"/>
      </contour>
      <contour>
        <pt x="442" y="866" on="0"/>
        <pt x="442" y="822" on="0"/>
        <pt x="412" y="792" on="0"/>
        <pt x="368" y="792" on="0"/>
        <pt x="338" y="822" on="0"/>
        <pt x="338" y="866" on="0"/>
        <pt x="368" y="897" on="0"/>
        <pt x="412" y="897" on="0"/>
      </contour>
    </TTGlyph>
    <TTGlyph name="H" xMin="48" yMin="0" xMax="772" yMax="718">
      <contour>
        <pt x="760" y="0" on="1"/>
        <pt x="519" y="0" on="1"/>
        <pt x="507" y="0" on="0"/>
        <pt x="507" y="12" on="1"/>
        <pt x="507" y="63" on="1"/>
        <pt x="507" y="75" on="0"/>
        <pt x="519" y="75" on="1"/>
        <pt x="596" y="75" on="1"/>
        <pt x="596" y="320" on="1"/>
        <pt x="224" y="320" on="1"/>
        <pt x="224" y="75" on="1"/>
        <pt x="301" y="75" on="1"/>
        <pt x="314" y="75" on="0"/>
        <pt x="314" y="63" on="1"/>
        <pt x="314" y="12" on="1"/>
        <pt x="314" y="0" on="0"/>
        <pt x="301" y="0" on="1"/>
        <pt x="61" y="0" on="1"/>
        <pt x="48" y="0" on="0"/>
        <pt x="48" y="12" on="1"/>
        <pt x="48" y="63" on="1"/>
        <pt x="48" y="75" on="0"/>
        <pt x="61" y="75" on="1"/>
        <pt x="137" y="75" on="1"/>
        <pt x="137" y="643" on="1"/>
        <pt x="61" y="643" on="1"/>
        <pt x="48" y="643" on="0"/>
        <pt x="48" y="655" on="1"/>
        <pt x="48" y="706" on="1"/>
        <pt x="48" y="718" on="0"/>
        <pt x="61" y="718" on="1"/>
        <pt x="301" y="718" on="1"/>
        <pt x="314" y="718" on="0"/>
        <pt x="314" y="706" on="1"/>
        <pt x="314" y="655" on="1"/>
        <pt x="314" y="643" on="0"/>
        <pt x="301" y="643" on="1"/>
        <pt x="224" y="643" on="1"/>
        <pt x="224" y="393" on="1"/>
        <pt x="596" y="393" on="1"/>
        <pt x="596" y="643" on="1"/>
        <pt x="519" y="643" on="1"/>
        <pt x="507" y="643" on="0"/>
        <pt x="507" y="655" on="1"/>
        <pt x="507" y="706" on="1"/>
        <pt x="507" y="718" on="0"/>
        <pt x="519" y="718" on="1"/>
        <pt x="760" y="718" on="1"/>
        <pt x="772" y="718" on="0"/>
        <pt x="772" y="706" on="1"/>
        <pt x="772" y="655" on="1"/>
        <pt x="772" y="643" on="0"/>
        <pt x="760" y="643" on="1"/>
        <pt x="683" y="643" on="1"/>
        <pt x="683" y="75" on="1"/>
        <pt x="760" y="75" on="1"/>
        <pt x="772" y="75" on="0"/>
        <pt x="772" y="63" on="1"/>
        <pt x="772" y="12" on="1"/>
        <pt x="772" y="0" on="0"/>
      </contour>
    </TTGlyph>
    <TTGlyph name="Hbar" xMin="48" yMin="0" xMax="772" yMax="718">
      <contour>
        <pt x="760" y="0" on="1"/>
        <pt x="519" y="0" on="1"/>
        <pt x="507" y="0" on="0"/>
        <pt x="507" y="12" on="1"/>
        <pt x="507" y="63" on="1"/>
        <pt x="507" y="75" on="0"/>
        <pt x="519" y="75" on="1"/>
        <pt x="596" y="75" on="1"/>
        <pt x="596" y="320" on="1"/>
        <pt x="224" y="320" on="1"/>
        <pt x="224" y="75" on="1"/>
        <pt x="301" y="75" on="1"/>
        <pt x="314" y="75" on="0"/>
        <pt x="314" y="63" on="1"/>
        <pt x="314" y="12" on="1"/>
        <pt x="314" y="0" on="0"/>
        <pt x="301" y="0" on="1"/>
        <pt x="61" y="0" on="1"/>
        <pt x="48" y="0" on="0"/>
        <pt x="48" y="12" on="1"/>
        <pt x="48" y="63" on="1"/>
        <pt x="48" y="75" on="0"/>
        <pt x="61" y="75" on="1"/>
        <pt x="137" y="75" on="1"/>
        <pt x="137" y="489" on="1"/>
        <pt x="77" y="489" on="1"/>
        <pt x="66" y="489" on="0"/>
        <pt x="66" y="500" on="1"/>
        <pt x="66" y="529" on="1"/>
        <pt x="66" y="540" on="0"/>
        <pt x="77" y="540" on="1"/>
        <pt x="137" y="540" on="1"/>
        <pt x="137" y="643" on="1"/>
        <pt x="61" y="643" on="1"/>
        <pt x="48" y="643" on="0"/>
        <pt x="48" y="655" on="1"/>
        <pt x="48" y="706" on="1"/>
        <pt x="48" y="718" on="0"/>
        <pt x="61" y="718" on="1"/>
        <pt x="301" y="718" on="1"/>
        <pt x="314" y="718" on="0"/>
        <pt x="314" y="706" on="1"/>
        <pt x="314" y="655" on="1"/>
        <pt x="314" y="643" on="0"/>
        <pt x="301" y="643" on="1"/>
        <pt x="224" y="643" on="1"/>
        <pt x="224" y="540" on="1"/>
        <pt x="596" y="540" on="1"/>
        <pt x="596" y="643" on="1"/>
        <pt x="519" y="643" on="1"/>
        <pt x="507" y="643" on="0"/>
        <pt x="507" y="655" on="1"/>
        <pt x="507" y="706" on="1"/>
        <pt x="507" y="718" on="0"/>
        <pt x="519" y="718" on="1"/>
        <pt x="760" y="718" on="1"/>
        <pt x="772" y="718" on="0"/>
        <pt x="772" y="706" on="1"/>
        <pt x="772" y="655" on="1"/>
        <pt x="772" y="643" on="0"/>
        <pt x="760" y="643" on="1"/>
        <pt x="683" y="643" on="1"/>
        <pt x="683" y="540" on="1"/>
        <pt x="730" y="540" on="1"/>
        <pt x="741" y="540" on="0"/>
        <pt x="741" y="529" on="1"/>
        <pt x="741" y="500" on="1"/>
        <pt x="741" y="489" on="0"/>
        <pt x="730" y="489" on="1"/>
        <pt x="683" y="489" on="1"/>
        <pt x="683" y="75" on="1"/>
        <pt x="760" y="75" on="1"/>
        <pt x="772" y="75" on="0"/>
        <pt x="772" y="63" on="1"/>
        <pt x="772" y="12" on="1"/>
        <pt x="772" y="0" on="0"/>
      </contour>
      <contour>
        <pt x="596" y="393" on="1"/>
        <pt x="596" y="489" on="1"/>
        <pt x="224" y="489" on="1"/>
        <pt x="224" y="393" on="1"/>
      </contour>
    </TTGlyph>
    <TTGlyph name="Hcircumflex" xMin="48" yMin="0" xMax="772" yMax="989">
      <contour>
        <pt x="408" y="985" on="1"/>
        <pt x="412" y="989" on="0"/>
        <pt x="423" y="989" on="0"/>
        <pt x="428" y="984" on="1"/>
        <pt x="583" y="849" on="1"/>
        <pt x="591" y="839" on="0"/>
        <pt x="585" y="830" on="1"/>
        <pt x="560" y="801" on="1"/>
        <pt x="552" y="791" on="0"/>
        <pt x="541" y="799" on="1"/>
        <pt x="417" y="904" on="1"/>
        <pt x="295" y="799" on="1"/>
        <pt x="285" y="790" on="0"/>
        <pt x="276" y="801" on="1"/>
        <pt x="251" y="830" on="1"/>
        <pt x="244" y="841" on="0"/>
        <pt x="253" y="849" on="1"/>
      </contour>
      <contour>
        <pt x="760" y="0" on="1"/>
        <pt x="519" y="0" on="1"/>
        <pt x="507" y="0" on="0"/>
        <pt x="507" y="12" on="1"/>
        <pt x="507" y="63" on="1"/>
        <pt x="507" y="75" on="0"/>
        <pt x="519" y="75" on="1"/>
        <pt x="596" y="75" on="1"/>
        <pt x="596" y="320" on="1"/>
        <pt x="224" y="320" on="1"/>
        <pt x="224" y="75" on="1"/>
        <pt x="301" y="75" on="1"/>
        <pt x="314" y="75" on="0"/>
        <pt x="314" y="63" on="1"/>
        <pt x="314" y="12" on="1"/>
        <pt x="314" y="0" on="0"/>
        <pt x="301" y="0" on="1"/>
        <pt x="61" y="0" on="1"/>
        <pt x="48" y="0" on="0"/>
        <pt x="48" y="12" on="1"/>
        <pt x="48" y="63" on="1"/>
        <pt x="48" y="75" on="0"/>
        <pt x="61" y="75" on="1"/>
        <pt x="137" y="75" on="1"/>
        <pt x="137" y="643" on="1"/>
        <pt x="61" y="643" on="1"/>
        <pt x="48" y="643" on="0"/>
        <pt x="48" y="655" on="1"/>
        <pt x="48" y="706" on="1"/>
        <pt x="48" y="718" on="0"/>
        <pt x="61" y="718" on="1"/>
        <pt x="301" y="718" on="1"/>
        <pt x="314" y="718" on="0"/>
        <pt x="314" y="706" on="1"/>
        <pt x="314" y="655" on="1"/>
        <pt x="314" y="643" on="0"/>
        <pt x="301" y="643" on="1"/>
        <pt x="224" y="643" on="1"/>
        <pt x="224" y="393" on="1"/>
        <pt x="596" y="393" on="1"/>
        <pt x="596" y="643" on="1"/>
        <pt x="519" y="643" on="1"/>
        <pt x="507" y="643" on="0"/>
        <pt x="507" y="655" on="1"/>
        <pt x="507" y="706" on="1"/>
        <pt x="507" y="718" on="0"/>
        <pt x="519" y="718" on="1"/>
        <pt x="760" y="718" on="1"/>
        <pt x="772" y="718" on="0"/>
        <pt x="772" y="706" on="1"/>
        <pt x="772" y="655" on="1"/>
        <pt x="772" y="643" on="0"/>
        <pt x="760" y="643" on="1"/>
        <pt x="683" y="643" on="1"/>
        <pt x="683" y="75" on="1"/>
        <pt x="760" y="75" on="1"/>
        <pt x="772" y="75" on="0"/>
        <pt x="772" y="63" on="1"/>
        <pt x="772" y="12" on="1"/>
        <pt x="772" y="0" on="0"/>
      </contour>
    </TTGlyph>
    <TTGlyph name="I" xMin="48" yMin="0" xMax="314" yMax="718">
      <contour>
        <pt x="301" y="0" on="1"/>
        <pt x="61" y="0" on="1"/>
        <pt x="48" y="0" on="0"/>
        <pt x="48" y="12" on="1"/>
        <pt x="48" y="63" on="1"/>
        <pt x="48" y="75" on="0"/>
        <pt x="61" y="75" on="1"/>
        <pt x="137" y="75" on="1"/>
        <pt x="137" y="643" on="1"/>
        <pt x="61" y="643" on="1"/>
        <pt x="48" y="643" on="0"/>
        <pt x="48" y="655" on="1"/>
        <pt x="48" y="706" on="1"/>
        <pt x="48" y="718" on="0"/>
        <pt x="61" y="718" on="1"/>
        <pt x="301" y="718" on="1"/>
        <pt x="314" y="718" on="0"/>
        <pt x="314" y="706" on="1"/>
        <pt x="314" y="655" on="1"/>
        <pt x="314" y="643" on="0"/>
        <pt x="301" y="643" on="1"/>
        <pt x="224" y="643" on="1"/>
        <pt x="224" y="75" on="1"/>
        <pt x="301" y="75" on="1"/>
        <pt x="314" y="75" on="0"/>
        <pt x="314" y="63" on="1"/>
        <pt x="314" y="12" on="1"/>
        <pt x="314" y="0" on="0"/>
      </contour>
    </TTGlyph>
    <TTGlyph name="Iacute" xMin="48" yMin="0" xMax="343" yMax="971">
      <contour>
        <pt x="301" y="0" on="1"/>
        <pt x="61" y="0" on="1"/>
        <pt x="48" y="0" on="0"/>
        <pt x="48" y="12" on="1"/>
        <pt x="48" y="63" on="1"/>
        <pt x="48" y="75" on="0"/>
        <pt x="61" y="75" on="1"/>
        <pt x="137" y="75" on="1"/>
        <pt x="137" y="643" on="1"/>
        <pt x="61" y="643" on="1"/>
        <pt x="48" y="643" on="0"/>
        <pt x="48" y="655" on="1"/>
        <pt x="48" y="706" on="1"/>
        <pt x="48" y="718" on="0"/>
        <pt x="61" y="718" on="1"/>
        <pt x="301" y="718" on="1"/>
        <pt x="314" y="718" on="0"/>
        <pt x="314" y="706" on="1"/>
        <pt x="314" y="655" on="1"/>
        <pt x="314" y="643" on="0"/>
        <pt x="301" y="643" on="1"/>
        <pt x="224" y="643" on="1"/>
        <pt x="224" y="75" on="1"/>
        <pt x="301" y="75" on="1"/>
        <pt x="314" y="75" on="0"/>
        <pt x="314" y="63" on="1"/>
        <pt x="314" y="12" on="1"/>
        <pt x="314" y="0" on="0"/>
      </contour>
      <contour>
        <pt x="170" y="774" on="1"/>
        <pt x="165" y="771" on="0"/>
        <pt x="155" y="771" on="0"/>
        <pt x="151" y="777" on="1"/>
        <pt x="126" y="806" on="1"/>
        <pt x="122" y="811" on="0"/>
        <pt x="122" y="821" on="0"/>
        <pt x="128" y="825" on="1"/>
        <pt x="289" y="966" on="1"/>
        <pt x="293" y="970" on="0"/>
        <pt x="303" y="970" on="0"/>
        <pt x="308" y="965" on="1"/>
        <pt x="339" y="927" on="1"/>
        <pt x="343" y="922" on="0"/>
        <pt x="343" y="913" on="0"/>
        <pt x="338" y="908" on="1"/>
      </contour>
    </TTGlyph>
    <TTGlyph name="Ibreve" xMin="43" yMin="0" xMax="323" yMax="941">
      <contour>
        <pt x="301" y="0" on="1"/>
        <pt x="61" y="0" on="1"/>
        <pt x="48" y="0" on="0"/>
        <pt x="48" y="12" on="1"/>
        <pt x="48" y="63" on="1"/>
        <pt x="48" y="75" on="0"/>
        <pt x="61" y="75" on="1"/>
        <pt x="137" y="75" on="1"/>
        <pt x="137" y="643" on="1"/>
        <pt x="61" y="643" on="1"/>
        <pt x="48" y="643" on="0"/>
        <pt x="48" y="655" on="1"/>
        <pt x="48" y="706" on="1"/>
        <pt x="48" y="718" on="0"/>
        <pt x="61" y="718" on="1"/>
        <pt x="301" y="718" on="1"/>
        <pt x="314" y="718" on="0"/>
        <pt x="314" y="706" on="1"/>
        <pt x="314" y="655" on="1"/>
        <pt x="314" y="643" on="0"/>
        <pt x="301" y="643" on="1"/>
        <pt x="224" y="643" on="1"/>
        <pt x="224" y="75" on="1"/>
        <pt x="301" y="75" on="1"/>
        <pt x="314" y="75" on="0"/>
        <pt x="314" y="63" on="1"/>
        <pt x="314" y="12" on="1"/>
        <pt x="314" y="0" on="0"/>
      </contour>
      <contour>
        <pt x="278" y="941" on="1"/>
        <pt x="310" y="941" on="1"/>
        <pt x="323" y="941" on="0"/>
        <pt x="323" y="928" on="1"/>
        <pt x="323" y="861" on="0"/>
        <pt x="245" y="789" on="0"/>
        <pt x="120" y="789" on="0"/>
        <pt x="43" y="861" on="0"/>
        <pt x="43" y="928" on="1"/>
        <pt x="43" y="941" on="0"/>
        <pt x="56" y="941" on="1"/>
        <pt x="88" y="941" on="1"/>
        <pt x="101" y="941" on="0"/>
        <pt x="101" y="928" on="1"/>
        <pt x="101" y="887" on="0"/>
        <pt x="147" y="840" on="0"/>
        <pt x="217" y="840" on="0"/>
        <pt x="265" y="887" on="0"/>
        <pt x="265" y="928" on="1"/>
        <pt x="265" y="941" on="0"/>
      </contour>
    </TTGlyph>
    <TTGlyph name="Icircumflex" xMin="21" yMin="0" xMax="362" yMax="989">
      <contour>
        <pt x="309" y="0" on="1"/>
        <pt x="69" y="0" on="1"/>
        <pt x="56" y="0" on="0"/>
        <pt x="56" y="12" on="1"/>
        <pt x="56" y="63" on="1"/>
        <pt x="56" y="75" on="0"/>
        <pt x="69" y="75" on="1"/>
        <pt x="145" y="75" on="1"/>
        <pt x="145" y="643" on="1"/>
        <pt x="69" y="643" on="1"/>
        <pt x="56" y="643" on="0"/>
        <pt x="56" y="655" on="1"/>
        <pt x="56" y="706" on="1"/>
        <pt x="56" y="718" on="0"/>
        <pt x="69" y="718" on="1"/>
        <pt x="309" y="718" on="1"/>
        <pt x="322" y="718" on="0"/>
        <pt x="322" y="706" on="1"/>
        <pt x="322" y="655" on="1"/>
        <pt x="322" y="643" on="0"/>
        <pt x="309" y="643" on="1"/>
        <pt x="232" y="643" on="1"/>
        <pt x="232" y="75" on="1"/>
        <pt x="309" y="75" on="1"/>
        <pt x="322" y="75" on="0"/>
        <pt x="322" y="63" on="1"/>
        <pt x="322" y="12" on="1"/>
        <pt x="322" y="0" on="0"/>
      </contour>
      <contour>
        <pt x="334" y="801" on="1"/>
        <pt x="330" y="795" on="0"/>
        <pt x="320" y="795" on="0"/>
        <pt x="315" y="799" on="1"/>
        <pt x="191" y="904" on="1"/>
        <pt x="69" y="799" on="1"/>
        <pt x="64" y="795" on="0"/>
        <pt x="55" y="795" on="0"/>
        <pt x="50" y="801" on="1"/>
        <pt x="25" y="830" on="1"/>
        <pt x="22" y="835" on="0"/>
        <pt x="22" y="844" on="0"/>
        <pt x="27" y="849" on="1"/>
        <pt x="182" y="985" on="1"/>
        <pt x="186" y="989" on="0"/>
        <pt x="197" y="989" on="0"/>
        <pt x="202" y="984" on="1"/>
        <pt x="357" y="849" on="1"/>
        <pt x="362" y="843" on="0"/>
        <pt x="362" y="834" on="0"/>
        <pt x="359" y="830" on="1"/>
      </contour>
    </TTGlyph>
    <TTGlyph name="Idieresis" xMin="48" yMin="0" xMax="314" yMax="867">
      <contour>
        <pt x="301" y="0" on="1"/>
        <pt x="61" y="0" on="1"/>
        <pt x="48" y="0" on="0"/>
        <pt x="48" y="12" on="1"/>
        <pt x="48" y="63" on="1"/>
        <pt x="48" y="75" on="0"/>
        <pt x="61" y="75" on="1"/>
        <pt x="137" y="75" on="1"/>
        <pt x="137" y="643" on="1"/>
        <pt x="61" y="643" on="1"/>
        <pt x="48" y="643" on="0"/>
        <pt x="48" y="655" on="1"/>
        <pt x="48" y="706" on="1"/>
        <pt x="48" y="718" on="0"/>
        <pt x="61" y="718" on="1"/>
        <pt x="301" y="718" on="1"/>
        <pt x="314" y="718" on="0"/>
        <pt x="314" y="706" on="1"/>
        <pt x="314" y="655" on="1"/>
        <pt x="314" y="643" on="0"/>
        <pt x="301" y="643" on="1"/>
        <pt x="224" y="643" on="1"/>
        <pt x="224" y="75" on="1"/>
        <pt x="301" y="75" on="1"/>
        <pt x="314" y="75" on="0"/>
        <pt x="314" y="63" on="1"/>
        <pt x="314" y="12" on="1"/>
        <pt x="314" y="0" on="0"/>
      </contour>
      <contour>
        <pt x="147" y="842" on="0"/>
        <pt x="147" y="806" on="0"/>
        <pt x="122" y="782" on="0"/>
        <pt x="86" y="782" on="0"/>
        <pt x="62" y="806" on="0"/>
        <pt x="62" y="842" on="0"/>
        <pt x="86" y="867" on="0"/>
        <pt x="122" y="867" on="0"/>
      </contour>
      <contour>
        <pt x="305" y="842" on="0"/>
        <pt x="305" y="806" on="0"/>
        <pt x="280" y="782" on="0"/>
        <pt x="244" y="782" on="0"/>
        <pt x="220" y="806" on="0"/>
        <pt x="220" y="842" on="0"/>
        <pt x="244" y="867" on="0"/>
        <pt x="280" y="867" on="0"/>
      </contour>
    </TTGlyph>
    <TTGlyph name="Idotaccent" xMin="48" yMin="0" xMax="314" yMax="897">
      <contour>
        <pt x="301" y="0" on="1"/>
        <pt x="61" y="0" on="1"/>
        <pt x="48" y="0" on="0"/>
        <pt x="48" y="12" on="1"/>
        <pt x="48" y="63" on="1"/>
        <pt x="48" y="75" on="0"/>
        <pt x="61" y="75" on="1"/>
        <pt x="137" y="75" on="1"/>
        <pt x="137" y="643" on="1"/>
        <pt x="61" y="643" on="1"/>
        <pt x="48" y="643" on="0"/>
        <pt x="48" y="655" on="1"/>
        <pt x="48" y="706" on="1"/>
        <pt x="48" y="718" on="0"/>
        <pt x="61" y="718" on="1"/>
        <pt x="301" y="718" on="1"/>
        <pt x="314" y="718" on="0"/>
        <pt x="314" y="706" on="1"/>
        <pt x="314" y="655" on="1"/>
        <pt x="314" y="643" on="0"/>
        <pt x="301" y="643" on="1"/>
        <pt x="224" y="643" on="1"/>
        <pt x="224" y="75" on="1"/>
        <pt x="301" y="75" on="1"/>
        <pt x="314" y="75" on="0"/>
        <pt x="314" y="63" on="1"/>
        <pt x="314" y="12" on="1"/>
        <pt x="314" y="0" on="0"/>
      </contour>
      <contour>
        <pt x="234" y="866" on="0"/>
        <pt x="234" y="822" on="0"/>
        <pt x="204" y="792" on="0"/>
        <pt x="160" y="792" on="0"/>
        <pt x="130" y="822" on="0"/>
        <pt x="130" y="866" on="0"/>
        <pt x="160" y="897" on="0"/>
        <pt x="204" y="897" on="0"/>
      </contour>
    </TTGlyph>
    <TTGlyph name="Igrave" xMin="31" yMin="0" xMax="330" yMax="974">
      <contour>
        <pt x="317" y="0" on="1"/>
        <pt x="77" y="0" on="1"/>
        <pt x="64" y="0" on="0"/>
        <pt x="64" y="12" on="1"/>
        <pt x="64" y="63" on="1"/>
        <pt x="64" y="75" on="0"/>
        <pt x="77" y="75" on="1"/>
        <pt x="153" y="75" on="1"/>
        <pt x="153" y="643" on="1"/>
        <pt x="77" y="643" on="1"/>
        <pt x="64" y="643" on="0"/>
        <pt x="64" y="655" on="1"/>
        <pt x="64" y="706" on="1"/>
        <pt x="64" y="718" on="0"/>
        <pt x="77" y="718" on="1"/>
        <pt x="317" y="718" on="1"/>
        <pt x="330" y="718" on="0"/>
        <pt x="330" y="706" on="1"/>
        <pt x="330" y="655" on="1"/>
        <pt x="330" y="643" on="0"/>
        <pt x="317" y="643" on="1"/>
        <pt x="240" y="643" on="1"/>
        <pt x="240" y="75" on="1"/>
        <pt x="317" y="75" on="1"/>
        <pt x="330" y="75" on="0"/>
        <pt x="330" y="63" on="1"/>
        <pt x="330" y="12" on="1"/>
        <pt x="330" y="0" on="0"/>
      </contour>
      <contour>
        <pt x="224" y="779" on="1"/>
        <pt x="219" y="773" on="0"/>
        <pt x="209" y="773" on="0"/>
        <pt x="205" y="777" on="1"/>
        <pt x="37" y="911" on="1"/>
        <pt x="32" y="915" on="0"/>
        <pt x="32" y="925" on="0"/>
        <pt x="35" y="930" on="1"/>
        <pt x="67" y="967" on="1"/>
        <pt x="72" y="973" on="0"/>
        <pt x="82" y="973" on="0"/>
        <pt x="86" y="969" on="1"/>
        <pt x="247" y="827" on="1"/>
        <pt x="253" y="823" on="0"/>
        <pt x="253" y="813" on="0"/>
        <pt x="249" y="808" on="1"/>
      </contour>
    </TTGlyph>
    <TTGlyph name="Imacron" xMin="20" yMin="0" xMax="342" yMax="849">
      <contour>
        <pt x="301" y="0" on="1"/>
        <pt x="61" y="0" on="1"/>
        <pt x="48" y="0" on="0"/>
        <pt x="48" y="12" on="1"/>
        <pt x="48" y="63" on="1"/>
        <pt x="48" y="75" on="0"/>
        <pt x="61" y="75" on="1"/>
        <pt x="137" y="75" on="1"/>
        <pt x="137" y="643" on="1"/>
        <pt x="61" y="643" on="1"/>
        <pt x="48" y="643" on="0"/>
        <pt x="48" y="655" on="1"/>
        <pt x="48" y="706" on="1"/>
        <pt x="48" y="718" on="0"/>
        <pt x="61" y="718" on="1"/>
        <pt x="301" y="718" on="1"/>
        <pt x="314" y="718" on="0"/>
        <pt x="314" y="706" on="1"/>
        <pt x="314" y="655" on="1"/>
        <pt x="314" y="643" on="0"/>
        <pt x="301" y="643" on="1"/>
        <pt x="224" y="643" on="1"/>
        <pt x="224" y="75" on="1"/>
        <pt x="301" y="75" on="1"/>
        <pt x="314" y="75" on="0"/>
        <pt x="314" y="63" on="1"/>
        <pt x="314" y="12" on="1"/>
        <pt x="314" y="0" on="0"/>
      </contour>
      <contour>
        <pt x="329" y="780" on="1"/>
        <pt x="33" y="780" on="1"/>
        <pt x="20" y="780" on="0"/>
        <pt x="20" y="793" on="1"/>
        <pt x="20" y="835" on="1"/>
        <pt x="20" y="849" on="0"/>
        <pt x="33" y="849" on="1"/>
        <pt x="329" y="849" on="1"/>
        <pt x="342" y="849" on="0"/>
        <pt x="342" y="835" on="1"/>
        <pt x="342" y="793" on="1"/>
        <pt x="342" y="780" on="0"/>
      </contour>
    </TTGlyph>
    <TTGlyph name="Iogonek" xMin="48" yMin="-161" xMax="319" yMax="718">
      <contour>
        <pt x="281" y="0" on="1"/>
        <pt x="211" y="-35" on="0"/>
        <pt x="211" y="-82" on="1"/>
        <pt x="211" y="-98" on="0"/>
        <pt x="232" y="-116" on="0"/>
        <pt x="270" y="-116" on="0"/>
        <pt x="301" y="-99" on="0"/>
        <pt x="306" y="-107" on="1"/>
        <pt x="315" y="-120" on="1"/>
        <pt x="318" y="-124" on="0"/>
        <pt x="318" y="-133" on="0"/>
        <pt x="311" y="-137" on="1"/>
        <pt x="277" y="-161" on="0"/>
        <pt x="202" y="-161" on="0"/>
        <pt x="159" y="-120" on="0"/>
        <pt x="159" y="-55" on="0"/>
        <pt x="202" y="-10" on="0"/>
        <pt x="228" y="0" on="1"/>
        <pt x="61" y="0" on="1"/>
        <pt x="48" y="0" on="0"/>
        <pt x="48" y="12" on="1"/>
        <pt x="48" y="63" on="1"/>
        <pt x="48" y="75" on="0"/>
        <pt x="61" y="75" on="1"/>
        <pt x="137" y="75" on="1"/>
        <pt x="137" y="643" on="1"/>
        <pt x="61" y="643" on="1"/>
        <pt x="48" y="643" on="0"/>
        <pt x="48" y="655" on="1"/>
        <pt x="48" y="706" on="1"/>
        <pt x="48" y="718" on="0"/>
        <pt x="61" y="718" on="1"/>
        <pt x="301" y="718" on="1"/>
        <pt x="314" y="718" on="0"/>
        <pt x="314" y="706" on="1"/>
        <pt x="314" y="655" on="1"/>
        <pt x="314" y="643" on="0"/>
        <pt x="301" y="643" on="1"/>
        <pt x="224" y="643" on="1"/>
        <pt x="224" y="75" on="1"/>
        <pt x="301" y="75" on="1"/>
        <pt x="314" y="75" on="0"/>
        <pt x="314" y="63" on="1"/>
        <pt x="314" y="12" on="1"/>
        <pt x="314" y="0" on="0"/>
        <pt x="301" y="0" on="1"/>
      </contour>
    </TTGlyph>
    <TTGlyph name="Itilde" xMin="34" yMin="0" xMax="348" yMax="910">
      <contour>
        <pt x="311" y="0" on="1"/>
        <pt x="71" y="0" on="1"/>
        <pt x="58" y="0" on="0"/>
        <pt x="58" y="12" on="1"/>
        <pt x="58" y="63" on="1"/>
        <pt x="58" y="75" on="0"/>
        <pt x="71" y="75" on="1"/>
        <pt x="147" y="75" on="1"/>
        <pt x="147" y="643" on="1"/>
        <pt x="71" y="643" on="1"/>
        <pt x="58" y="643" on="0"/>
        <pt x="58" y="655" on="1"/>
        <pt x="58" y="706" on="1"/>
        <pt x="58" y="718" on="0"/>
        <pt x="71" y="718" on="1"/>
        <pt x="311" y="718" on="1"/>
        <pt x="324" y="718" on="0"/>
        <pt x="324" y="706" on="1"/>
        <pt x="324" y="655" on="1"/>
        <pt x="324" y="643" on="0"/>
        <pt x="311" y="643" on="1"/>
        <pt x="234" y="643" on="1"/>
        <pt x="234" y="75" on="1"/>
        <pt x="311" y="75" on="1"/>
        <pt x="324" y="75" on="0"/>
        <pt x="324" y="63" on="1"/>
        <pt x="324" y="12" on="1"/>
        <pt x="324" y="0" on="0"/>
      </contour>
      <contour>
        <pt x="312" y="910" on="1"/>
        <pt x="336" y="910" on="1"/>
        <pt x="348" y="910" on="0"/>
        <pt x="348" y="898" on="1"/>
        <pt x="348" y="785" on="0"/>
        <pt x="261" y="785" on="1"/>
        <pt x="229" y="785" on="0"/>
        <pt x="180" y="816" on="0"/>
        <pt x="141" y="848" on="0"/>
        <pt x="102" y="848" on="0"/>
        <pt x="82" y="823" on="0"/>
        <pt x="82" y="791" on="1"/>
        <pt x="82" y="779" on="0"/>
        <pt x="70" y="779" on="1"/>
        <pt x="46" y="779" on="1"/>
        <pt x="34" y="779" on="0"/>
        <pt x="34" y="791" on="1"/>
        <pt x="34" y="899" on="0"/>
        <pt x="120" y="899" on="1"/>
        <pt x="157" y="899" on="0"/>
        <pt x="237" y="833" on="0"/>
        <pt x="282" y="833" on="0"/>
        <pt x="300" y="861" on="0"/>
        <pt x="300" y="898" on="1"/>
        <pt x="300" y="910" on="0"/>
      </contour>
    </TTGlyph>
    <TTGlyph name="J" xMin="48" yMin="0" xMax="436" yMax="718">
      <contour>
        <pt x="259" y="262" on="1"/>
        <pt x="259" y="643" on="1"/>
        <pt x="183" y="643" on="1"/>
        <pt x="170" y="643" on="0"/>
        <pt x="170" y="655" on="1"/>
        <pt x="170" y="706" on="1"/>
        <pt x="170" y="718" on="0"/>
        <pt x="183" y="718" on="1"/>
        <pt x="423" y="718" on="1"/>
        <pt x="436" y="718" on="0"/>
        <pt x="436" y="706" on="1"/>
        <pt x="436" y="655" on="1"/>
        <pt x="436" y="643" on="0"/>
        <pt x="423" y="643" on="1"/>
        <pt x="346" y="643" on="1"/>
        <pt x="346" y="271" on="1"/>
        <pt x="346" y="124" on="0"/>
        <pt x="208" y="0" on="0"/>
        <pt x="61" y="0" on="1"/>
        <pt x="48" y="0" on="0"/>
        <pt x="48" y="12" on="1"/>
        <pt x="48" y="63" on="1"/>
        <pt x="48" y="75" on="0"/>
        <pt x="61" y="75" on="1"/>
        <pt x="171" y="75" on="0"/>
        <pt x="259" y="166" on="0"/>
      </contour>
    </TTGlyph>
    <TTGlyph name="Jcircumflex" xMin="77" yMin="0" xMax="465" yMax="989">
      <contour>
        <pt x="272" y="985" on="1"/>
        <pt x="276" y="989" on="0"/>
        <pt x="287" y="989" on="0"/>
        <pt x="292" y="984" on="1"/>
        <pt x="447" y="849" on="1"/>
        <pt x="455" y="839" on="0"/>
        <pt x="449" y="830" on="1"/>
        <pt x="424" y="801" on="1"/>
        <pt x="416" y="791" on="0"/>
        <pt x="405" y="799" on="1"/>
        <pt x="281" y="904" on="1"/>
        <pt x="159" y="799" on="1"/>
        <pt x="149" y="790" on="0"/>
        <pt x="140" y="801" on="1"/>
        <pt x="115" y="830" on="1"/>
        <pt x="108" y="841" on="0"/>
        <pt x="117" y="849" on="1"/>
      </contour>
      <contour>
        <pt x="288" y="262" on="1"/>
        <pt x="288" y="643" on="1"/>
        <pt x="212" y="643" on="1"/>
        <pt x="199" y="643" on="0"/>
        <pt x="199" y="655" on="1"/>
        <pt x="199" y="706" on="1"/>
        <pt x="199" y="718" on="0"/>
        <pt x="212" y="718" on="1"/>
        <pt x="452" y="718" on="1"/>
        <pt x="465" y="718" on="0"/>
        <pt x="465" y="706" on="1"/>
        <pt x="465" y="655" on="1"/>
        <pt x="465" y="643" on="0"/>
        <pt x="452" y="643" on="1"/>
        <pt x="375" y="643" on="1"/>
        <pt x="375" y="271" on="1"/>
        <pt x="375" y="124" on="0"/>
        <pt x="237" y="0" on="0"/>
        <pt x="90" y="0" on="1"/>
        <pt x="77" y="0" on="0"/>
        <pt x="77" y="12" on="1"/>
        <pt x="77" y="63" on="1"/>
        <pt x="77" y="75" on="0"/>
        <pt x="90" y="75" on="1"/>
        <pt x="200" y="75" on="0"/>
        <pt x="288" y="166" on="0"/>
      </contour>
    </TTGlyph>
    <TTGlyph name="K" xMin="48" yMin="0" xMax="714" yMax="718">
      <contour>
        <pt x="702" y="0" on="1"/>
        <pt x="615" y="0" on="1"/>
        <pt x="579" y="0" on="0"/>
        <pt x="555" y="48" on="1"/>
        <pt x="461" y="239" on="1"/>
        <pt x="453" y="255" on="0"/>
        <pt x="440" y="273" on="0"/>
        <pt x="397" y="291" on="0"/>
        <pt x="365" y="291" on="1"/>
        <pt x="224" y="291" on="1"/>
        <pt x="224" y="75" on="1"/>
        <pt x="316" y="75" on="1"/>
        <pt x="329" y="75" on="0"/>
        <pt x="329" y="63" on="1"/>
        <pt x="329" y="12" on="1"/>
        <pt x="329" y="0" on="0"/>
        <pt x="316" y="0" on="1"/>
        <pt x="61" y="0" on="1"/>
        <pt x="48" y="0" on="0"/>
        <pt x="48" y="12" on="1"/>
        <pt x="48" y="63" on="1"/>
        <pt x="48" y="75" on="0"/>
        <pt x="61" y="75" on="1"/>
        <pt x="137" y="75" on="1"/>
        <pt x="137" y="643" on="1"/>
        <pt x="61" y="643" on="1"/>
        <pt x="48" y="643" on="0"/>
        <pt x="48" y="655" on="1"/>
        <pt x="48" y="706" on="1"/>
        <pt x="48" y="718" on="0"/>
        <pt x="61" y="718" on="1"/>
        <pt x="285" y="718" on="1"/>
        <pt x="297" y="718" on="0"/>
        <pt x="297" y="706" on="1"/>
        <pt x="297" y="655" on="1"/>
        <pt x="297" y="643" on="0"/>
        <pt x="285" y="643" on="1"/>
        <pt x="224" y="643" on="1"/>
        <pt x="224" y="362" on="1"/>
        <pt x="329" y="362" on="1"/>
        <pt x="435" y="362" on="0"/>
        <pt x="538" y="487" on="0"/>
        <pt x="538" y="643" on="1"/>
        <pt x="470" y="643" on="1"/>
        <pt x="458" y="643" on="0"/>
        <pt x="458" y="655" on="1"/>
        <pt x="458" y="706" on="1"/>
        <pt x="458" y="718" on="0"/>
        <pt x="470" y="718" on="1"/>
        <pt x="693" y="718" on="1"/>
        <pt x="705" y="718" on="0"/>
        <pt x="705" y="706" on="1"/>
        <pt x="705" y="655" on="1"/>
        <pt x="705" y="643" on="0"/>
        <pt x="693" y="643" on="1"/>
        <pt x="624" y="643" on="1"/>
        <pt x="624" y="402" on="0"/>
        <pt x="488" y="328" on="1"/>
        <pt x="511" y="317" on="0"/>
        <pt x="537" y="282" on="0"/>
        <pt x="554" y="248" on="1"/>
        <pt x="641" y="75" on="1"/>
        <pt x="702" y="75" on="1"/>
        <pt x="714" y="75" on="0"/>
        <pt x="714" y="63" on="1"/>
        <pt x="714" y="12" on="1"/>
        <pt x="714" y="0" on="0"/>
      </contour>
    </TTGlyph>
    <TTGlyph name="Kcommaaccent" xMin="48" yMin="-228" xMax="714" yMax="718">
      <contour>
        <pt x="314" y="-222" on="1"/>
        <pt x="314" y="-205" on="1"/>
        <pt x="314" y="-199" on="0"/>
        <pt x="337" y="-199" on="0"/>
        <pt x="362" y="-172" on="0"/>
        <pt x="362" y="-146" on="1"/>
        <pt x="360" y="-135" on="1"/>
        <pt x="355" y="-140" on="0"/>
        <pt x="323" y="-140" on="0"/>
        <pt x="298" y="-114" on="0"/>
        <pt x="298" y="-74" on="0"/>
        <pt x="326" y="-46" on="0"/>
        <pt x="371" y="-46" on="0"/>
        <pt x="400" y="-85" on="0"/>
        <pt x="400" y="-175" on="0"/>
        <pt x="356" y="-228" on="0"/>
        <pt x="321" y="-228" on="1"/>
        <pt x="314" y="-228" on="0"/>
      </contour>
      <contour>
        <pt x="702" y="0" on="1"/>
        <pt x="615" y="0" on="1"/>
        <pt x="579" y="0" on="0"/>
        <pt x="555" y="48" on="1"/>
        <pt x="461" y="239" on="1"/>
        <pt x="453" y="255" on="0"/>
        <pt x="440" y="273" on="0"/>
        <pt x="397" y="291" on="0"/>
        <pt x="365" y="291" on="1"/>
        <pt x="224" y="291" on="1"/>
        <pt x="224" y="75" on="1"/>
        <pt x="316" y="75" on="1"/>
        <pt x="329" y="75" on="0"/>
        <pt x="329" y="63" on="1"/>
        <pt x="329" y="12" on="1"/>
        <pt x="329" y="0" on="0"/>
        <pt x="316" y="0" on="1"/>
        <pt x="61" y="0" on="1"/>
        <pt x="48" y="0" on="0"/>
        <pt x="48" y="12" on="1"/>
        <pt x="48" y="63" on="1"/>
        <pt x="48" y="75" on="0"/>
        <pt x="61" y="75" on="1"/>
        <pt x="137" y="75" on="1"/>
        <pt x="137" y="643" on="1"/>
        <pt x="61" y="643" on="1"/>
        <pt x="48" y="643" on="0"/>
        <pt x="48" y="655" on="1"/>
        <pt x="48" y="706" on="1"/>
        <pt x="48" y="718" on="0"/>
        <pt x="61" y="718" on="1"/>
        <pt x="285" y="718" on="1"/>
        <pt x="297" y="718" on="0"/>
        <pt x="297" y="706" on="1"/>
        <pt x="297" y="655" on="1"/>
        <pt x="297" y="643" on="0"/>
        <pt x="285" y="643" on="1"/>
        <pt x="224" y="643" on="1"/>
        <pt x="224" y="362" on="1"/>
        <pt x="329" y="362" on="1"/>
        <pt x="435" y="362" on="0"/>
        <pt x="538" y="487" on="0"/>
        <pt x="538" y="643" on="1"/>
        <pt x="470" y="643" on="1"/>
        <pt x="458" y="643" on="0"/>
        <pt x="458" y="655" on="1"/>
        <pt x="458" y="706" on="1"/>
        <pt x="458" y="718" on="0"/>
        <pt x="470" y="718" on="1"/>
        <pt x="693" y="718" on="1"/>
        <pt x="705" y="718" on="0"/>
        <pt x="705" y="706" on="1"/>
        <pt x="705" y="655" on="1"/>
        <pt x="705" y="643" on="0"/>
        <pt x="693" y="643" on="1"/>
        <pt x="624" y="643" on="1"/>
        <pt x="624" y="402" on="0"/>
        <pt x="488" y="328" on="1"/>
        <pt x="511" y="317" on="0"/>
        <pt x="537" y="282" on="0"/>
        <pt x="554" y="248" on="1"/>
        <pt x="641" y="75" on="1"/>
        <pt x="702" y="75" on="1"/>
        <pt x="714" y="75" on="0"/>
        <pt x="714" y="63" on="1"/>
        <pt x="714" y="12" on="1"/>
        <pt x="714" y="0" on="0"/>
      </contour>
    </TTGlyph>
    <TTGlyph name="L" xMin="48" yMin="0" xMax="621" yMax="718">
      <contour>
        <pt x="608" y="0" on="1"/>
        <pt x="61" y="0" on="1"/>
        <pt x="48" y="0" on="0"/>
        <pt x="48" y="12" on="1"/>
        <pt x="48" y="63" on="1"/>
        <pt x="48" y="75" on="0"/>
        <pt x="61" y="75" on="1"/>
        <pt x="137" y="75" on="1"/>
        <pt x="137" y="643" on="1"/>
        <pt x="61" y="643" on="1"/>
        <pt x="48" y="643" on="0"/>
        <pt x="48" y="655" on="1"/>
        <pt x="48" y="706" on="1"/>
        <pt x="48" y="718" on="0"/>
        <pt x="61" y="718" on="1"/>
        <pt x="300" y="718" on="1"/>
        <pt x="313" y="718" on="0"/>
        <pt x="313" y="705" on="1"/>
        <pt x="313" y="656" on="1"/>
        <pt x="313" y="643" on="0"/>
        <pt x="300" y="643" on="1"/>
        <pt x="224" y="643" on="1"/>
        <pt x="224" y="75" on="1"/>
        <pt x="542" y="75" on="1"/>
        <pt x="542" y="173" on="1"/>
        <pt x="542" y="185" on="0"/>
        <pt x="555" y="185" on="1"/>
        <pt x="609" y="185" on="1"/>
        <pt x="621" y="185" on="0"/>
        <pt x="621" y="173" on="1"/>
        <pt x="621" y="13" on="1"/>
        <pt x="621" y="0" on="0"/>
      </contour>
    </TTGlyph>
    <TTGlyph name="Lacute" xMin="48" yMin="0" xMax="621" yMax="995">
      <contour>
        <pt x="376" y="990" on="1"/>
        <pt x="380" y="994" on="0"/>
        <pt x="390" y="994" on="0"/>
        <pt x="395" y="989" on="1"/>
        <pt x="426" y="951" on="1"/>
        <pt x="434" y="941" on="0"/>
        <pt x="425" y="932" on="1"/>
        <pt x="257" y="798" on="1"/>
        <pt x="245" y="791" on="0"/>
        <pt x="238" y="801" on="1"/>
        <pt x="213" y="830" on="1"/>
        <pt x="204" y="841" on="0"/>
        <pt x="215" y="849" on="1"/>
      </contour>
      <contour>
        <pt x="608" y="0" on="1"/>
        <pt x="61" y="0" on="1"/>
        <pt x="48" y="0" on="0"/>
        <pt x="48" y="12" on="1"/>
        <pt x="48" y="63" on="1"/>
        <pt x="48" y="75" on="0"/>
        <pt x="61" y="75" on="1"/>
        <pt x="137" y="75" on="1"/>
        <pt x="137" y="643" on="1"/>
        <pt x="61" y="643" on="1"/>
        <pt x="48" y="643" on="0"/>
        <pt x="48" y="655" on="1"/>
        <pt x="48" y="706" on="1"/>
        <pt x="48" y="718" on="0"/>
        <pt x="61" y="718" on="1"/>
        <pt x="300" y="718" on="1"/>
        <pt x="313" y="718" on="0"/>
        <pt x="313" y="705" on="1"/>
        <pt x="313" y="656" on="1"/>
        <pt x="313" y="643" on="0"/>
        <pt x="300" y="643" on="1"/>
        <pt x="224" y="643" on="1"/>
        <pt x="224" y="75" on="1"/>
        <pt x="542" y="75" on="1"/>
        <pt x="542" y="173" on="1"/>
        <pt x="542" y="185" on="0"/>
        <pt x="555" y="185" on="1"/>
        <pt x="609" y="185" on="1"/>
        <pt x="621" y="185" on="0"/>
        <pt x="621" y="173" on="1"/>
        <pt x="621" y="13" on="1"/>
        <pt x="621" y="0" on="0"/>
      </contour>
    </TTGlyph>
    <TTGlyph name="Lcaron" xMin="48" yMin="0" xMax="621" yMax="718">
      <contour>
        <pt x="347" y="540" on="1"/>
        <pt x="347" y="557" on="1"/>
        <pt x="347" y="563" on="0"/>
        <pt x="369" y="563" on="0"/>
        <pt x="394" y="590" on="0"/>
        <pt x="394" y="616" on="1"/>
        <pt x="392" y="628" on="1"/>
        <pt x="387" y="623" on="0"/>
        <pt x="355" y="623" on="0"/>
        <pt x="330" y="649" on="0"/>
        <pt x="330" y="689" on="0"/>
        <pt x="357" y="716" on="0"/>
        <pt x="403" y="716" on="0"/>
        <pt x="433" y="678" on="0"/>
        <pt x="433" y="587" on="0"/>
        <pt x="388" y="534" on="0"/>
        <pt x="353" y="534" on="1"/>
        <pt x="347" y="534" on="0"/>
      </contour>
      <contour>
        <pt x="608" y="0" on="1"/>
        <pt x="61" y="0" on="1"/>
        <pt x="48" y="0" on="0"/>
        <pt x="48" y="12" on="1"/>
        <pt x="48" y="63" on="1"/>
        <pt x="48" y="75" on="0"/>
        <pt x="61" y="75" on="1"/>
        <pt x="137" y="75" on="1"/>
        <pt x="137" y="643" on="1"/>
        <pt x="61" y="643" on="1"/>
        <pt x="48" y="643" on="0"/>
        <pt x="48" y="655" on="1"/>
        <pt x="48" y="706" on="1"/>
        <pt x="48" y="718" on="0"/>
        <pt x="61" y="718" on="1"/>
        <pt x="300" y="718" on="1"/>
        <pt x="313" y="718" on="0"/>
        <pt x="313" y="705" on="1"/>
        <pt x="313" y="656" on="1"/>
        <pt x="313" y="643" on="0"/>
        <pt x="300" y="643" on="1"/>
        <pt x="224" y="643" on="1"/>
        <pt x="224" y="75" on="1"/>
        <pt x="542" y="75" on="1"/>
        <pt x="542" y="173" on="1"/>
        <pt x="542" y="185" on="0"/>
        <pt x="555" y="185" on="1"/>
        <pt x="609" y="185" on="1"/>
        <pt x="621" y="185" on="0"/>
        <pt x="621" y="173" on="1"/>
        <pt x="621" y="13" on="1"/>
        <pt x="621" y="0" on="0"/>
      </contour>
    </TTGlyph>
    <TTGlyph name="Lcommaaccent" xMin="48" yMin="-228" xMax="621" yMax="718">
      <contour>
        <pt x="282" y="-222" on="1"/>
        <pt x="282" y="-205" on="1"/>
        <pt x="282" y="-199" on="0"/>
        <pt x="305" y="-199" on="0"/>
        <pt x="330" y="-172" on="0"/>
        <pt x="330" y="-146" on="1"/>
        <pt x="328" y="-135" on="1"/>
        <pt x="323" y="-140" on="0"/>
        <pt x="291" y="-140" on="0"/>
        <pt x="266" y="-114" on="0"/>
        <pt x="266" y="-74" on="0"/>
        <pt x="294" y="-46" on="0"/>
        <pt x="339" y="-46" on="0"/>
        <pt x="368" y="-85" on="0"/>
        <pt x="368" y="-175" on="0"/>
        <pt x="324" y="-228" on="0"/>
        <pt x="289" y="-228" on="1"/>
        <pt x="282" y="-228" on="0"/>
      </contour>
      <contour>
        <pt x="608" y="0" on="1"/>
        <pt x="61" y="0" on="1"/>
        <pt x="48" y="0" on="0"/>
        <pt x="48" y="12" on="1"/>
        <pt x="48" y="63" on="1"/>
        <pt x="48" y="75" on="0"/>
        <pt x="61" y="75" on="1"/>
        <pt x="137" y="75" on="1"/>
        <pt x="137" y="643" on="1"/>
        <pt x="61" y="643" on="1"/>
        <pt x="48" y="643" on="0"/>
        <pt x="48" y="655" on="1"/>
        <pt x="48" y="706" on="1"/>
        <pt x="48" y="718" on="0"/>
        <pt x="61" y="718" on="1"/>
        <pt x="300" y="718" on="1"/>
        <pt x="313" y="718" on="0"/>
        <pt x="313" y="705" on="1"/>
        <pt x="313" y="656" on="1"/>
        <pt x="313" y="643" on="0"/>
        <pt x="300" y="643" on="1"/>
        <pt x="224" y="643" on="1"/>
        <pt x="224" y="75" on="1"/>
        <pt x="542" y="75" on="1"/>
        <pt x="542" y="173" on="1"/>
        <pt x="542" y="185" on="0"/>
        <pt x="555" y="185" on="1"/>
        <pt x="609" y="185" on="1"/>
        <pt x="621" y="185" on="0"/>
        <pt x="621" y="173" on="1"/>
        <pt x="621" y="13" on="1"/>
        <pt x="621" y="0" on="0"/>
      </contour>
    </TTGlyph>
    <TTGlyph name="Ldot" xMin="48" yMin="0" xMax="621" yMax="718">
      <contour>
        <pt x="328" y="199" on="0"/>
        <pt x="290" y="199" on="0"/>
        <pt x="264" y="224" on="0"/>
        <pt x="264" y="263" on="0"/>
        <pt x="290" y="290" on="0"/>
        <pt x="328" y="290" on="0"/>
        <pt x="354" y="263" on="0"/>
        <pt x="354" y="225" on="0"/>
      </contour>
      <contour>
        <pt x="608" y="0" on="1"/>
        <pt x="61" y="0" on="1"/>
        <pt x="48" y="0" on="0"/>
        <pt x="48" y="12" on="1"/>
        <pt x="48" y="63" on="1"/>
        <pt x="48" y="75" on="0"/>
        <pt x="61" y="75" on="1"/>
        <pt x="137" y="75" on="1"/>
        <pt x="137" y="643" on="1"/>
        <pt x="61" y="643" on="1"/>
        <pt x="48" y="643" on="0"/>
        <pt x="48" y="655" on="1"/>
        <pt x="48" y="706" on="1"/>
        <pt x="48" y="718" on="0"/>
        <pt x="61" y="718" on="1"/>
        <pt x="300" y="718" on="1"/>
        <pt x="313" y="718" on="0"/>
        <pt x="313" y="705" on="1"/>
        <pt x="313" y="656" on="1"/>
        <pt x="313" y="643" on="0"/>
        <pt x="300" y="643" on="1"/>
        <pt x="224" y="643" on="1"/>
        <pt x="224" y="75" on="1"/>
        <pt x="542" y="75" on="1"/>
        <pt x="542" y="173" on="1"/>
        <pt x="542" y="185" on="0"/>
        <pt x="555" y="185" on="1"/>
        <pt x="609" y="185" on="1"/>
        <pt x="621" y="185" on="0"/>
        <pt x="621" y="173" on="1"/>
        <pt x="621" y="13" on="1"/>
        <pt x="621" y="0" on="0"/>
      </contour>
    </TTGlyph>
    <TTGlyph name="Lslash" xMin="35" yMin="0" xMax="629" yMax="718">
      <contour>
        <pt x="616" y="0" on="1"/>
        <pt x="68" y="0" on="1"/>
        <pt x="56" y="0" on="0"/>
        <pt x="56" y="12" on="1"/>
        <pt x="56" y="63" on="1"/>
        <pt x="56" y="75" on="0"/>
        <pt x="68" y="75" on="1"/>
        <pt x="145" y="75" on="1"/>
        <pt x="145" y="264" on="1"/>
        <pt x="79" y="198" on="1"/>
        <pt x="70" y="188" on="0"/>
        <pt x="60" y="198" on="1"/>
        <pt x="40" y="219" on="1"/>
        <pt x="35" y="224" on="0"/>
        <pt x="35" y="233" on="0"/>
        <pt x="40" y="238" on="1"/>
        <pt x="145" y="342" on="1"/>
        <pt x="145" y="643" on="1"/>
        <pt x="68" y="643" on="1"/>
        <pt x="56" y="643" on="0"/>
        <pt x="56" y="655" on="1"/>
        <pt x="56" y="706" on="1"/>
        <pt x="56" y="718" on="0"/>
        <pt x="68" y="718" on="1"/>
        <pt x="307" y="718" on="1"/>
        <pt x="321" y="718" on="0"/>
        <pt x="321" y="705" on="1"/>
        <pt x="321" y="656" on="1"/>
        <pt x="321" y="643" on="0"/>
        <pt x="307" y="643" on="1"/>
        <pt x="232" y="643" on="1"/>
        <pt x="232" y="429" on="1"/>
        <pt x="343" y="541" on="1"/>
        <pt x="352" y="549" on="0"/>
        <pt x="362" y="541" on="1"/>
        <pt x="382" y="520" on="1"/>
        <pt x="392" y="510" on="0"/>
        <pt x="382" y="501" on="1"/>
        <pt x="232" y="350" on="1"/>
        <pt x="232" y="75" on="1"/>
        <pt x="550" y="75" on="1"/>
        <pt x="550" y="173" on="1"/>
        <pt x="550" y="185" on="0"/>
        <pt x="562" y="185" on="1"/>
        <pt x="617" y="185" on="1"/>
        <pt x="629" y="185" on="0"/>
        <pt x="629" y="173" on="1"/>
        <pt x="629" y="13" on="1"/>
        <pt x="629" y="0" on="0"/>
      </contour>
    </TTGlyph>
    <TTGlyph name="M" xMin="48" yMin="0" xMax="871" yMax="718">
      <contour>
        <pt x="859" y="0" on="1"/>
        <pt x="628" y="0" on="1"/>
        <pt x="616" y="0" on="0"/>
        <pt x="616" y="12" on="1"/>
        <pt x="616" y="63" on="1"/>
        <pt x="616" y="75" on="0"/>
        <pt x="628" y="75" on="1"/>
        <pt x="695" y="75" on="1"/>
        <pt x="695" y="573" on="1"/>
        <pt x="694" y="573" on="1"/>
        <pt x="504" y="101" on="1"/>
        <pt x="492" y="71" on="0"/>
        <pt x="428" y="71" on="0"/>
        <pt x="416" y="101" on="1"/>
        <pt x="226" y="573" on="1"/>
        <pt x="224" y="573" on="1"/>
        <pt x="224" y="75" on="1"/>
        <pt x="291" y="75" on="1"/>
        <pt x="304" y="75" on="0"/>
        <pt x="304" y="63" on="1"/>
        <pt x="304" y="12" on="1"/>
        <pt x="304" y="0" on="0"/>
        <pt x="291" y="0" on="1"/>
        <pt x="61" y="0" on="1"/>
        <pt x="48" y="0" on="0"/>
        <pt x="48" y="12" on="1"/>
        <pt x="48" y="63" on="1"/>
        <pt x="48" y="75" on="0"/>
        <pt x="61" y="75" on="1"/>
        <pt x="137" y="75" on="1"/>
        <pt x="137" y="643" on="1"/>
        <pt x="61" y="643" on="1"/>
        <pt x="48" y="643" on="0"/>
        <pt x="48" y="655" on="1"/>
        <pt x="48" y="706" on="1"/>
        <pt x="48" y="718" on="0"/>
        <pt x="61" y="718" on="1"/>
        <pt x="215" y="718" on="1"/>
        <pt x="249" y="718" on="0"/>
        <pt x="262" y="684" on="1"/>
        <pt x="411" y="324" on="1"/>
        <pt x="458" y="198" on="1"/>
        <pt x="462" y="198" on="1"/>
        <pt x="490" y="276" on="0"/>
        <pt x="508" y="322" on="1"/>
        <pt x="658" y="684" on="1"/>
        <pt x="671" y="718" on="0"/>
        <pt x="706" y="718" on="1"/>
        <pt x="859" y="718" on="1"/>
        <pt x="871" y="718" on="0"/>
        <pt x="871" y="706" on="1"/>
        <pt x="871" y="655" on="1"/>
        <pt x="871" y="643" on="0"/>
        <pt x="859" y="643" on="1"/>
        <pt x="782" y="643" on="1"/>
        <pt x="782" y="75" on="1"/>
        <pt x="859" y="75" on="1"/>
        <pt x="871" y="75" on="0"/>
        <pt x="871" y="63" on="1"/>
        <pt x="871" y="12" on="1"/>
        <pt x="871" y="0" on="0"/>
      </contour>
    </TTGlyph>
    <TTGlyph name="N" xMin="48" yMin="0" xMax="772" yMax="718">
      <contour>
        <pt x="670" y="0" on="1"/>
        <pt x="616" y="0" on="1"/>
        <pt x="597" y="0" on="0"/>
        <pt x="575" y="15" on="0"/>
        <pt x="565" y="31" on="1"/>
        <pt x="276" y="483" on="1"/>
        <pt x="226" y="567" on="1"/>
        <pt x="224" y="567" on="1"/>
        <pt x="224" y="75" on="1"/>
        <pt x="301" y="75" on="1"/>
        <pt x="314" y="75" on="0"/>
        <pt x="314" y="63" on="1"/>
        <pt x="314" y="12" on="1"/>
        <pt x="314" y="0" on="0"/>
        <pt x="301" y="0" on="1"/>
        <pt x="61" y="0" on="1"/>
        <pt x="48" y="0" on="0"/>
        <pt x="48" y="12" on="1"/>
        <pt x="48" y="63" on="1"/>
        <pt x="48" y="75" on="0"/>
        <pt x="61" y="75" on="1"/>
        <pt x="137" y="75" on="1"/>
        <pt x="137" y="643" on="1"/>
        <pt x="61" y="643" on="1"/>
        <pt x="48" y="643" on="0"/>
        <pt x="48" y="655" on="1"/>
        <pt x="48" y="706" on="1"/>
        <pt x="48" y="718" on="0"/>
        <pt x="61" y="718" on="1"/>
        <pt x="201" y="718" on="1"/>
        <pt x="230" y="718" on="0"/>
        <pt x="252" y="684" on="1"/>
        <pt x="537" y="238" on="1"/>
        <pt x="594" y="141" on="1"/>
        <pt x="596" y="141" on="1"/>
        <pt x="596" y="643" on="1"/>
        <pt x="519" y="643" on="1"/>
        <pt x="507" y="643" on="0"/>
        <pt x="507" y="655" on="1"/>
        <pt x="507" y="706" on="1"/>
        <pt x="507" y="718" on="0"/>
        <pt x="519" y="718" on="1"/>
        <pt x="760" y="718" on="1"/>
        <pt x="772" y="718" on="0"/>
        <pt x="772" y="706" on="1"/>
        <pt x="772" y="655" on="1"/>
        <pt x="772" y="643" on="0"/>
        <pt x="760" y="643" on="1"/>
        <pt x="683" y="643" on="1"/>
        <pt x="683" y="12" on="1"/>
        <pt x="683" y="0" on="0"/>
      </contour>
    </TTGlyph>
    <TTGlyph name="Nacute" xMin="48" yMin="0" xMax="772" yMax="995">
      <contour>
        <pt x="471" y="990" on="1"/>
        <pt x="475" y="994" on="0"/>
        <pt x="485" y="994" on="0"/>
        <pt x="490" y="989" on="1"/>
        <pt x="521" y="951" on="1"/>
        <pt x="529" y="941" on="0"/>
        <pt x="520" y="932" on="1"/>
        <pt x="352" y="798" on="1"/>
        <pt x="340" y="791" on="0"/>
        <pt x="333" y="801" on="1"/>
        <pt x="308" y="830" on="1"/>
        <pt x="299" y="841" on="0"/>
        <pt x="310" y="849" on="1"/>
      </contour>
      <contour>
        <pt x="670" y="0" on="1"/>
        <pt x="616" y="0" on="1"/>
        <pt x="597" y="0" on="0"/>
        <pt x="575" y="15" on="0"/>
        <pt x="565" y="31" on="1"/>
        <pt x="276" y="483" on="1"/>
        <pt x="226" y="567" on="1"/>
        <pt x="224" y="567" on="1"/>
        <pt x="224" y="75" on="1"/>
        <pt x="301" y="75" on="1"/>
        <pt x="314" y="75" on="0"/>
        <pt x="314" y="63" on="1"/>
        <pt x="314" y="12" on="1"/>
        <pt x="314" y="0" on="0"/>
        <pt x="301" y="0" on="1"/>
        <pt x="61" y="0" on="1"/>
        <pt x="48" y="0" on="0"/>
        <pt x="48" y="12" on="1"/>
        <pt x="48" y="63" on="1"/>
        <pt x="48" y="75" on="0"/>
        <pt x="61" y="75" on="1"/>
        <pt x="137" y="75" on="1"/>
        <pt x="137" y="643" on="1"/>
        <pt x="61" y="643" on="1"/>
        <pt x="48" y="643" on="0"/>
        <pt x="48" y="655" on="1"/>
        <pt x="48" y="706" on="1"/>
        <pt x="48" y="718" on="0"/>
        <pt x="61" y="718" on="1"/>
        <pt x="201" y="718" on="1"/>
        <pt x="230" y="718" on="0"/>
        <pt x="252" y="684" on="1"/>
        <pt x="537" y="238" on="1"/>
        <pt x="594" y="141" on="1"/>
        <pt x="596" y="141" on="1"/>
        <pt x="596" y="643" on="1"/>
        <pt x="519" y="643" on="1"/>
        <pt x="507" y="643" on="0"/>
        <pt x="507" y="655" on="1"/>
        <pt x="507" y="706" on="1"/>
        <pt x="507" y="718" on="0"/>
        <pt x="519" y="718" on="1"/>
        <pt x="760" y="718" on="1"/>
        <pt x="772" y="718" on="0"/>
        <pt x="772" y="706" on="1"/>
        <pt x="772" y="655" on="1"/>
        <pt x="772" y="643" on="0"/>
        <pt x="760" y="643" on="1"/>
        <pt x="683" y="643" on="1"/>
        <pt x="683" y="12" on="1"/>
        <pt x="683" y="0" on="0"/>
      </contour>
    </TTGlyph>
    <TTGlyph name="Ncaron" xMin="48" yMin="0" xMax="772" yMax="992">
      <contour>
        <pt x="423" y="804" on="1"/>
        <pt x="418" y="799" on="0"/>
        <pt x="407" y="799" on="0"/>
        <pt x="403" y="803" on="1"/>
        <pt x="248" y="939" on="1"/>
        <pt x="239" y="947" on="0"/>
        <pt x="246" y="958" on="1"/>
        <pt x="271" y="986" on="1"/>
        <pt x="275" y="992" on="0"/>
        <pt x="285" y="992" on="0"/>
        <pt x="290" y="988" on="1"/>
        <pt x="412" y="883" on="1"/>
        <pt x="536" y="988" on="1"/>
        <pt x="541" y="992" on="0"/>
        <pt x="551" y="992" on="0"/>
        <pt x="555" y="986" on="1"/>
        <pt x="580" y="958" on="1"/>
        <pt x="586" y="949" on="0"/>
        <pt x="578" y="939" on="1"/>
      </contour>
      <contour>
        <pt x="670" y="0" on="1"/>
        <pt x="616" y="0" on="1"/>
        <pt x="597" y="0" on="0"/>
        <pt x="575" y="15" on="0"/>
        <pt x="565" y="31" on="1"/>
        <pt x="276" y="483" on="1"/>
        <pt x="226" y="567" on="1"/>
        <pt x="224" y="567" on="1"/>
        <pt x="224" y="75" on="1"/>
        <pt x="301" y="75" on="1"/>
        <pt x="314" y="75" on="0"/>
        <pt x="314" y="63" on="1"/>
        <pt x="314" y="12" on="1"/>
        <pt x="314" y="0" on="0"/>
        <pt x="301" y="0" on="1"/>
        <pt x="61" y="0" on="1"/>
        <pt x="48" y="0" on="0"/>
        <pt x="48" y="12" on="1"/>
        <pt x="48" y="63" on="1"/>
        <pt x="48" y="75" on="0"/>
        <pt x="61" y="75" on="1"/>
        <pt x="137" y="75" on="1"/>
        <pt x="137" y="643" on="1"/>
        <pt x="61" y="643" on="1"/>
        <pt x="48" y="643" on="0"/>
        <pt x="48" y="655" on="1"/>
        <pt x="48" y="706" on="1"/>
        <pt x="48" y="718" on="0"/>
        <pt x="61" y="718" on="1"/>
        <pt x="201" y="718" on="1"/>
        <pt x="230" y="718" on="0"/>
        <pt x="252" y="684" on="1"/>
        <pt x="537" y="238" on="1"/>
        <pt x="594" y="141" on="1"/>
        <pt x="596" y="141" on="1"/>
        <pt x="596" y="643" on="1"/>
        <pt x="519" y="643" on="1"/>
        <pt x="507" y="643" on="0"/>
        <pt x="507" y="655" on="1"/>
        <pt x="507" y="706" on="1"/>
        <pt x="507" y="718" on="0"/>
        <pt x="519" y="718" on="1"/>
        <pt x="760" y="718" on="1"/>
        <pt x="772" y="718" on="0"/>
        <pt x="772" y="706" on="1"/>
        <pt x="772" y="655" on="1"/>
        <pt x="772" y="643" on="0"/>
        <pt x="760" y="643" on="1"/>
        <pt x="683" y="643" on="1"/>
        <pt x="683" y="12" on="1"/>
        <pt x="683" y="0" on="0"/>
      </contour>
    </TTGlyph>
    <TTGlyph name="Ncommaaccent" xMin="48" yMin="-228" xMax="772" yMax="718">
      <contour>
        <pt x="379" y="-222" on="1"/>
        <pt x="379" y="-205" on="1"/>
        <pt x="379" y="-199" on="0"/>
        <pt x="402" y="-199" on="0"/>
        <pt x="427" y="-172" on="0"/>
        <pt x="427" y="-146" on="1"/>
        <pt x="425" y="-135" on="1"/>
        <pt x="420" y="-140" on="0"/>
        <pt x="388" y="-140" on="0"/>
        <pt x="363" y="-114" on="0"/>
        <pt x="363" y="-74" on="0"/>
        <pt x="390" y="-46" on="0"/>
        <pt x="436" y="-46" on="0"/>
        <pt x="465" y="-85" on="0"/>
        <pt x="465" y="-175" on="0"/>
        <pt x="421" y="-228" on="0"/>
        <pt x="386" y="-228" on="1"/>
        <pt x="379" y="-228" on="0"/>
      </contour>
      <contour>
        <pt x="670" y="0" on="1"/>
        <pt x="616" y="0" on="1"/>
        <pt x="597" y="0" on="0"/>
        <pt x="575" y="15" on="0"/>
        <pt x="565" y="31" on="1"/>
        <pt x="276" y="483" on="1"/>
        <pt x="226" y="567" on="1"/>
        <pt x="224" y="567" on="1"/>
        <pt x="224" y="75" on="1"/>
        <pt x="301" y="75" on="1"/>
        <pt x="314" y="75" on="0"/>
        <pt x="314" y="63" on="1"/>
        <pt x="314" y="12" on="1"/>
        <pt x="314" y="0" on="0"/>
        <pt x="301" y="0" on="1"/>
        <pt x="61" y="0" on="1"/>
        <pt x="48" y="0" on="0"/>
        <pt x="48" y="12" on="1"/>
        <pt x="48" y="63" on="1"/>
        <pt x="48" y="75" on="0"/>
        <pt x="61" y="75" on="1"/>
        <pt x="137" y="75" on="1"/>
        <pt x="137" y="643" on="1"/>
        <pt x="61" y="643" on="1"/>
        <pt x="48" y="643" on="0"/>
        <pt x="48" y="655" on="1"/>
        <pt x="48" y="706" on="1"/>
        <pt x="48" y="718" on="0"/>
        <pt x="61" y="718" on="1"/>
        <pt x="201" y="718" on="1"/>
        <pt x="230" y="718" on="0"/>
        <pt x="252" y="684" on="1"/>
        <pt x="537" y="238" on="1"/>
        <pt x="594" y="141" on="1"/>
        <pt x="596" y="141" on="1"/>
        <pt x="596" y="643" on="1"/>
        <pt x="519" y="643" on="1"/>
        <pt x="507" y="643" on="0"/>
        <pt x="507" y="655" on="1"/>
        <pt x="507" y="706" on="1"/>
        <pt x="507" y="718" on="0"/>
        <pt x="519" y="718" on="1"/>
        <pt x="760" y="718" on="1"/>
        <pt x="772" y="718" on="0"/>
        <pt x="772" y="706" on="1"/>
        <pt x="772" y="655" on="1"/>
        <pt x="772" y="643" on="0"/>
        <pt x="760" y="643" on="1"/>
        <pt x="683" y="643" on="1"/>
        <pt x="683" y="12" on="1"/>
        <pt x="683" y="0" on="0"/>
      </contour>
    </TTGlyph>
    <TTGlyph name="Ntilde" xMin="48" yMin="0" xMax="772" yMax="910">
      <contour>
        <pt x="670" y="0" on="1"/>
        <pt x="616" y="0" on="1"/>
        <pt x="597" y="0" on="0"/>
        <pt x="575" y="15" on="0"/>
        <pt x="565" y="31" on="1"/>
        <pt x="276" y="483" on="1"/>
        <pt x="226" y="567" on="1"/>
        <pt x="224" y="567" on="1"/>
        <pt x="224" y="75" on="1"/>
        <pt x="301" y="75" on="1"/>
        <pt x="314" y="75" on="0"/>
        <pt x="314" y="63" on="1"/>
        <pt x="314" y="12" on="1"/>
        <pt x="314" y="0" on="0"/>
        <pt x="301" y="0" on="1"/>
        <pt x="61" y="0" on="1"/>
        <pt x="48" y="0" on="0"/>
        <pt x="48" y="12" on="1"/>
        <pt x="48" y="63" on="1"/>
        <pt x="48" y="75" on="0"/>
        <pt x="61" y="75" on="1"/>
        <pt x="137" y="75" on="1"/>
        <pt x="137" y="643" on="1"/>
        <pt x="61" y="643" on="1"/>
        <pt x="48" y="643" on="0"/>
        <pt x="48" y="655" on="1"/>
        <pt x="48" y="706" on="1"/>
        <pt x="48" y="718" on="0"/>
        <pt x="61" y="718" on="1"/>
        <pt x="201" y="718" on="1"/>
        <pt x="230" y="718" on="0"/>
        <pt x="252" y="684" on="1"/>
        <pt x="537" y="238" on="1"/>
        <pt x="594" y="141" on="1"/>
        <pt x="596" y="141" on="1"/>
        <pt x="596" y="643" on="1"/>
        <pt x="519" y="643" on="1"/>
        <pt x="507" y="643" on="0"/>
        <pt x="507" y="655" on="1"/>
        <pt x="507" y="706" on="1"/>
        <pt x="507" y="718" on="0"/>
        <pt x="519" y="718" on="1"/>
        <pt x="760" y="718" on="1"/>
        <pt x="772" y="718" on="0"/>
        <pt x="772" y="706" on="1"/>
        <pt x="772" y="655" on="1"/>
        <pt x="772" y="643" on="0"/>
        <pt x="760" y="643" on="1"/>
        <pt x="683" y="643" on="1"/>
        <pt x="683" y="12" on="1"/>
        <pt x="683" y="0" on="0"/>
      </contour>
      <contour>
        <pt x="539" y="910" on="1"/>
        <pt x="563" y="910" on="1"/>
        <pt x="575" y="910" on="0"/>
        <pt x="575" y="898" on="1"/>
        <pt x="575" y="785" on="0"/>
        <pt x="488" y="785" on="1"/>
        <pt x="456" y="785" on="0"/>
        <pt x="407" y="816" on="0"/>
        <pt x="368" y="848" on="0"/>
        <pt x="329" y="848" on="0"/>
        <pt x="309" y="823" on="0"/>
        <pt x="309" y="791" on="1"/>
        <pt x="309" y="779" on="0"/>
        <pt x="297" y="779" on="1"/>
        <pt x="273" y="779" on="1"/>
        <pt x="261" y="779" on="0"/>
        <pt x="261" y="791" on="1"/>
        <pt x="261" y="899" on="0"/>
        <pt x="347" y="899" on="1"/>
        <pt x="384" y="899" on="0"/>
        <pt x="464" y="833" on="0"/>
        <pt x="509" y="833" on="0"/>
        <pt x="527" y="861" on="0"/>
        <pt x="527" y="898" on="1"/>
        <pt x="527" y="910" on="0"/>
      </contour>
    </TTGlyph>
    <TTGlyph name="O" xMin="48" yMin="-7" xMax="744" yMax="724">
      <contour>
        <pt x="744" y="198" on="0"/>
        <pt x="547" y="-7" on="0"/>
        <pt x="248" y="-7" on="0"/>
        <pt x="48" y="200" on="0"/>
        <pt x="48" y="527" on="0"/>
        <pt x="254" y="724" on="0"/>
        <pt x="540" y="724" on="0"/>
        <pt x="744" y="527" on="0"/>
      </contour>
      <contour>
        <pt x="295" y="74" on="0"/>
        <pt x="499" y="74" on="0"/>
        <pt x="651" y="227" on="0"/>
        <pt x="651" y="494" on="0"/>
        <pt x="496" y="645" on="0"/>
        <pt x="298" y="645" on="0"/>
        <pt x="142" y="494" on="0"/>
        <pt x="142" y="227" on="0"/>
      </contour>
    </TTGlyph>
    <TTGlyph name="OE" xMin="48" yMin="0" xMax="859" yMax="718">
      <contour>
        <pt x="847" y="0" on="1"/>
        <pt x="393" y="0" on="1"/>
        <pt x="245" y="0" on="0"/>
        <pt x="48" y="202" on="0"/>
        <pt x="48" y="526" on="0"/>
        <pt x="250" y="717" on="0"/>
        <pt x="392" y="718" on="1"/>
        <pt x="847" y="718" on="1"/>
        <pt x="859" y="718" on="0"/>
        <pt x="859" y="706" on="1"/>
        <pt x="859" y="545" on="1"/>
        <pt x="859" y="532" on="0"/>
        <pt x="847" y="532" on="1"/>
        <pt x="792" y="532" on="1"/>
        <pt x="780" y="532" on="0"/>
        <pt x="780" y="545" on="1"/>
        <pt x="780" y="643" on="1"/>
        <pt x="479" y="643" on="1"/>
        <pt x="479" y="395" on="1"/>
        <pt x="732" y="395" on="1"/>
        <pt x="744" y="395" on="0"/>
        <pt x="744" y="383" on="1"/>
        <pt x="744" y="332" on="1"/>
        <pt x="744" y="320" on="0"/>
        <pt x="732" y="320" on="1"/>
        <pt x="479" y="320" on="1"/>
        <pt x="479" y="75" on="1"/>
        <pt x="780" y="75" on="1"/>
        <pt x="780" y="173" on="1"/>
        <pt x="780" y="185" on="0"/>
        <pt x="792" y="185" on="1"/>
        <pt x="847" y="185" on="1"/>
        <pt x="859" y="185" on="0"/>
        <pt x="859" y="173" on="1"/>
        <pt x="859" y="12" on="1"/>
        <pt x="859" y="0" on="0"/>
      </contour>
      <contour>
        <pt x="142" y="492" on="0"/>
        <pt x="142" y="228" on="0"/>
        <pt x="290" y="81" on="0"/>
        <pt x="392" y="79" on="1"/>
        <pt x="392" y="639" on="1"/>
        <pt x="293" y="636" on="0"/>
      </contour>
    </TTGlyph>
    <TTGlyph name="Oacute" xMin="48" yMin="-7" xMax="744" yMax="995">
      <contour>
        <pt x="450" y="990" on="1"/>
        <pt x="454" y="994" on="0"/>
        <pt x="464" y="994" on="0"/>
        <pt x="469" y="989" on="1"/>
        <pt x="500" y="951" on="1"/>
        <pt x="508" y="941" on="0"/>
        <pt x="499" y="932" on="1"/>
        <pt x="331" y="798" on="1"/>
        <pt x="319" y="791" on="0"/>
        <pt x="312" y="801" on="1"/>
        <pt x="287" y="830" on="1"/>
        <pt x="278" y="841" on="0"/>
        <pt x="289" y="849" on="1"/>
      </contour>
      <contour>
        <pt x="744" y="198" on="0"/>
        <pt x="547" y="-7" on="0"/>
        <pt x="248" y="-7" on="0"/>
        <pt x="48" y="200" on="0"/>
        <pt x="48" y="527" on="0"/>
        <pt x="254" y="724" on="0"/>
        <pt x="540" y="724" on="0"/>
        <pt x="744" y="527" on="0"/>
      </contour>
      <contour>
        <pt x="295" y="74" on="0"/>
        <pt x="499" y="74" on="0"/>
        <pt x="651" y="227" on="0"/>
        <pt x="651" y="494" on="0"/>
        <pt x="496" y="645" on="0"/>
        <pt x="298" y="645" on="0"/>
        <pt x="142" y="494" on="0"/>
        <pt x="142" y="227" on="0"/>
      </contour>
    </TTGlyph>
    <TTGlyph name="Obreve" xMin="48" yMin="-7" xMax="744" yMax="941">
      <contour>
        <pt x="744" y="198" on="0"/>
        <pt x="547" y="-7" on="0"/>
        <pt x="248" y="-7" on="0"/>
        <pt x="48" y="200" on="0"/>
        <pt x="48" y="527" on="0"/>
        <pt x="254" y="724" on="0"/>
        <pt x="540" y="724" on="0"/>
        <pt x="744" y="527" on="0"/>
      </contour>
      <contour>
        <pt x="295" y="74" on="0"/>
        <pt x="499" y="74" on="0"/>
        <pt x="651" y="227" on="0"/>
        <pt x="651" y="494" on="0"/>
        <pt x="496" y="645" on="0"/>
        <pt x="298" y="645" on="0"/>
        <pt x="142" y="494" on="0"/>
        <pt x="142" y="227" on="0"/>
      </contour>
      <contour>
        <pt x="493" y="941" on="1"/>
        <pt x="525" y="941" on="1"/>
        <pt x="538" y="941" on="0"/>
        <pt x="538" y="928" on="1"/>
        <pt x="538" y="861" on="0"/>
        <pt x="460" y="789" on="0"/>
        <pt x="335" y="789" on="0"/>
        <pt x="258" y="861" on="0"/>
        <pt x="258" y="928" on="1"/>
        <pt x="258" y="941" on="0"/>
        <pt x="271" y="941" on="1"/>
        <pt x="303" y="941" on="1"/>
        <pt x="316" y="941" on="0"/>
        <pt x="316" y="928" on="1"/>
        <pt x="316" y="887" on="0"/>
        <pt x="362" y="840" on="0"/>
        <pt x="432" y="840" on="0"/>
        <pt x="480" y="887" on="0"/>
        <pt x="480" y="928" on="1"/>
        <pt x="480" y="941" on="0"/>
      </contour>
    </TTGlyph>
    <TTGlyph name="Ocircumflex" xMin="48" yMin="-7" xMax="744" yMax="989">
      <contour>
        <pt x="386" y="985" on="1"/>
        <pt x="390" y="989" on="0"/>
        <pt x="401" y="989" on="0"/>
        <pt x="406" y="984" on="1"/>
        <pt x="561" y="849" on="1"/>
        <pt x="569" y="839" on="0"/>
        <pt x="563" y="830" on="1"/>
        <pt x="538" y="801" on="1"/>
        <pt x="530" y="791" on="0"/>
        <pt x="519" y="799" on="1"/>
        <pt x="395" y="904" on="1"/>
        <pt x="273" y="799" on="1"/>
        <pt x="263" y="790" on="0"/>
        <pt x="254" y="801" on="1"/>
        <pt x="229" y="830" on="1"/>
        <pt x="222" y="841" on="0"/>
        <pt x="231" y="849" on="1"/>
      </contour>
      <contour>
        <pt x="744" y="198" on="0"/>
        <pt x="547" y="-7" on="0"/>
        <pt x="248" y="-7" on="0"/>
        <pt x="48" y="200" on="0"/>
        <pt x="48" y="527" on="0"/>
        <pt x="254" y="724" on="0"/>
        <pt x="540" y="724" on="0"/>
        <pt x="744" y="527" on="0"/>
      </contour>
      <contour>
        <pt x="295" y="74" on="0"/>
        <pt x="499" y="74" on="0"/>
        <pt x="651" y="227" on="0"/>
        <pt x="651" y="494" on="0"/>
        <pt x="496" y="645" on="0"/>
        <pt x="298" y="645" on="0"/>
        <pt x="142" y="494" on="0"/>
        <pt x="142" y="227" on="0"/>
      </contour>
    </TTGlyph>
    <TTGlyph name="Odieresis" xMin="48" yMin="-7" xMax="744" yMax="867">
      <contour>
        <pt x="360" y="842" on="0"/>
        <pt x="360" y="806" on="0"/>
        <pt x="335" y="782" on="0"/>
        <pt x="299" y="782" on="0"/>
        <pt x="275" y="806" on="0"/>
        <pt x="275" y="842" on="0"/>
        <pt x="299" y="867" on="0"/>
        <pt x="335" y="867" on="0"/>
      </contour>
      <contour>
        <pt x="518" y="842" on="0"/>
        <pt x="518" y="806" on="0"/>
        <pt x="493" y="782" on="0"/>
        <pt x="457" y="782" on="0"/>
        <pt x="433" y="806" on="0"/>
        <pt x="433" y="842" on="0"/>
        <pt x="457" y="867" on="0"/>
        <pt x="493" y="867" on="0"/>
      </contour>
      <contour>
        <pt x="744" y="198" on="0"/>
        <pt x="547" y="-7" on="0"/>
        <pt x="248" y="-7" on="0"/>
        <pt x="48" y="200" on="0"/>
        <pt x="48" y="527" on="0"/>
        <pt x="254" y="724" on="0"/>
        <pt x="540" y="724" on="0"/>
        <pt x="744" y="527" on="0"/>
      </contour>
      <contour>
        <pt x="295" y="74" on="0"/>
        <pt x="499" y="74" on="0"/>
        <pt x="651" y="227" on="0"/>
        <pt x="651" y="494" on="0"/>
        <pt x="496" y="645" on="0"/>
        <pt x="298" y="645" on="0"/>
        <pt x="142" y="494" on="0"/>
        <pt x="142" y="227" on="0"/>
      </contour>
    </TTGlyph>
    <TTGlyph name="Ograve" xMin="48" yMin="-7" xMax="744" yMax="996">
      <contour>
        <pt x="744" y="198" on="0"/>
        <pt x="547" y="-7" on="0"/>
        <pt x="248" y="-7" on="0"/>
        <pt x="48" y="200" on="0"/>
        <pt x="48" y="527" on="0"/>
        <pt x="254" y="724" on="0"/>
        <pt x="540" y="724" on="0"/>
        <pt x="744" y="527" on="0"/>
      </contour>
      <contour>
        <pt x="295" y="74" on="0"/>
        <pt x="499" y="74" on="0"/>
        <pt x="651" y="227" on="0"/>
        <pt x="651" y="494" on="0"/>
        <pt x="496" y="645" on="0"/>
        <pt x="298" y="645" on="0"/>
        <pt x="142" y="494" on="0"/>
        <pt x="142" y="227" on="0"/>
      </contour>
      <contour>
        <pt x="450" y="801" on="1"/>
        <pt x="445" y="795" on="0"/>
        <pt x="435" y="795" on="0"/>
        <pt x="431" y="799" on="1"/>
        <pt x="263" y="933" on="1"/>
        <pt x="258" y="937" on="0"/>
        <pt x="258" y="947" on="0"/>
        <pt x="261" y="952" on="1"/>
        <pt x="293" y="989" on="1"/>
        <pt x="298" y="995" on="0"/>
        <pt x="308" y="995" on="0"/>
        <pt x="312" y="991" on="1"/>
        <pt x="473" y="849" on="1"/>
        <pt x="479" y="845" on="0"/>
        <pt x="479" y="835" on="0"/>
        <pt x="475" y="830" on="1"/>
      </contour>
    </TTGlyph>
    <TTGlyph name="Ohungarumlaut" xMin="48" yMin="-7" xMax="744" yMax="1004">
      <contour>
        <pt x="429" y="999" on="1"/>
        <pt x="433" y="1004" on="0"/>
        <pt x="442" y="1004" on="0"/>
        <pt x="448" y="998" on="1"/>
        <pt x="479" y="960" on="1"/>
        <pt x="487" y="949" on="0"/>
        <pt x="478" y="941" on="1"/>
        <pt x="310" y="807" on="1"/>
        <pt x="298" y="800" on="0"/>
        <pt x="291" y="810" on="1"/>
        <pt x="266" y="839" on="1"/>
        <pt x="257" y="850" on="0"/>
        <pt x="268" y="858" on="1"/>
      </contour>
      <contour>
        <pt x="601" y="999" on="1"/>
        <pt x="606" y="1004" on="0"/>
        <pt x="615" y="1004" on="0"/>
        <pt x="620" y="998" on="1"/>
        <pt x="652" y="960" on="1"/>
        <pt x="659" y="948" on="0"/>
        <pt x="650" y="941" on="1"/>
        <pt x="482" y="807" on="1"/>
        <pt x="472" y="800" on="0"/>
        <pt x="463" y="810" on="1"/>
        <pt x="438" y="839" on="1"/>
        <pt x="429" y="850" on="0"/>
        <pt x="440" y="858" on="1"/>
      </contour>
      <contour>
        <pt x="744" y="198" on="0"/>
        <pt x="547" y="-7" on="0"/>
        <pt x="248" y="-7" on="0"/>
        <pt x="48" y="200" on="0"/>
        <pt x="48" y="527" on="0"/>
        <pt x="254" y="724" on="0"/>
        <pt x="540" y="724" on="0"/>
        <pt x="744" y="527" on="0"/>
      </contour>
      <contour>
        <pt x="295" y="74" on="0"/>
        <pt x="499" y="74" on="0"/>
        <pt x="651" y="227" on="0"/>
        <pt x="651" y="494" on="0"/>
        <pt x="496" y="645" on="0"/>
        <pt x="298" y="645" on="0"/>
        <pt x="142" y="494" on="0"/>
        <pt x="142" y="227" on="0"/>
      </contour>
    </TTGlyph>
    <TTGlyph name="Omacron" xMin="48" yMin="-7" xMax="744" yMax="849">
      <contour>
        <pt x="546" y="780" on="1"/>
        <pt x="250" y="780" on="1"/>
        <pt x="237" y="780" on="0"/>
        <pt x="237" y="793" on="1"/>
        <pt x="237" y="835" on="1"/>
        <pt x="237" y="849" on="0"/>
        <pt x="250" y="849" on="1"/>
        <pt x="546" y="849" on="1"/>
        <pt x="559" y="849" on="0"/>
        <pt x="559" y="835" on="1"/>
        <pt x="559" y="793" on="1"/>
        <pt x="559" y="780" on="0"/>
      </contour>
      <contour>
        <pt x="744" y="198" on="0"/>
        <pt x="547" y="-7" on="0"/>
        <pt x="248" y="-7" on="0"/>
        <pt x="48" y="200" on="0"/>
        <pt x="48" y="527" on="0"/>
        <pt x="254" y="724" on="0"/>
        <pt x="540" y="724" on="0"/>
        <pt x="744" y="527" on="0"/>
      </contour>
      <contour>
        <pt x="295" y="74" on="0"/>
        <pt x="499" y="74" on="0"/>
        <pt x="651" y="227" on="0"/>
        <pt x="651" y="494" on="0"/>
        <pt x="496" y="645" on="0"/>
        <pt x="298" y="645" on="0"/>
        <pt x="142" y="494" on="0"/>
        <pt x="142" y="227" on="0"/>
      </contour>
    </TTGlyph>
    <TTGlyph name="Oslash" xMin="48" yMin="-51" xMax="744" yMax="783">
      <contour>
        <pt x="308" y="-51" on="1"/>
        <pt x="248" y="-51" on="1"/>
        <pt x="236" y="-51" on="0"/>
        <pt x="239" y="-39" on="1"/>
        <pt x="257" y="21" on="1"/>
        <pt x="161" y="62" on="0"/>
        <pt x="48" y="242" on="0"/>
        <pt x="48" y="363" on="1"/>
        <pt x="48" y="527" on="0"/>
        <pt x="254" y="724" on="0"/>
        <pt x="397" y="724" on="1"/>
        <pt x="430" y="724" on="0"/>
        <pt x="465" y="716" on="1"/>
        <pt x="482" y="771" on="1"/>
        <pt x="485" y="783" on="0"/>
        <pt x="498" y="783" on="1"/>
        <pt x="557" y="783" on="1"/>
        <pt x="569" y="783" on="0"/>
        <pt x="566" y="771" on="1"/>
        <pt x="543" y="693" on="1"/>
        <pt x="634" y="653" on="0"/>
        <pt x="744" y="482" on="0"/>
        <pt x="744" y="363" on="1"/>
        <pt x="744" y="198" on="0"/>
        <pt x="547" y="-7" on="0"/>
        <pt x="397" y="-7" on="1"/>
        <pt x="367" y="-7" on="0"/>
        <pt x="335" y="1" on="1"/>
        <pt x="323" y="-39" on="1"/>
        <pt x="320" y="-51" on="0"/>
      </contour>
      <contour>
        <pt x="142" y="360" on="1"/>
        <pt x="142" y="268" on="0"/>
        <pt x="220" y="139" on="0"/>
        <pt x="282" y="107" on="1"/>
        <pt x="442" y="636" on="1"/>
        <pt x="417" y="644" on="0"/>
        <pt x="388" y="644" on="1"/>
        <pt x="292" y="641" on="0"/>
        <pt x="142" y="491" on="0"/>
      </contour>
      <contour>
        <pt x="651" y="360" on="1"/>
        <pt x="651" y="449" on="0"/>
        <pt x="576" y="574" on="0"/>
        <pt x="517" y="606" on="1"/>
        <pt x="359" y="81" on="1"/>
        <pt x="383" y="75" on="0"/>
        <pt x="409" y="75" on="1"/>
        <pt x="507" y="80" on="0"/>
        <pt x="651" y="230" on="0"/>
      </contour>
    </TTGlyph>
    <TTGlyph name="Oslashacute" xMin="48" yMin="-51" xMax="744" yMax="999">
      <contour>
        <pt x="308" y="-51" on="1"/>
        <pt x="248" y="-51" on="1"/>
        <pt x="236" y="-51" on="0"/>
        <pt x="239" y="-39" on="1"/>
        <pt x="257" y="21" on="1"/>
        <pt x="161" y="62" on="0"/>
        <pt x="48" y="242" on="0"/>
        <pt x="48" y="363" on="1"/>
        <pt x="48" y="527" on="0"/>
        <pt x="254" y="724" on="0"/>
        <pt x="397" y="724" on="1"/>
        <pt x="430" y="724" on="0"/>
        <pt x="465" y="716" on="1"/>
        <pt x="482" y="771" on="1"/>
        <pt x="485" y="783" on="0"/>
        <pt x="498" y="783" on="1"/>
        <pt x="557" y="783" on="1"/>
        <pt x="569" y="783" on="0"/>
        <pt x="566" y="771" on="1"/>
        <pt x="543" y="693" on="1"/>
        <pt x="634" y="653" on="0"/>
        <pt x="744" y="482" on="0"/>
        <pt x="744" y="363" on="1"/>
        <pt x="744" y="198" on="0"/>
        <pt x="547" y="-7" on="0"/>
        <pt x="397" y="-7" on="1"/>
        <pt x="367" y="-7" on="0"/>
        <pt x="335" y="1" on="1"/>
        <pt x="323" y="-39" on="1"/>
        <pt x="320" y="-51" on="0"/>
      </contour>
      <contour>
        <pt x="142" y="360" on="1"/>
        <pt x="142" y="268" on="0"/>
        <pt x="220" y="139" on="0"/>
        <pt x="282" y="107" on="1"/>
        <pt x="442" y="636" on="1"/>
        <pt x="417" y="644" on="0"/>
        <pt x="388" y="644" on="1"/>
        <pt x="292" y="641" on="0"/>
        <pt x="142" y="491" on="0"/>
      </contour>
      <contour>
        <pt x="651" y="360" on="1"/>
        <pt x="651" y="449" on="0"/>
        <pt x="576" y="574" on="0"/>
        <pt x="517" y="606" on="1"/>
        <pt x="359" y="81" on="1"/>
        <pt x="383" y="75" on="0"/>
        <pt x="409" y="75" on="1"/>
        <pt x="507" y="80" on="0"/>
        <pt x="651" y="230" on="0"/>
      </contour>
      <contour>
        <pt x="398" y="802" on="1"/>
        <pt x="393" y="799" on="0"/>
        <pt x="383" y="799" on="0"/>
        <pt x="379" y="805" on="1"/>
        <pt x="354" y="834" on="1"/>
        <pt x="350" y="839" on="0"/>
        <pt x="350" y="849" on="0"/>
        <pt x="356" y="853" on="1"/>
        <pt x="517" y="994" on="1"/>
        <pt x="521" y="998" on="0"/>
        <pt x="531" y="998" on="0"/>
        <pt x="536" y="993" on="1"/>
        <pt x="567" y="955" on="1"/>
        <pt x="571" y="950" on="0"/>
        <pt x="571" y="941" on="0"/>
        <pt x="566" y="936" on="1"/>
      </contour>
    </TTGlyph>
    <TTGlyph name="Otilde" xMin="48" yMin="-7" xMax="744" yMax="910">
      <contour>
        <pt x="744" y="198" on="0"/>
        <pt x="547" y="-7" on="0"/>
        <pt x="248" y="-7" on="0"/>
        <pt x="48" y="200" on="0"/>
        <pt x="48" y="527" on="0"/>
        <pt x="254" y="724" on="0"/>
        <pt x="540" y="724" on="0"/>
        <pt x="744" y="527" on="0"/>
      </contour>
      <contour>
        <pt x="295" y="74" on="0"/>
        <pt x="499" y="74" on="0"/>
        <pt x="651" y="227" on="0"/>
        <pt x="651" y="494" on="0"/>
        <pt x="496" y="645" on="0"/>
        <pt x="298" y="645" on="0"/>
        <pt x="142" y="494" on="0"/>
        <pt x="142" y="227" on="0"/>
      </contour>
      <contour>
        <pt x="524" y="910" on="1"/>
        <pt x="548" y="910" on="1"/>
        <pt x="560" y="910" on="0"/>
        <pt x="560" y="898" on="1"/>
        <pt x="560" y="785" on="0"/>
        <pt x="473" y="785" on="1"/>
        <pt x="441" y="785" on="0"/>
        <pt x="392" y="816" on="0"/>
        <pt x="353" y="848" on="0"/>
        <pt x="314" y="848" on="0"/>
        <pt x="294" y="823" on="0"/>
        <pt x="294" y="791" on="1"/>
        <pt x="294" y="779" on="0"/>
        <pt x="282" y="779" on="1"/>
        <pt x="258" y="779" on="1"/>
        <pt x="246" y="779" on="0"/>
        <pt x="246" y="791" on="1"/>
        <pt x="246" y="899" on="0"/>
        <pt x="332" y="899" on="1"/>
        <pt x="369" y="899" on="0"/>
        <pt x="449" y="833" on="0"/>
        <pt x="494" y="833" on="0"/>
        <pt x="512" y="861" on="0"/>
        <pt x="512" y="898" on="1"/>
        <pt x="512" y="910" on="0"/>
      </contour>
    </TTGlyph>
    <TTGlyph name="P" xMin="48" yMin="0" xMax="610" yMax="718">
      <contour>
        <pt x="322" y="0" on="1"/>
        <pt x="61" y="0" on="1"/>
        <pt x="48" y="0" on="0"/>
        <pt x="48" y="12" on="1"/>
        <pt x="48" y="63" on="1"/>
        <pt x="48" y="75" on="0"/>
        <pt x="61" y="75" on="1"/>
        <pt x="137" y="75" on="1"/>
        <pt x="137" y="643" on="1"/>
        <pt x="61" y="643" on="1"/>
        <pt x="48" y="643" on="0"/>
        <pt x="48" y="655" on="1"/>
        <pt x="48" y="706" on="1"/>
        <pt x="48" y="718" on="0"/>
        <pt x="61" y="718" on="1"/>
        <pt x="369" y="718" on="1"/>
        <pt x="475" y="718" on="0"/>
        <pt x="610" y="595" on="0"/>
        <pt x="610" y="386" on="0"/>
        <pt x="478" y="271" on="0"/>
        <pt x="358" y="271" on="1"/>
        <pt x="224" y="271" on="1"/>
        <pt x="224" y="75" on="1"/>
        <pt x="322" y="75" on="1"/>
        <pt x="334" y="75" on="0"/>
        <pt x="334" y="63" on="1"/>
        <pt x="334" y="12" on="1"/>
        <pt x="334" y="0" on="0"/>
      </contour>
      <contour>
        <pt x="224" y="342" on="1"/>
        <pt x="354" y="342" on="1"/>
        <pt x="522" y="342" on="0"/>
        <pt x="522" y="490" on="1"/>
        <pt x="522" y="567" on="0"/>
        <pt x="427" y="643" on="0"/>
        <pt x="355" y="643" on="1"/>
        <pt x="224" y="643" on="1"/>
      </contour>
    </TTGlyph>
    <TTGlyph name="Q" xMin="48" yMin="-109" xMax="744" yMax="724">
      <contour>
        <pt x="724" y="-82" on="1"/>
        <pt x="663" y="-109" on="0"/>
        <pt x="545" y="-109" on="0"/>
        <pt x="451" y="-86" on="0"/>
        <pt x="390" y="-53" on="0"/>
        <pt x="345" y="-19" on="0"/>
        <pt x="324" y="4" on="0"/>
        <pt x="325" y="4" on="1"/>
        <pt x="203" y="26" on="0"/>
        <pt x="48" y="221" on="0"/>
        <pt x="48" y="363" on="1"/>
        <pt x="48" y="527" on="0"/>
        <pt x="254" y="724" on="0"/>
        <pt x="540" y="724" on="0"/>
        <pt x="744" y="527" on="0"/>
        <pt x="744" y="208" on="0"/>
        <pt x="570" y="8" on="0"/>
        <pt x="433" y="-4" on="1"/>
        <pt x="490" y="-42" on="0"/>
        <pt x="599" y="-42" on="1"/>
        <pt x="656" y="-42" on="0"/>
        <pt x="702" y="-22" on="1"/>
        <pt x="713" y="-17" on="0"/>
        <pt x="716" y="-26" on="1"/>
        <pt x="731" y="-66" on="1"/>
        <pt x="734" y="-76" on="0"/>
      </contour>
      <contour>
        <pt x="142" y="227" on="0"/>
        <pt x="294" y="77" on="0"/>
        <pt x="499" y="77" on="0"/>
        <pt x="651" y="227" on="0"/>
        <pt x="651" y="494" on="0"/>
        <pt x="496" y="642" on="0"/>
        <pt x="397" y="642" on="1"/>
        <pt x="301" y="642" on="0"/>
        <pt x="225" y="574" on="1"/>
        <pt x="188" y="540" on="0"/>
        <pt x="142" y="429" on="0"/>
        <pt x="142" y="360" on="1"/>
      </contour>
    </TTGlyph>
    <TTGlyph name="R" xMin="48" yMin="0" xMax="667" yMax="718">
      <contour>
        <pt x="655" y="0" on="1"/>
        <pt x="568" y="0" on="1"/>
        <pt x="532" y="0" on="0"/>
        <pt x="508" y="48" on="1"/>
        <pt x="414" y="239" on="1"/>
        <pt x="402" y="264" on="0"/>
        <pt x="375" y="288" on="0"/>
        <pt x="351" y="289" on="1"/>
        <pt x="224" y="289" on="1"/>
        <pt x="224" y="75" on="1"/>
        <pt x="314" y="75" on="1"/>
        <pt x="326" y="75" on="0"/>
        <pt x="326" y="63" on="1"/>
        <pt x="326" y="12" on="1"/>
        <pt x="326" y="0" on="0"/>
        <pt x="314" y="0" on="1"/>
        <pt x="61" y="0" on="1"/>
        <pt x="48" y="0" on="0"/>
        <pt x="48" y="12" on="1"/>
        <pt x="48" y="63" on="1"/>
        <pt x="48" y="75" on="0"/>
        <pt x="61" y="75" on="1"/>
        <pt x="137" y="75" on="1"/>
        <pt x="137" y="643" on="1"/>
        <pt x="61" y="643" on="1"/>
        <pt x="48" y="643" on="0"/>
        <pt x="48" y="655" on="1"/>
        <pt x="48" y="706" on="1"/>
        <pt x="48" y="718" on="0"/>
        <pt x="61" y="718" on="1"/>
        <pt x="369" y="718" on="1"/>
        <pt x="476" y="718" on="0"/>
        <pt x="610" y="605" on="0"/>
        <pt x="610" y="502" on="1"/>
        <pt x="610" y="345" on="0"/>
        <pt x="463" y="306" on="1"/>
        <pt x="482" y="291" on="0"/>
        <pt x="510" y="239" on="1"/>
        <pt x="594" y="75" on="1"/>
        <pt x="655" y="75" on="1"/>
        <pt x="667" y="75" on="0"/>
        <pt x="667" y="63" on="1"/>
        <pt x="667" y="12" on="1"/>
        <pt x="667" y="0" on="0"/>
      </contour>
      <contour>
        <pt x="224" y="360" on="1"/>
        <pt x="352" y="360" on="1"/>
        <pt x="522" y="360" on="0"/>
        <pt x="522" y="499" on="1"/>
        <pt x="522" y="643" on="0"/>
        <pt x="352" y="643" on="1"/>
        <pt x="224" y="643" on="1"/>
      </contour>
    </TTGlyph>
    <TTGlyph name="Racute" xMin="48" yMin="0" xMax="667" yMax="995">
      <contour>
        <pt x="393" y="990" on="1"/>
        <pt x="397" y="994" on="0"/>
        <pt x="407" y="994" on="0"/>
        <pt x="412" y="989" on="1"/>
        <pt x="443" y="951" on="1"/>
        <pt x="451" y="941" on="0"/>
        <pt x="442" y="932" on="1"/>
        <pt x="274" y="798" on="1"/>
        <pt x="262" y="791" on="0"/>
        <pt x="255" y="801" on="1"/>
        <pt x="230" y="830" on="1"/>
        <pt x="221" y="841" on="0"/>
        <pt x="232" y="849" on="1"/>
      </contour>
      <contour>
        <pt x="655" y="0" on="1"/>
        <pt x="568" y="0" on="1"/>
        <pt x="532" y="0" on="0"/>
        <pt x="508" y="48" on="1"/>
        <pt x="414" y="239" on="1"/>
        <pt x="402" y="264" on="0"/>
        <pt x="375" y="288" on="0"/>
        <pt x="351" y="289" on="1"/>
        <pt x="224" y="289" on="1"/>
        <pt x="224" y="75" on="1"/>
        <pt x="314" y="75" on="1"/>
        <pt x="326" y="75" on="0"/>
        <pt x="326" y="63" on="1"/>
        <pt x="326" y="12" on="1"/>
        <pt x="326" y="0" on="0"/>
        <pt x="314" y="0" on="1"/>
        <pt x="61" y="0" on="1"/>
        <pt x="48" y="0" on="0"/>
        <pt x="48" y="12" on="1"/>
        <pt x="48" y="63" on="1"/>
        <pt x="48" y="75" on="0"/>
        <pt x="61" y="75" on="1"/>
        <pt x="137" y="75" on="1"/>
        <pt x="137" y="643" on="1"/>
        <pt x="61" y="643" on="1"/>
        <pt x="48" y="643" on="0"/>
        <pt x="48" y="655" on="1"/>
        <pt x="48" y="706" on="1"/>
        <pt x="48" y="718" on="0"/>
        <pt x="61" y="718" on="1"/>
        <pt x="369" y="718" on="1"/>
        <pt x="476" y="718" on="0"/>
        <pt x="610" y="605" on="0"/>
        <pt x="610" y="502" on="1"/>
        <pt x="610" y="345" on="0"/>
        <pt x="463" y="306" on="1"/>
        <pt x="482" y="291" on="0"/>
        <pt x="510" y="239" on="1"/>
        <pt x="594" y="75" on="1"/>
        <pt x="655" y="75" on="1"/>
        <pt x="667" y="75" on="0"/>
        <pt x="667" y="63" on="1"/>
        <pt x="667" y="12" on="1"/>
        <pt x="667" y="0" on="0"/>
      </contour>
      <contour>
        <pt x="224" y="360" on="1"/>
        <pt x="352" y="360" on="1"/>
        <pt x="522" y="360" on="0"/>
        <pt x="522" y="499" on="1"/>
        <pt x="522" y="643" on="0"/>
        <pt x="352" y="643" on="1"/>
        <pt x="224" y="643" on="1"/>
      </contour>
    </TTGlyph>
    <TTGlyph name="Rcaron" xMin="48" yMin="0" xMax="667" yMax="992">
      <contour>
        <pt x="342" y="804" on="1"/>
        <pt x="337" y="799" on="0"/>
        <pt x="326" y="799" on="0"/>
        <pt x="322" y="803" on="1"/>
        <pt x="167" y="939" on="1"/>
        <pt x="158" y="947" on="0"/>
        <pt x="165" y="958" on="1"/>
        <pt x="190" y="986" on="1"/>
        <pt x="194" y="992" on="0"/>
        <pt x="204" y="992" on="0"/>
        <pt x="209" y="988" on="1"/>
        <pt x="331" y="883" on="1"/>
        <pt x="455" y="988" on="1"/>
        <pt x="460" y="992" on="0"/>
        <pt x="470" y="992" on="0"/>
        <pt x="474" y="986" on="1"/>
        <pt x="499" y="958" on="1"/>
        <pt x="505" y="949" on="0"/>
        <pt x="497" y="939" on="1"/>
      </contour>
      <contour>
        <pt x="655" y="0" on="1"/>
        <pt x="568" y="0" on="1"/>
        <pt x="532" y="0" on="0"/>
        <pt x="508" y="48" on="1"/>
        <pt x="414" y="239" on="1"/>
        <pt x="402" y="264" on="0"/>
        <pt x="375" y="288" on="0"/>
        <pt x="351" y="289" on="1"/>
        <pt x="224" y="289" on="1"/>
        <pt x="224" y="75" on="1"/>
        <pt x="314" y="75" on="1"/>
        <pt x="326" y="75" on="0"/>
        <pt x="326" y="63" on="1"/>
        <pt x="326" y="12" on="1"/>
        <pt x="326" y="0" on="0"/>
        <pt x="314" y="0" on="1"/>
        <pt x="61" y="0" on="1"/>
        <pt x="48" y="0" on="0"/>
        <pt x="48" y="12" on="1"/>
        <pt x="48" y="63" on="1"/>
        <pt x="48" y="75" on="0"/>
        <pt x="61" y="75" on="1"/>
        <pt x="137" y="75" on="1"/>
        <pt x="137" y="643" on="1"/>
        <pt x="61" y="643" on="1"/>
        <pt x="48" y="643" on="0"/>
        <pt x="48" y="655" on="1"/>
        <pt x="48" y="706" on="1"/>
        <pt x="48" y="718" on="0"/>
        <pt x="61" y="718" on="1"/>
        <pt x="369" y="718" on="1"/>
        <pt x="476" y="718" on="0"/>
        <pt x="610" y="605" on="0"/>
        <pt x="610" y="502" on="1"/>
        <pt x="610" y="345" on="0"/>
        <pt x="463" y="306" on="1"/>
        <pt x="482" y="291" on="0"/>
        <pt x="510" y="239" on="1"/>
        <pt x="594" y="75" on="1"/>
        <pt x="655" y="75" on="1"/>
        <pt x="667" y="75" on="0"/>
        <pt x="667" y="63" on="1"/>
        <pt x="667" y="12" on="1"/>
        <pt x="667" y="0" on="0"/>
      </contour>
      <contour>
        <pt x="224" y="360" on="1"/>
        <pt x="352" y="360" on="1"/>
        <pt x="522" y="360" on="0"/>
        <pt x="522" y="499" on="1"/>
        <pt x="522" y="643" on="0"/>
        <pt x="352" y="643" on="1"/>
        <pt x="224" y="643" on="1"/>
      </contour>
    </TTGlyph>
    <TTGlyph name="Rcommaaccent" xMin="48" yMin="-228" xMax="667" yMax="718">
      <contour>
        <pt x="310" y="-222" on="1"/>
        <pt x="310" y="-205" on="1"/>
        <pt x="310" y="-199" on="0"/>
        <pt x="333" y="-199" on="0"/>
        <pt x="358" y="-172" on="0"/>
        <pt x="358" y="-146" on="1"/>
        <pt x="356" y="-135" on="1"/>
        <pt x="351" y="-140" on="0"/>
        <pt x="319" y="-140" on="0"/>
        <pt x="294" y="-114" on="0"/>
        <pt x="294" y="-74" on="0"/>
        <pt x="322" y="-46" on="0"/>
        <pt x="367" y="-46" on="0"/>
        <pt x="396" y="-85" on="0"/>
        <pt x="396" y="-175" on="0"/>
        <pt x="352" y="-228" on="0"/>
        <pt x="317" y="-228" on="1"/>
        <pt x="310" y="-228" on="0"/>
      </contour>
      <contour>
        <pt x="655" y="0" on="1"/>
        <pt x="568" y="0" on="1"/>
        <pt x="532" y="0" on="0"/>
        <pt x="508" y="48" on="1"/>
        <pt x="414" y="239" on="1"/>
        <pt x="402" y="264" on="0"/>
        <pt x="375" y="288" on="0"/>
        <pt x="351" y="289" on="1"/>
        <pt x="224" y="289" on="1"/>
        <pt x="224" y="75" on="1"/>
        <pt x="314" y="75" on="1"/>
        <pt x="326" y="75" on="0"/>
        <pt x="326" y="63" on="1"/>
        <pt x="326" y="12" on="1"/>
        <pt x="326" y="0" on="0"/>
        <pt x="314" y="0" on="1"/>
        <pt x="61" y="0" on="1"/>
        <pt x="48" y="0" on="0"/>
        <pt x="48" y="12" on="1"/>
        <pt x="48" y="63" on="1"/>
        <pt x="48" y="75" on="0"/>
        <pt x="61" y="75" on="1"/>
        <pt x="137" y="75" on="1"/>
        <pt x="137" y="643" on="1"/>
        <pt x="61" y="643" on="1"/>
        <pt x="48" y="643" on="0"/>
        <pt x="48" y="655" on="1"/>
        <pt x="48" y="706" on="1"/>
        <pt x="48" y="718" on="0"/>
        <pt x="61" y="718" on="1"/>
        <pt x="369" y="718" on="1"/>
        <pt x="476" y="718" on="0"/>
        <pt x="610" y="605" on="0"/>
        <pt x="610" y="502" on="1"/>
        <pt x="610" y="345" on="0"/>
        <pt x="463" y="306" on="1"/>
        <pt x="482" y="291" on="0"/>
        <pt x="510" y="239" on="1"/>
        <pt x="594" y="75" on="1"/>
        <pt x="655" y="75" on="1"/>
        <pt x="667" y="75" on="0"/>
        <pt x="667" y="63" on="1"/>
        <pt x="667" y="12" on="1"/>
        <pt x="667" y="0" on="0"/>
      </contour>
      <contour>
        <pt x="224" y="360" on="1"/>
        <pt x="352" y="360" on="1"/>
        <pt x="522" y="360" on="0"/>
        <pt x="522" y="499" on="1"/>
        <pt x="522" y="643" on="0"/>
        <pt x="352" y="643" on="1"/>
        <pt x="224" y="643" on="1"/>
      </contour>
    </TTGlyph>
    <TTGlyph name="S" xMin="48" yMin="-7" xMax="618" yMax="724">
      <contour>
        <pt x="117" y="0" on="1"/>
        <pt x="61" y="0" on="1"/>
        <pt x="48" y="0" on="0"/>
        <pt x="48" y="12" on="1"/>
        <pt x="48" y="246" on="1"/>
        <pt x="48" y="259" on="0"/>
        <pt x="61" y="259" on="1"/>
        <pt x="124" y="259" on="1"/>
        <pt x="136" y="259" on="0"/>
        <pt x="136" y="246" on="1"/>
        <pt x="136" y="225" on="1"/>
        <pt x="136" y="206" on="0"/>
        <pt x="182" y="143" on="0"/>
        <pt x="228" y="103" on="0"/>
        <pt x="305" y="74" on="0"/>
        <pt x="350" y="74" on="1"/>
        <pt x="427" y="74" on="0"/>
        <pt x="514" y="138" on="0"/>
        <pt x="514" y="195" on="1"/>
        <pt x="514" y="228" on="0"/>
        <pt x="465" y="275" on="0"/>
        <pt x="387" y="303" on="0"/>
        <pt x="292" y="327" on="0"/>
        <pt x="197" y="358" on="0"/>
        <pt x="119" y="401" on="0"/>
        <pt x="70" y="478" on="0"/>
        <pt x="70" y="530" on="1"/>
        <pt x="70" y="614" on="0"/>
        <pt x="197" y="724" on="0"/>
        <pt x="304" y="724" on="1"/>
        <pt x="439" y="724" on="0"/>
        <pt x="502" y="645" on="1"/>
        <pt x="500" y="707" on="1"/>
        <pt x="500" y="719" on="0"/>
        <pt x="513" y="719" on="1"/>
        <pt x="569" y="719" on="1"/>
        <pt x="581" y="719" on="0"/>
        <pt x="581" y="707" on="1"/>
        <pt x="581" y="489" on="1"/>
        <pt x="581" y="477" on="0"/>
        <pt x="569" y="477" on="1"/>
        <pt x="506" y="477" on="1"/>
        <pt x="494" y="477" on="0"/>
        <pt x="494" y="489" on="1"/>
        <pt x="494" y="517" on="1"/>
        <pt x="494" y="558" on="0"/>
        <pt x="402" y="642" on="0"/>
        <pt x="313" y="642" on="1"/>
        <pt x="247" y="642" on="0"/>
        <pt x="166" y="579" on="0"/>
        <pt x="166" y="530" on="1"/>
        <pt x="166" y="495" on="0"/>
        <pt x="216" y="445" on="0"/>
        <pt x="296" y="415" on="0"/>
        <pt x="392" y="390" on="0"/>
        <pt x="488" y="360" on="0"/>
        <pt x="568" y="318" on="0"/>
        <pt x="618" y="245" on="0"/>
        <pt x="618" y="195" on="1"/>
        <pt x="618" y="107" on="0"/>
        <pt x="492" y="-7" on="0"/>
        <pt x="367" y="-7" on="1"/>
        <pt x="275" y="-7" on="0"/>
        <pt x="155" y="67" on="0"/>
        <pt x="128" y="110" on="1"/>
        <pt x="129" y="12" on="1"/>
        <pt x="129" y="0" on="0"/>
      </contour>
    </TTGlyph>
    <TTGlyph name="Sacute" xMin="48" yMin="-7" xMax="618" yMax="995">
      <contour>
        <pt x="411" y="990" on="1"/>
        <pt x="415" y="994" on="0"/>
        <pt x="425" y="994" on="0"/>
        <pt x="430" y="989" on="1"/>
        <pt x="461" y="951" on="1"/>
        <pt x="469" y="941" on="0"/>
        <pt x="460" y="932" on="1"/>
        <pt x="292" y="798" on="1"/>
        <pt x="280" y="791" on="0"/>
        <pt x="273" y="801" on="1"/>
        <pt x="248" y="830" on="1"/>
        <pt x="239" y="841" on="0"/>
        <pt x="250" y="849" on="1"/>
      </contour>
      <contour>
        <pt x="117" y="0" on="1"/>
        <pt x="61" y="0" on="1"/>
        <pt x="48" y="0" on="0"/>
        <pt x="48" y="12" on="1"/>
        <pt x="48" y="246" on="1"/>
        <pt x="48" y="259" on="0"/>
        <pt x="61" y="259" on="1"/>
        <pt x="124" y="259" on="1"/>
        <pt x="136" y="259" on="0"/>
        <pt x="136" y="246" on="1"/>
        <pt x="136" y="225" on="1"/>
        <pt x="136" y="206" on="0"/>
        <pt x="182" y="143" on="0"/>
        <pt x="228" y="103" on="0"/>
        <pt x="305" y="74" on="0"/>
        <pt x="350" y="74" on="1"/>
        <pt x="427" y="74" on="0"/>
        <pt x="514" y="138" on="0"/>
        <pt x="514" y="195" on="1"/>
        <pt x="514" y="228" on="0"/>
        <pt x="465" y="275" on="0"/>
        <pt x="387" y="303" on="0"/>
        <pt x="292" y="327" on="0"/>
        <pt x="197" y="358" on="0"/>
        <pt x="119" y="401" on="0"/>
        <pt x="70" y="478" on="0"/>
        <pt x="70" y="530" on="1"/>
        <pt x="70" y="614" on="0"/>
        <pt x="197" y="724" on="0"/>
        <pt x="304" y="724" on="1"/>
        <pt x="439" y="724" on="0"/>
        <pt x="502" y="645" on="1"/>
        <pt x="500" y="707" on="1"/>
        <pt x="500" y="719" on="0"/>
        <pt x="513" y="719" on="1"/>
        <pt x="569" y="719" on="1"/>
        <pt x="581" y="719" on="0"/>
        <pt x="581" y="707" on="1"/>
        <pt x="581" y="489" on="1"/>
        <pt x="581" y="477" on="0"/>
        <pt x="569" y="477" on="1"/>
        <pt x="506" y="477" on="1"/>
        <pt x="494" y="477" on="0"/>
        <pt x="494" y="489" on="1"/>
        <pt x="494" y="517" on="1"/>
        <pt x="494" y="558" on="0"/>
        <pt x="402" y="642" on="0"/>
        <pt x="313" y="642" on="1"/>
        <pt x="247" y="642" on="0"/>
        <pt x="166" y="579" on="0"/>
        <pt x="166" y="530" on="1"/>
        <pt x="166" y="495" on="0"/>
        <pt x="216" y="445" on="0"/>
        <pt x="296" y="415" on="0"/>
        <pt x="392" y="390" on="0"/>
        <pt x="488" y="360" on="0"/>
        <pt x="568" y="318" on="0"/>
        <pt x="618" y="245" on="0"/>
        <pt x="618" y="195" on="1"/>
        <pt x="618" y="107" on="0"/>
        <pt x="492" y="-7" on="0"/>
        <pt x="367" y="-7" on="1"/>
        <pt x="275" y="-7" on="0"/>
        <pt x="155" y="67" on="0"/>
        <pt x="128" y="110" on="1"/>
        <pt x="129" y="12" on="1"/>
        <pt x="129" y="0" on="0"/>
      </contour>
    </TTGlyph>
    <TTGlyph name="Scaron" xMin="48" yMin="-7" xMax="618" yMax="992">
      <contour>
        <pt x="345" y="804" on="1"/>
        <pt x="340" y="799" on="0"/>
        <pt x="329" y="799" on="0"/>
        <pt x="325" y="803" on="1"/>
        <pt x="170" y="939" on="1"/>
        <pt x="161" y="947" on="0"/>
        <pt x="168" y="958" on="1"/>
        <pt x="193" y="986" on="1"/>
        <pt x="197" y="992" on="0"/>
        <pt x="207" y="992" on="0"/>
        <pt x="212" y="988" on="1"/>
        <pt x="334" y="883" on="1"/>
        <pt x="458" y="988" on="1"/>
        <pt x="463" y="992" on="0"/>
        <pt x="473" y="992" on="0"/>
        <pt x="477" y="986" on="1"/>
        <pt x="502" y="958" on="1"/>
        <pt x="508" y="949" on="0"/>
        <pt x="500" y="939" on="1"/>
      </contour>
      <contour>
        <pt x="117" y="0" on="1"/>
        <pt x="61" y="0" on="1"/>
        <pt x="48" y="0" on="0"/>
        <pt x="48" y="12" on="1"/>
        <pt x="48" y="246" on="1"/>
        <pt x="48" y="259" on="0"/>
        <pt x="61" y="259" on="1"/>
        <pt x="124" y="259" on="1"/>
        <pt x="136" y="259" on="0"/>
        <pt x="136" y="246" on="1"/>
        <pt x="136" y="225" on="1"/>
        <pt x="136" y="206" on="0"/>
        <pt x="182" y="143" on="0"/>
        <pt x="228" y="103" on="0"/>
        <pt x="305" y="74" on="0"/>
        <pt x="350" y="74" on="1"/>
        <pt x="427" y="74" on="0"/>
        <pt x="514" y="138" on="0"/>
        <pt x="514" y="195" on="1"/>
        <pt x="514" y="228" on="0"/>
        <pt x="465" y="275" on="0"/>
        <pt x="387" y="303" on="0"/>
        <pt x="292" y="327" on="0"/>
        <pt x="197" y="358" on="0"/>
        <pt x="119" y="401" on="0"/>
        <pt x="70" y="478" on="0"/>
        <pt x="70" y="530" on="1"/>
        <pt x="70" y="614" on="0"/>
        <pt x="197" y="724" on="0"/>
        <pt x="304" y="724" on="1"/>
        <pt x="439" y="724" on="0"/>
        <pt x="502" y="645" on="1"/>
        <pt x="500" y="707" on="1"/>
        <pt x="500" y="719" on="0"/>
        <pt x="513" y="719" on="1"/>
        <pt x="569" y="719" on="1"/>
        <pt x="581" y="719" on="0"/>
        <pt x="581" y="707" on="1"/>
        <pt x="581" y="489" on="1"/>
        <pt x="581" y="477" on="0"/>
        <pt x="569" y="477" on="1"/>
        <pt x="506" y="477" on="1"/>
        <pt x="494" y="477" on="0"/>
        <pt x="494" y="489" on="1"/>
        <pt x="494" y="517" on="1"/>
        <pt x="494" y="558" on="0"/>
        <pt x="402" y="642" on="0"/>
        <pt x="313" y="642" on="1"/>
        <pt x="247" y="642" on="0"/>
        <pt x="166" y="579" on="0"/>
        <pt x="166" y="530" on="1"/>
        <pt x="166" y="495" on="0"/>
        <pt x="216" y="445" on="0"/>
        <pt x="296" y="415" on="0"/>
        <pt x="392" y="390" on="0"/>
        <pt x="488" y="360" on="0"/>
        <pt x="568" y="318" on="0"/>
        <pt x="618" y="245" on="0"/>
        <pt x="618" y="195" on="1"/>
        <pt x="618" y="107" on="0"/>
        <pt x="492" y="-7" on="0"/>
        <pt x="367" y="-7" on="1"/>
        <pt x="275" y="-7" on="0"/>
        <pt x="155" y="67" on="0"/>
        <pt x="128" y="110" on="1"/>
        <pt x="129" y="12" on="1"/>
        <pt x="129" y="0" on="0"/>
      </contour>
    </TTGlyph>
    <TTGlyph name="Scedilla" xMin="48" yMin="-156" xMax="618" yMax="724">
      <contour>
        <pt x="424" y="-116" on="0"/>
        <pt x="377" y="-156" on="0"/>
        <pt x="298" y="-156" on="0"/>
        <pt x="264" y="-133" on="1"/>
        <pt x="253" y="-126" on="0"/>
        <pt x="261" y="-117" on="1"/>
        <pt x="271" y="-105" on="1"/>
        <pt x="279" y="-97" on="0"/>
        <pt x="288" y="-102" on="1"/>
        <pt x="308" y="-115" on="0"/>
        <pt x="332" y="-115" on="1"/>
        <pt x="375" y="-115" on="0"/>
        <pt x="375" y="-82" on="1"/>
        <pt x="375" y="-56" on="0"/>
        <pt x="326" y="-56" on="1"/>
        <pt x="313" y="-56" on="0"/>
        <pt x="304" y="-48" on="0"/>
        <pt x="307" y="-39" on="1"/>
        <pt x="319" y="-4" on="1"/>
        <pt x="247" y="5" on="0"/>
        <pt x="151" y="73" on="0"/>
        <pt x="128" y="110" on="1"/>
        <pt x="129" y="12" on="1"/>
        <pt x="129" y="0" on="0"/>
        <pt x="117" y="0" on="1"/>
        <pt x="61" y="0" on="1"/>
        <pt x="48" y="0" on="0"/>
        <pt x="48" y="12" on="1"/>
        <pt x="48" y="246" on="1"/>
        <pt x="48" y="259" on="0"/>
        <pt x="61" y="259" on="1"/>
        <pt x="124" y="259" on="1"/>
        <pt x="136" y="259" on="0"/>
        <pt x="136" y="246" on="1"/>
        <pt x="136" y="225" on="1"/>
        <pt x="136" y="206" on="0"/>
        <pt x="182" y="143" on="0"/>
        <pt x="228" y="103" on="0"/>
        <pt x="305" y="74" on="0"/>
        <pt x="350" y="74" on="1"/>
        <pt x="427" y="74" on="0"/>
        <pt x="514" y="138" on="0"/>
        <pt x="514" y="195" on="1"/>
        <pt x="514" y="228" on="0"/>
        <pt x="465" y="275" on="0"/>
        <pt x="387" y="303" on="0"/>
        <pt x="292" y="327" on="0"/>
        <pt x="197" y="358" on="0"/>
        <pt x="119" y="401" on="0"/>
        <pt x="70" y="478" on="0"/>
        <pt x="70" y="530" on="1"/>
        <pt x="70" y="614" on="0"/>
        <pt x="197" y="724" on="0"/>
        <pt x="304" y="724" on="1"/>
        <pt x="439" y="724" on="0"/>
        <pt x="502" y="645" on="1"/>
        <pt x="500" y="707" on="1"/>
        <pt x="500" y="719" on="0"/>
        <pt x="513" y="719" on="1"/>
        <pt x="569" y="719" on="1"/>
        <pt x="581" y="719" on="0"/>
        <pt x="581" y="707" on="1"/>
        <pt x="581" y="489" on="1"/>
        <pt x="581" y="477" on="0"/>
        <pt x="569" y="477" on="1"/>
        <pt x="506" y="477" on="1"/>
        <pt x="494" y="477" on="0"/>
        <pt x="494" y="489" on="1"/>
        <pt x="494" y="517" on="1"/>
        <pt x="494" y="558" on="0"/>
        <pt x="402" y="642" on="0"/>
        <pt x="313" y="642" on="1"/>
        <pt x="247" y="642" on="0"/>
        <pt x="166" y="579" on="0"/>
        <pt x="166" y="530" on="1"/>
        <pt x="166" y="495" on="0"/>
        <pt x="216" y="445" on="0"/>
        <pt x="296" y="415" on="0"/>
        <pt x="392" y="390" on="0"/>
        <pt x="488" y="360" on="0"/>
        <pt x="568" y="318" on="0"/>
        <pt x="618" y="245" on="0"/>
        <pt x="618" y="195" on="1"/>
        <pt x="618" y="107" on="0"/>
        <pt x="492" y="-7" on="0"/>
        <pt x="367" y="-7" on="1"/>
        <pt x="360" y="-7" on="1"/>
        <pt x="354" y="-25" on="1"/>
        <pt x="368" y="-25" on="0"/>
        <pt x="387" y="-30" on="1"/>
        <pt x="424" y="-42" on="0"/>
      </contour>
    </TTGlyph>
    <TTGlyph name="Scircumflex" xMin="48" yMin="-7" xMax="618" yMax="989">
      <contour>
        <pt x="322" y="985" on="1"/>
        <pt x="326" y="989" on="0"/>
        <pt x="337" y="989" on="0"/>
        <pt x="342" y="984" on="1"/>
        <pt x="497" y="849" on="1"/>
        <pt x="505" y="839" on="0"/>
        <pt x="499" y="830" on="1"/>
        <pt x="474" y="801" on="1"/>
        <pt x="466" y="791" on="0"/>
        <pt x="455" y="799" on="1"/>
        <pt x="331" y="904" on="1"/>
        <pt x="209" y="799" on="1"/>
        <pt x="199" y="790" on="0"/>
        <pt x="190" y="801" on="1"/>
        <pt x="165" y="830" on="1"/>
        <pt x="158" y="841" on="0"/>
        <pt x="167" y="849" on="1"/>
      </contour>
      <contour>
        <pt x="117" y="0" on="1"/>
        <pt x="61" y="0" on="1"/>
        <pt x="48" y="0" on="0"/>
        <pt x="48" y="12" on="1"/>
        <pt x="48" y="246" on="1"/>
        <pt x="48" y="259" on="0"/>
        <pt x="61" y="259" on="1"/>
        <pt x="124" y="259" on="1"/>
        <pt x="136" y="259" on="0"/>
        <pt x="136" y="246" on="1"/>
        <pt x="136" y="225" on="1"/>
        <pt x="136" y="206" on="0"/>
        <pt x="182" y="143" on="0"/>
        <pt x="228" y="103" on="0"/>
        <pt x="305" y="74" on="0"/>
        <pt x="350" y="74" on="1"/>
        <pt x="427" y="74" on="0"/>
        <pt x="514" y="138" on="0"/>
        <pt x="514" y="195" on="1"/>
        <pt x="514" y="228" on="0"/>
        <pt x="465" y="275" on="0"/>
        <pt x="387" y="303" on="0"/>
        <pt x="292" y="327" on="0"/>
        <pt x="197" y="358" on="0"/>
        <pt x="119" y="401" on="0"/>
        <pt x="70" y="478" on="0"/>
        <pt x="70" y="530" on="1"/>
        <pt x="70" y="614" on="0"/>
        <pt x="197" y="724" on="0"/>
        <pt x="304" y="724" on="1"/>
        <pt x="439" y="724" on="0"/>
        <pt x="502" y="645" on="1"/>
        <pt x="500" y="707" on="1"/>
        <pt x="500" y="719" on="0"/>
        <pt x="513" y="719" on="1"/>
        <pt x="569" y="719" on="1"/>
        <pt x="581" y="719" on="0"/>
        <pt x="581" y="707" on="1"/>
        <pt x="581" y="489" on="1"/>
        <pt x="581" y="477" on="0"/>
        <pt x="569" y="477" on="1"/>
        <pt x="506" y="477" on="1"/>
        <pt x="494" y="477" on="0"/>
        <pt x="494" y="489" on="1"/>
        <pt x="494" y="517" on="1"/>
        <pt x="494" y="558" on="0"/>
        <pt x="402" y="642" on="0"/>
        <pt x="313" y="642" on="1"/>
        <pt x="247" y="642" on="0"/>
        <pt x="166" y="579" on="0"/>
        <pt x="166" y="530" on="1"/>
        <pt x="166" y="495" on="0"/>
        <pt x="216" y="445" on="0"/>
        <pt x="296" y="415" on="0"/>
        <pt x="392" y="390" on="0"/>
        <pt x="488" y="360" on="0"/>
        <pt x="568" y="318" on="0"/>
        <pt x="618" y="245" on="0"/>
        <pt x="618" y="195" on="1"/>
        <pt x="618" y="107" on="0"/>
        <pt x="492" y="-7" on="0"/>
        <pt x="367" y="-7" on="1"/>
        <pt x="275" y="-7" on="0"/>
        <pt x="155" y="67" on="0"/>
        <pt x="128" y="110" on="1"/>
        <pt x="129" y="12" on="1"/>
        <pt x="129" y="0" on="0"/>
      </contour>
    </TTGlyph>
</ttFont>
